<?xml version="1.0" encoding="UTF-8" standalone="no"?>
<!DOCTYPE svg PUBLIC "-//W3C//DTD SVG 1.1//EN"
 "http://www.w3.org/Graphics/SVG/1.1/DTD/svg11.dtd">
<!-- Generated by graphviz version 2.38.0 (20140413.2041)
 -->
<!-- Title: controllers_diagram Pages: 1 -->
<svg width="601pt" height="641pt"
 viewBox="0.00 0.00 601.27 641.00" xmlns="http://www.w3.org/2000/svg" xmlns:xlink="http://www.w3.org/1999/xlink">
<g id="graph0" class="graph" transform="scale(1 1) rotate(0) translate(179.545 381.5)">
<title>controllers_diagram</title>
<polygon fill="none" stroke="none" points="-179.545,259.5 -179.545,-381.5 421.721,-381.5 421.721,259.5 -179.545,259.5"/>
<!-- _diagram_info -->
<g id="node1" class="node"><title>_diagram_info</title>
<text text-anchor="start" x="-152.45" y="-219.1" font-family="Times,serif" font-size="13.00">Controllers diagram</text>
<text text-anchor="start" x="-152.45" y="-206.1" font-family="Times,serif" font-size="13.00">Date: Aug 24 2016 &#45; 19:23</text>
<text text-anchor="start" x="-152.45" y="-193.1" font-family="Times,serif" font-size="13.00">Migration version: 20160824221144</text>
<text text-anchor="start" x="-152.45" y="-180.1" font-family="Times,serif" font-size="13.00">Generated by RailRoady 1.5.1</text>
<text text-anchor="start" x="-152.45" y="-167.1" font-family="Times,serif" font-size="13.00">http://railroady.prestonlee.com</text>
</g>
<!-- ApplicationController -->
<g id="node2" class="node"><title>ApplicationController</title>
<path fill="none" stroke="black" d="M268.179,-1C268.179,-1 383.821,-1 383.821,-1 389.821,-1 395.821,-7 395.821,-13 395.821,-13 395.821,-95 395.821,-95 395.821,-101 389.821,-107 383.821,-107 383.821,-107 268.179,-107 268.179,-107 262.179,-107 256.179,-101 256.179,-95 256.179,-95 256.179,-13 256.179,-13 256.179,-7 262.179,-1 268.179,-1"/>
<text text-anchor="middle" x="326" y="-91.8" font-family="Times,serif" font-size="14.00">ApplicationController</text>
<polyline fill="none" stroke="black" points="256.179,-85 395.821,-85 "/>
<polyline fill="none" stroke="black" points="256.179,-61 395.821,-61 "/>
<polyline fill="none" stroke="black" points="256.179,-37 395.821,-37 "/>
<text text-anchor="start" x="264.179" y="-21.8" font-family="Times,serif" font-size="14.00">_layout</text>
<text text-anchor="start" x="264.179" y="-7.8" font-family="Times,serif" font-size="14.00">set_company</text>
</g>
<!-- CompaniesController -->
<g id="node3" class="node"><title>CompaniesController</title>
<path fill="none" stroke="black" d="M91.731,-81C91.731,-81 204.269,-81 204.269,-81 210.269,-81 216.269,-87 216.269,-93 216.269,-93 216.269,-257 216.269,-257 216.269,-263 210.269,-269 204.269,-269 204.269,-269 91.731,-269 91.731,-269 85.731,-269 79.731,-263 79.731,-257 79.731,-257 79.731,-93 79.731,-93 79.731,-87 85.731,-81 91.731,-81"/>
<text text-anchor="middle" x="148" y="-253.8" font-family="Times,serif" font-size="14.00">CompaniesController</text>
<polyline fill="none" stroke="black" points="79.731,-247 216.269,-247 "/>
<text text-anchor="start" x="87.731" y="-231.8" font-family="Times,serif" font-size="14.00">index</text>
<text text-anchor="start" x="87.731" y="-217.8" font-family="Times,serif" font-size="14.00">destroy</text>
<text text-anchor="start" x="87.731" y="-203.8" font-family="Times,serif" font-size="14.00">edit</text>
<text text-anchor="start" x="87.731" y="-189.8" font-family="Times,serif" font-size="14.00">create</text>
<text text-anchor="start" x="87.731" y="-175.8" font-family="Times,serif" font-size="14.00">new</text>
<text text-anchor="start" x="87.731" y="-161.8" font-family="Times,serif" font-size="14.00">show</text>
<text text-anchor="start" x="87.731" y="-147.8" font-family="Times,serif" font-size="14.00">update</text>
<polyline fill="none" stroke="black" points="79.731,-141 216.269,-141 "/>
<polyline fill="none" stroke="black" points="79.731,-117 216.269,-117 "/>
<text text-anchor="start" x="87.731" y="-101.8" font-family="Times,serif" font-size="14.00">_layout</text>
<text text-anchor="start" x="87.731" y="-87.8" font-family="Times,serif" font-size="14.00">company_params</text>
</g>
<!-- DevicesController -->
<g id="node4" class="node"><title>DevicesController</title>
<path fill="none" stroke="black" d="M283.683,-273C283.683,-273 378.317,-273 378.317,-273 384.317,-273 390.317,-279 390.317,-285 390.317,-285 390.317,-351 390.317,-351 390.317,-357 384.317,-363 378.317,-363 378.317,-363 283.683,-363 283.683,-363 277.683,-363 271.683,-357 271.683,-351 271.683,-351 271.683,-285 271.683,-285 271.683,-279 277.683,-273 283.683,-273"/>
<text text-anchor="middle" x="331" y="-347.8" font-family="Times,serif" font-size="14.00">DevicesController</text>
<polyline fill="none" stroke="black" points="271.683,-341 390.317,-341 "/>
<text text-anchor="start" x="279.683" y="-325.8" font-family="Times,serif" font-size="14.00">index</text>
<polyline fill="none" stroke="black" points="271.683,-319 390.317,-319 "/>
<polyline fill="none" stroke="black" points="271.683,-295 390.317,-295 "/>
<text text-anchor="start" x="279.683" y="-279.8" font-family="Times,serif" font-size="14.00">_layout</text>
</g>
<!-- HomeController -->
<g id="node5" class="node"><title>HomeController</title>
<path fill="none" stroke="black" d="M-51.8794,-273C-51.8794,-273 31.8794,-273 31.8794,-273 37.8794,-273 43.8794,-279 43.8794,-285 43.8794,-285 43.8794,-365 43.8794,-365 43.8794,-371 37.8794,-377 31.8794,-377 31.8794,-377 -51.8794,-377 -51.8794,-377 -57.8794,-377 -63.8794,-371 -63.8794,-365 -63.8794,-365 -63.8794,-285 -63.8794,-285 -63.8794,-279 -57.8794,-273 -51.8794,-273"/>
<text text-anchor="middle" x="-10" y="-361.8" font-family="Times,serif" font-size="14.00">HomeController</text>
<polyline fill="none" stroke="black" points="-63.8794,-355 43.8794,-355 "/>
<text text-anchor="start" x="-55.8794" y="-339.8" font-family="Times,serif" font-size="14.00">index</text>
<text text-anchor="start" x="-55.8794" y="-325.8" font-family="Times,serif" font-size="14.00">minor</text>
<polyline fill="none" stroke="black" points="-63.8794,-319 43.8794,-319 "/>
<polyline fill="none" stroke="black" points="-63.8794,-295 43.8794,-295 "/>
<text text-anchor="start" x="-55.8794" y="-279.8" font-family="Times,serif" font-size="14.00">_layout</text>
</g>
<!-- Users::ConfirmationsController -->
<g id="node6" class="node"><title>Users::ConfirmationsController</title>
<path fill="none" stroke="black" d="M140.338,127C140.338,127 309.662,127 309.662,127 315.662,127 321.662,121 321.662,115 321.662,115 321.662,47 321.662,47 321.662,41 315.662,35 309.662,35 309.662,35 140.338,35 140.338,35 134.338,35 128.338,41 128.338,47 128.338,47 128.338,115 128.338,115 128.338,121 134.338,127 140.338,127"/>
<text text-anchor="middle" x="225" y="50.2" font-family="Times,serif" font-size="14.00">Users::ConfirmationsController</text>
<polyline fill="none" stroke="black" points="128.338,57 321.662,57 "/>
<polyline fill="none" stroke="black" points="128.338,81 321.662,81 "/>
<polyline fill="none" stroke="black" points="128.338,105 321.662,105 "/>
<text text-anchor="start" x="136.338" y="120.2" font-family="Times,serif" font-size="14.00">_layout</text>
</g>
<!-- Users::OmniauthCallbacksController -->
<g id="node7" class="node"><title>Users::OmniauthCallbacksController</title>
<path fill="none" stroke="black" d="M-116.204,47C-116.204,47 84.2036,47 84.2036,47 90.2036,47 96.2036,41 96.2036,35 96.2036,35 96.2036,-33 96.2036,-33 96.2036,-39 90.2036,-45 84.2036,-45 84.2036,-45 -116.204,-45 -116.204,-45 -122.204,-45 -128.204,-39 -128.204,-33 -128.204,-33 -128.204,35 -128.204,35 -128.204,41 -122.204,47 -116.204,47"/>
<text text-anchor="middle" x="-16" y="-29.8" font-family="Times,serif" font-size="14.00">Users::OmniauthCallbacksController</text>
<polyline fill="none" stroke="black" points="-128.204,-23 96.2036,-23 "/>
<polyline fill="none" stroke="black" points="-128.204,1 96.2036,1 "/>
<polyline fill="none" stroke="black" points="-128.204,25 96.2036,25 "/>
<text text-anchor="start" x="-120.204" y="40.2" font-family="Times,serif" font-size="14.00">_layout</text>
</g>
<!-- Users::PasswordsController -->
<g id="node8" class="node"><title>Users::PasswordsController</title>
<path fill="none" stroke="black" d="M59.8379,255C59.8379,255 208.162,255 208.162,255 214.162,255 220.162,249 220.162,243 220.162,243 220.162,175 220.162,175 220.162,169 214.162,163 208.162,163 208.162,163 59.8379,163 59.8379,163 53.8379,163 47.8379,169 47.8379,175 47.8379,175 47.8379,243 47.8379,243 47.8379,249 53.8379,255 59.8379,255"/>
<text text-anchor="middle" x="134" y="178.2" font-family="Times,serif" font-size="14.00">Users::PasswordsController</text>
<polyline fill="none" stroke="black" points="47.8379,185 220.162,185 "/>
<polyline fill="none" stroke="black" points="47.8379,209 220.162,209 "/>
<polyline fill="none" stroke="black" points="47.8379,233 220.162,233 "/>
<text text-anchor="start" x="55.8379" y="248.2" font-family="Times,serif" font-size="14.00">_layout</text>
</g>
<!-- Users::RegistrationsController -->
<g id="node9" class="node"><title>Users::RegistrationsController</title>
<path fill="none" stroke="black" d="M-163.545,175C-163.545,175 -0.455078,175 -0.455078,175 5.54492,175 11.5449,169 11.5449,163 11.5449,163 11.5449,95 11.5449,95 11.5449,89 5.54492,83 -0.455078,83 -0.455078,83 -163.545,83 -163.545,83 -169.545,83 -175.545,89 -175.545,95 -175.545,95 -175.545,163 -175.545,163 -175.545,169 -169.545,175 -163.545,175"/>
<text text-anchor="middle" x="-82" y="98.2" font-family="Times,serif" font-size="14.00">Users::RegistrationsController</text>
<polyline fill="none" stroke="black" points="-175.545,105 11.5449,105 "/>
<polyline fill="none" stroke="black" points="-175.545,129 11.5449,129 "/>
<polyline fill="none" stroke="black" points="-175.545,153 11.5449,153 "/>
<text text-anchor="start" x="-167.545" y="168.2" font-family="Times,serif" font-size="14.00">_layout</text>
</g>
<!-- Users::SessionsController -->
<g id="node10" class="node"><title>Users::SessionsController</title>
<path fill="none" stroke="black" d="M268.279,255C268.279,255 405.721,255 405.721,255 411.721,255 417.721,249 417.721,243 417.721,243 417.721,177 417.721,177 417.721,171 411.721,165 405.721,165 405.721,165 268.279,165 268.279,165 262.279,165 256.279,171 256.279,177 256.279,177 256.279,243 256.279,243 256.279,249 262.279,255 268.279,255"/>
<text text-anchor="middle" x="337" y="180.2" font-family="Times,serif" font-size="14.00">Users::SessionsController</text>
<polyline fill="none" stroke="black" points="256.279,187 417.721,187 "/>
<text text-anchor="start" x="264.279" y="202.2" font-family="Times,serif" font-size="14.00">new</text>
<polyline fill="none" stroke="black" points="256.279,209 417.721,209 "/>
<polyline fill="none" stroke="black" points="256.279,233 417.721,233 "/>
<text text-anchor="start" x="264.279" y="248.2" font-family="Times,serif" font-size="14.00">_layout</text>
</g>
<!-- Users::UnlocksController -->
<g id="node11" class="node"><title>Users::UnlocksController</title>
<path fill="none" stroke="black" d="M268.065,-145C268.065,-145 403.935,-145 403.935,-145 409.935,-145 415.935,-151 415.935,-157 415.935,-157 415.935,-225 415.935,-225 415.935,-231 409.935,-237 403.935,-237 403.935,-237 268.065,-237 268.065,-237 262.065,-237 256.065,-231 256.065,-225 256.065,-225 256.065,-157 256.065,-157 256.065,-151 262.065,-145 268.065,-145"/>
<text text-anchor="middle" x="336" y="-221.8" font-family="Times,serif" font-size="14.00">Users::UnlocksController</text>
<polyline fill="none" stroke="black" points="256.065,-215 415.935,-215 "/>
<polyline fill="none" stroke="black" points="256.065,-191 415.935,-191 "/>
<polyline fill="none" stroke="black" points="256.065,-167 415.935,-167 "/>
<text text-anchor="start" x="264.065" y="-151.8" font-family="Times,serif" font-size="14.00">_layout</text>
</g>
</g>
</svg>
