<?xml version="1.0" encoding="UTF-8" standalone="no"?>
<!DOCTYPE svg PUBLIC "-//W3C//DTD SVG 1.1//EN"
 "http://www.w3.org/Graphics/SVG/1.1/DTD/svg11.dtd">
<!-- Generated by graphviz version 2.38.0 (20140413.2041)
 -->
<!-- Title: controllers_diagram Pages: 1 -->
<svg width="1642pt" height="1567pt"
 viewBox="0.00 0.00 1642.08 1566.58" xmlns="http://www.w3.org/2000/svg" xmlns:xlink="http://www.w3.org/1999/xlink">
<g id="graph0" class="graph" transform="scale(1 1) rotate(0) translate(864.716 824.676)">
<title>controllers_diagram</title>
<polygon fill="none" stroke="none" points="-864.716,741.904 -864.716,-824.676 777.359,-824.676 777.359,741.904 -864.716,741.904"/>
<!-- _diagram_info -->
<g id="node1" class="node"><title>_diagram_info</title>
<text text-anchor="start" x="500.312" y="63.9" font-family="Times,serif" font-size="13.00">Controllers diagram</text>
<text text-anchor="start" x="500.312" y="76.9" font-family="Times,serif" font-size="13.00">Date: Aug 21 2016 &#45; 02:08</text>
<text text-anchor="start" x="500.312" y="89.9" font-family="Times,serif" font-size="13.00">Migration version: 20160821050530</text>
<text text-anchor="start" x="500.312" y="102.9" font-family="Times,serif" font-size="13.00">Generated by RailRoady 1.5.1</text>
<text text-anchor="start" x="500.312" y="115.9" font-family="Times,serif" font-size="13.00">http://railroady.prestonlee.com</text>
</g>
<!-- ApplicationController -->
<g id="node2" class="node"><title>ApplicationController</title>
<path fill="none" stroke="black" d="M-334.561,618.79C-334.561,618.79 -218.919,618.79 -218.919,618.79 -212.919,618.79 -206.919,612.79 -206.919,606.79 -206.919,606.79 -206.919,538.79 -206.919,538.79 -206.919,532.79 -212.919,526.79 -218.919,526.79 -218.919,526.79 -334.561,526.79 -334.561,526.79 -340.561,526.79 -346.561,532.79 -346.561,538.79 -346.561,538.79 -346.561,606.79 -346.561,606.79 -346.561,612.79 -340.561,618.79 -334.561,618.79"/>
<text text-anchor="middle" x="-276.74" y="541.99" font-family="Times,serif" font-size="14.00">ApplicationController</text>
<polyline fill="none" stroke="black" points="-346.561,548.79 -206.919,548.79 "/>
<polyline fill="none" stroke="black" points="-346.561,572.79 -206.919,572.79 "/>
<polyline fill="none" stroke="black" points="-346.561,596.79 -206.919,596.79 "/>
<text text-anchor="start" x="-338.561" y="611.99" font-family="Times,serif" font-size="14.00">_layout</text>
</g>
<!-- CompaniesController -->
<g id="node3" class="node"><title>CompaniesController</title>
<path fill="none" stroke="black" d="M77.5125,737.404C77.5125,737.404 190.051,737.404 190.051,737.404 196.051,737.404 202.051,731.404 202.051,725.404 202.051,725.404 202.051,547.404 202.051,547.404 202.051,541.404 196.051,535.404 190.051,535.404 190.051,535.404 77.5125,535.404 77.5125,535.404 71.5125,535.404 65.5125,541.404 65.5125,547.404 65.5125,547.404 65.5125,725.404 65.5125,725.404 65.5125,731.404 71.5125,737.404 77.5125,737.404"/>
<text text-anchor="middle" x="133.782" y="550.604" font-family="Times,serif" font-size="14.00">CompaniesController</text>
<polyline fill="none" stroke="black" points="65.5125,557.404 202.051,557.404 "/>
<text text-anchor="start" x="73.5125" y="572.604" font-family="Times,serif" font-size="14.00">index</text>
<text text-anchor="start" x="73.5125" y="586.604" font-family="Times,serif" font-size="14.00">destroy</text>
<text text-anchor="start" x="73.5125" y="600.604" font-family="Times,serif" font-size="14.00">edit</text>
<text text-anchor="start" x="73.5125" y="614.604" font-family="Times,serif" font-size="14.00">create</text>
<text text-anchor="start" x="73.5125" y="628.604" font-family="Times,serif" font-size="14.00">new</text>
<text text-anchor="start" x="73.5125" y="642.604" font-family="Times,serif" font-size="14.00">show</text>
<text text-anchor="start" x="73.5125" y="656.604" font-family="Times,serif" font-size="14.00">update</text>
<polyline fill="none" stroke="black" points="65.5125,663.404 202.051,663.404 "/>
<polyline fill="none" stroke="black" points="65.5125,687.404 202.051,687.404 "/>
<text text-anchor="start" x="73.5125" y="702.604" font-family="Times,serif" font-size="14.00">_layout</text>
<text text-anchor="start" x="73.5125" y="716.604" font-family="Times,serif" font-size="14.00">company_params</text>
<text text-anchor="start" x="73.5125" y="730.604" font-family="Times,serif" font-size="14.00">set_company</text>
</g>
<!-- ApplicationController&#45;&gt;CompaniesController -->
<g id="edge1" class="edge"><title>ApplicationController&#45;&gt;CompaniesController</title>
<path fill="none" stroke="black" d="M-206.635,583.653C-130.606,595.435 -10.0418,614.117 65.3331,625.797"/>
</g>
<!-- HomeController -->
<g id="node4" class="node"><title>HomeController</title>
<path fill="none" stroke="black" d="M-785.89,596.468C-785.89,596.468 -702.131,596.468 -702.131,596.468 -696.131,596.468 -690.131,590.468 -690.131,584.468 -690.131,584.468 -690.131,476.468 -690.131,476.468 -690.131,470.468 -696.131,464.468 -702.131,464.468 -702.131,464.468 -785.89,464.468 -785.89,464.468 -791.89,464.468 -797.89,470.468 -797.89,476.468 -797.89,476.468 -797.89,584.468 -797.89,584.468 -797.89,590.468 -791.89,596.468 -785.89,596.468"/>
<text text-anchor="middle" x="-744.01" y="479.668" font-family="Times,serif" font-size="14.00">HomeController</text>
<polyline fill="none" stroke="black" points="-797.89,486.468 -690.131,486.468 "/>
<text text-anchor="start" x="-789.89" y="501.668" font-family="Times,serif" font-size="14.00">companies</text>
<text text-anchor="start" x="-789.89" y="515.668" font-family="Times,serif" font-size="14.00">index</text>
<text text-anchor="start" x="-789.89" y="529.668" font-family="Times,serif" font-size="14.00">minor</text>
<polyline fill="none" stroke="black" points="-797.89,536.468 -690.131,536.468 "/>
<polyline fill="none" stroke="black" points="-797.89,560.468 -690.131,560.468 "/>
<text text-anchor="start" x="-789.89" y="575.668" font-family="Times,serif" font-size="14.00">_layout</text>
<text text-anchor="start" x="-789.89" y="589.668" font-family="Times,serif" font-size="14.00">set_company</text>
</g>
<!-- ApplicationController&#45;&gt;HomeController -->
<g id="edge2" class="edge"><title>ApplicationController&#45;&gt;HomeController</title>
<path fill="none" stroke="black" d="M-346.695,566.454C-440.513,557.957 -605.097,543.05 -689.983,535.361"/>
</g>
<!-- DeviseController -->
<g id="node17" class="node"><title>DeviseController</title>
<path fill="none" stroke="black" d="M-196.684,265.562C-196.684,265.562 -25.8078,265.562 -25.8078,265.562 -19.8078,265.562 -13.8078,259.562 -13.8078,253.562 -13.8078,253.562 -13.8078,-90.4382 -13.8078,-90.4382 -13.8078,-96.4382 -19.8078,-102.438 -25.8078,-102.438 -25.8078,-102.438 -196.684,-102.438 -196.684,-102.438 -202.684,-102.438 -208.684,-96.4382 -208.684,-90.4382 -208.684,-90.4382 -208.684,253.562 -208.684,253.562 -208.684,259.562 -202.684,265.562 -196.684,265.562"/>
<text text-anchor="middle" x="-111.246" y="-87.2382" font-family="Times,serif" font-size="14.00">DeviseController</text>
<polyline fill="none" stroke="black" points="-208.684,-80.4382 -13.8078,-80.4382 "/>
<text text-anchor="start" x="-200.684" y="-65.2382" font-family="Times,serif" font-size="14.00">_prefixes</text>
<polyline fill="none" stroke="black" points="-208.684,-58.4382 -13.8078,-58.4382 "/>
<text text-anchor="start" x="-200.684" y="-43.2382" font-family="Times,serif" font-size="14.00">unknown_action!</text>
<text text-anchor="start" x="-200.684" y="-29.2382" font-family="Times,serif" font-size="14.00">clean_up_passwords</text>
<text text-anchor="start" x="-200.684" y="-15.2382" font-family="Times,serif" font-size="14.00">devise_i18n_options</text>
<text text-anchor="start" x="-200.684" y="-1.23819" font-family="Times,serif" font-size="14.00">devise_mapping</text>
<text text-anchor="start" x="-200.684" y="12.7618" font-family="Times,serif" font-size="14.00">find_message</text>
<text text-anchor="start" x="-200.684" y="26.7618" font-family="Times,serif" font-size="14.00">navigational_formats</text>
<text text-anchor="start" x="-200.684" y="40.7618" font-family="Times,serif" font-size="14.00">require_no_authentication</text>
<text text-anchor="start" x="-200.684" y="54.7618" font-family="Times,serif" font-size="14.00">resource</text>
<text text-anchor="start" x="-200.684" y="68.7618" font-family="Times,serif" font-size="14.00">resource=</text>
<text text-anchor="start" x="-200.684" y="82.7618" font-family="Times,serif" font-size="14.00">resource_class</text>
<text text-anchor="start" x="-200.684" y="96.7618" font-family="Times,serif" font-size="14.00">resource_name</text>
<text text-anchor="start" x="-200.684" y="110.762" font-family="Times,serif" font-size="14.00">resource_params</text>
<text text-anchor="start" x="-200.684" y="124.762" font-family="Times,serif" font-size="14.00">respond_with_navigational</text>
<text text-anchor="start" x="-200.684" y="138.762" font-family="Times,serif" font-size="14.00">scope_name</text>
<text text-anchor="start" x="-200.684" y="152.762" font-family="Times,serif" font-size="14.00">set_flash_message</text>
<text text-anchor="start" x="-200.684" y="166.762" font-family="Times,serif" font-size="14.00">set_flash_message!</text>
<text text-anchor="start" x="-200.684" y="180.762" font-family="Times,serif" font-size="14.00">set_minimum_password_length</text>
<text text-anchor="start" x="-200.684" y="194.762" font-family="Times,serif" font-size="14.00">signed_in_resource</text>
<text text-anchor="start" x="-200.684" y="208.762" font-family="Times,serif" font-size="14.00">successfully_sent?</text>
<text text-anchor="start" x="-200.684" y="222.762" font-family="Times,serif" font-size="14.00">translation_scope</text>
<text text-anchor="start" x="-200.684" y="236.762" font-family="Times,serif" font-size="14.00">assert_is_devise_resource!</text>
<polyline fill="none" stroke="black" points="-208.684,243.562 -13.8078,243.562 "/>
<text text-anchor="start" x="-200.684" y="258.762" font-family="Times,serif" font-size="14.00">_layout</text>
</g>
<!-- ApplicationController&#45;&gt;DeviseController -->
<g id="edge15" class="edge"><title>ApplicationController&#45;&gt;DeviseController</title>
<path fill="none" stroke="black" d="M-261.171,526.576C-241.115,467.046 -205.056,360.013 -173.327,265.834"/>
</g>
<!-- Users::ConfirmationsController -->
<g id="node5" class="node"><title>Users::ConfirmationsController</title>
<path fill="none" stroke="black" d="M-113.547,-728.176C-113.547,-728.176 55.7772,-728.176 55.7772,-728.176 61.7772,-728.176 67.7772,-734.176 67.7772,-740.176 67.7772,-740.176 67.7772,-808.176 67.7772,-808.176 67.7772,-814.176 61.7772,-820.176 55.7772,-820.176 55.7772,-820.176 -113.547,-820.176 -113.547,-820.176 -119.547,-820.176 -125.547,-814.176 -125.547,-808.176 -125.547,-808.176 -125.547,-740.176 -125.547,-740.176 -125.547,-734.176 -119.547,-728.176 -113.547,-728.176"/>
<text text-anchor="middle" x="-28.8849" y="-804.976" font-family="Times,serif" font-size="14.00">Users::ConfirmationsController</text>
<polyline fill="none" stroke="black" points="-125.547,-798.176 67.7772,-798.176 "/>
<polyline fill="none" stroke="black" points="-125.547,-774.176 67.7772,-774.176 "/>
<polyline fill="none" stroke="black" points="-125.547,-750.176 67.7772,-750.176 "/>
<text text-anchor="start" x="-117.547" y="-734.976" font-family="Times,serif" font-size="14.00">_layout</text>
</g>
<!-- Users::OmniauthCallbacksController -->
<g id="node6" class="node"><title>Users::OmniauthCallbacksController</title>
<path fill="none" stroke="black" d="M525.226,-670.792C525.226,-670.792 725.633,-670.792 725.633,-670.792 731.633,-670.792 737.633,-676.792 737.633,-682.792 737.633,-682.792 737.633,-750.792 737.633,-750.792 737.633,-756.792 731.633,-762.792 725.633,-762.792 725.633,-762.792 525.226,-762.792 525.226,-762.792 519.226,-762.792 513.226,-756.792 513.226,-750.792 513.226,-750.792 513.226,-682.792 513.226,-682.792 513.226,-676.792 519.226,-670.792 525.226,-670.792"/>
<text text-anchor="middle" x="625.43" y="-747.592" font-family="Times,serif" font-size="14.00">Users::OmniauthCallbacksController</text>
<polyline fill="none" stroke="black" points="513.226,-740.792 737.633,-740.792 "/>
<polyline fill="none" stroke="black" points="513.226,-716.792 737.633,-716.792 "/>
<polyline fill="none" stroke="black" points="513.226,-692.792 737.633,-692.792 "/>
<text text-anchor="start" x="521.226" y="-677.592" font-family="Times,serif" font-size="14.00">_layout</text>
</g>
<!-- Users::PasswordsController -->
<g id="node7" class="node"><title>Users::PasswordsController</title>
<path fill="none" stroke="black" d="M-745.939,-680.389C-745.939,-680.389 -597.614,-680.389 -597.614,-680.389 -591.614,-680.389 -585.614,-686.389 -585.614,-692.389 -585.614,-692.389 -585.614,-760.389 -585.614,-760.389 -585.614,-766.389 -591.614,-772.389 -597.614,-772.389 -597.614,-772.389 -745.939,-772.389 -745.939,-772.389 -751.939,-772.389 -757.939,-766.389 -757.939,-760.389 -757.939,-760.389 -757.939,-692.389 -757.939,-692.389 -757.939,-686.389 -751.939,-680.389 -745.939,-680.389"/>
<text text-anchor="middle" x="-671.777" y="-757.189" font-family="Times,serif" font-size="14.00">Users::PasswordsController</text>
<polyline fill="none" stroke="black" points="-757.939,-750.389 -585.614,-750.389 "/>
<polyline fill="none" stroke="black" points="-757.939,-726.389 -585.614,-726.389 "/>
<polyline fill="none" stroke="black" points="-757.939,-702.389 -585.614,-702.389 "/>
<text text-anchor="start" x="-749.939" y="-687.189" font-family="Times,serif" font-size="14.00">_layout</text>
</g>
<!-- Users::RegistrationsController -->
<g id="node8" class="node"><title>Users::RegistrationsController</title>
<path fill="none" stroke="black" d="M568.38,590.182C568.38,590.182 731.47,590.182 731.47,590.182 737.47,590.182 743.47,584.182 743.47,578.182 743.47,578.182 743.47,510.182 743.47,510.182 743.47,504.182 737.47,498.182 731.47,498.182 731.47,498.182 568.38,498.182 568.38,498.182 562.38,498.182 556.38,504.182 556.38,510.182 556.38,510.182 556.38,578.182 556.38,578.182 556.38,584.182 562.38,590.182 568.38,590.182"/>
<text text-anchor="middle" x="649.925" y="513.382" font-family="Times,serif" font-size="14.00">Users::RegistrationsController</text>
<polyline fill="none" stroke="black" points="556.38,520.182 743.47,520.182 "/>
<polyline fill="none" stroke="black" points="556.38,544.182 743.47,544.182 "/>
<polyline fill="none" stroke="black" points="556.38,568.182 743.47,568.182 "/>
<text text-anchor="start" x="564.38" y="583.382" font-family="Times,serif" font-size="14.00">_layout</text>
</g>
<!-- Users::SessionsController -->
<g id="node9" class="node"><title>Users::SessionsController</title>
<path fill="none" stroke="black" d="M623.918,-22.4011C623.918,-22.4011 761.359,-22.4011 761.359,-22.4011 767.359,-22.4011 773.359,-28.4011 773.359,-34.4011 773.359,-34.4011 773.359,-100.401 773.359,-100.401 773.359,-106.401 767.359,-112.401 761.359,-112.401 761.359,-112.401 623.918,-112.401 623.918,-112.401 617.918,-112.401 611.918,-106.401 611.918,-100.401 611.918,-100.401 611.918,-34.4011 611.918,-34.4011 611.918,-28.4011 617.918,-22.4011 623.918,-22.4011"/>
<text text-anchor="middle" x="692.639" y="-97.2011" font-family="Times,serif" font-size="14.00">Users::SessionsController</text>
<polyline fill="none" stroke="black" points="611.918,-90.4011 773.359,-90.4011 "/>
<text text-anchor="start" x="619.918" y="-75.2011" font-family="Times,serif" font-size="14.00">new</text>
<polyline fill="none" stroke="black" points="611.918,-68.4011 773.359,-68.4011 "/>
<polyline fill="none" stroke="black" points="611.918,-44.4011 773.359,-44.4011 "/>
<text text-anchor="start" x="619.918" y="-29.2011" font-family="Times,serif" font-size="14.00">_layout</text>
</g>
<!-- Users::UnlocksController -->
<g id="node10" class="node"><title>Users::UnlocksController</title>
<path fill="none" stroke="black" d="M-848.716,-99.9005C-848.716,-99.9005 -712.847,-99.9005 -712.847,-99.9005 -706.847,-99.9005 -700.847,-105.9 -700.847,-111.9 -700.847,-111.9 -700.847,-179.9 -700.847,-179.9 -700.847,-185.9 -706.847,-191.9 -712.847,-191.9 -712.847,-191.9 -848.716,-191.9 -848.716,-191.9 -854.716,-191.9 -860.716,-185.9 -860.716,-179.9 -860.716,-179.9 -860.716,-111.9 -860.716,-111.9 -860.716,-105.9 -854.716,-99.9005 -848.716,-99.9005"/>
<text text-anchor="middle" x="-780.781" y="-176.7" font-family="Times,serif" font-size="14.00">Users::UnlocksController</text>
<polyline fill="none" stroke="black" points="-860.716,-169.9 -700.847,-169.9 "/>
<polyline fill="none" stroke="black" points="-860.716,-145.9 -700.847,-145.9 "/>
<polyline fill="none" stroke="black" points="-860.716,-121.9 -700.847,-121.9 "/>
<text text-anchor="start" x="-852.716" y="-106.7" font-family="Times,serif" font-size="14.00">_layout</text>
</g>
<!-- Devise::ConfirmationsController -->
<g id="node11" class="node"><title>Devise::ConfirmationsController</title>
<path fill="none" stroke="black" d="M-156.578,-238.995C-156.578,-238.995 127.795,-238.995 127.795,-238.995 133.795,-238.995 139.795,-244.995 139.795,-250.995 139.795,-250.995 139.795,-370.995 139.795,-370.995 139.795,-376.995 133.795,-382.995 127.795,-382.995 127.795,-382.995 -156.578,-382.995 -156.578,-382.995 -162.578,-382.995 -168.578,-376.995 -168.578,-370.995 -168.578,-370.995 -168.578,-250.995 -168.578,-250.995 -168.578,-244.995 -162.578,-238.995 -156.578,-238.995"/>
<text text-anchor="middle" x="-14.3914" y="-367.795" font-family="Times,serif" font-size="14.00">Devise::ConfirmationsController</text>
<polyline fill="none" stroke="black" points="-168.578,-360.995 139.795,-360.995 "/>
<text text-anchor="start" x="-160.578" y="-345.795" font-family="Times,serif" font-size="14.00">create</text>
<text text-anchor="start" x="-160.578" y="-331.795" font-family="Times,serif" font-size="14.00">new</text>
<text text-anchor="start" x="-160.578" y="-317.795" font-family="Times,serif" font-size="14.00">show</text>
<polyline fill="none" stroke="black" points="-168.578,-310.995 139.795,-310.995 "/>
<text text-anchor="start" x="-160.578" y="-295.795" font-family="Times,serif" font-size="14.00">after_confirmation_path_for</text>
<text text-anchor="start" x="-160.578" y="-281.795" font-family="Times,serif" font-size="14.00">after_resending_confirmation_instructions_path_for</text>
<text text-anchor="start" x="-160.578" y="-267.795" font-family="Times,serif" font-size="14.00">translation_scope</text>
<polyline fill="none" stroke="black" points="-168.578,-260.995 139.795,-260.995 "/>
<text text-anchor="start" x="-160.578" y="-245.795" font-family="Times,serif" font-size="14.00">_layout</text>
</g>
<!-- Devise::ConfirmationsController&#45;&gt;Users::ConfirmationsController -->
<g id="edge3" class="edge"><title>Devise::ConfirmationsController&#45;&gt;Users::ConfirmationsController</title>
<path fill="none" stroke="black" d="M-16.648,-383.112C-19.6595,-479.352 -24.9059,-647.017 -27.4371,-727.909"/>
</g>
<!-- Devise::OmniauthCallbacksController -->
<g id="node12" class="node"><title>Devise::OmniauthCallbacksController</title>
<path fill="none" stroke="black" d="M230.44,-333.227C230.44,-333.227 437.841,-333.227 437.841,-333.227 443.841,-333.227 449.841,-339.227 449.841,-345.227 449.841,-345.227 449.841,-465.227 449.841,-465.227 449.841,-471.227 443.841,-477.227 437.841,-477.227 437.841,-477.227 230.44,-477.227 230.44,-477.227 224.44,-477.227 218.44,-471.227 218.44,-465.227 218.44,-465.227 218.44,-345.227 218.44,-345.227 218.44,-339.227 224.44,-333.227 230.44,-333.227"/>
<text text-anchor="middle" x="334.14" y="-462.027" font-family="Times,serif" font-size="14.00">Devise::OmniauthCallbacksController</text>
<polyline fill="none" stroke="black" points="218.44,-455.227 449.841,-455.227 "/>
<text text-anchor="start" x="226.44" y="-440.027" font-family="Times,serif" font-size="14.00">failure</text>
<text text-anchor="start" x="226.44" y="-426.027" font-family="Times,serif" font-size="14.00">passthru</text>
<polyline fill="none" stroke="black" points="218.44,-419.227 449.841,-419.227 "/>
<text text-anchor="start" x="226.44" y="-404.027" font-family="Times,serif" font-size="14.00">after_omniauth_failure_path_for</text>
<text text-anchor="start" x="226.44" y="-390.027" font-family="Times,serif" font-size="14.00">failed_strategy</text>
<text text-anchor="start" x="226.44" y="-376.027" font-family="Times,serif" font-size="14.00">failure_message</text>
<text text-anchor="start" x="226.44" y="-362.027" font-family="Times,serif" font-size="14.00">translation_scope</text>
<polyline fill="none" stroke="black" points="218.44,-355.227 449.841,-355.227 "/>
<text text-anchor="start" x="226.44" y="-340.027" font-family="Times,serif" font-size="14.00">_layout</text>
</g>
<!-- Devise::OmniauthCallbacksController&#45;&gt;Users::OmniauthCallbacksController -->
<g id="edge4" class="edge"><title>Devise::OmniauthCallbacksController&#45;&gt;Users::OmniauthCallbacksController</title>
<path fill="none" stroke="black" d="M401.7,-477.489C457.33,-536.991 534.538,-619.574 582.174,-670.526"/>
</g>
<!-- Devise::PasswordsController -->
<g id="node13" class="node"><title>Devise::PasswordsController</title>
<path fill="none" stroke="black" d="M-490.9,-255.544C-490.9,-255.544 -202.638,-255.544 -202.638,-255.544 -196.638,-255.544 -190.638,-261.544 -190.638,-267.544 -190.638,-267.544 -190.638,-429.544 -190.638,-429.544 -190.638,-435.544 -196.638,-441.544 -202.638,-441.544 -202.638,-441.544 -490.9,-441.544 -490.9,-441.544 -496.9,-441.544 -502.9,-435.544 -502.9,-429.544 -502.9,-429.544 -502.9,-267.544 -502.9,-267.544 -502.9,-261.544 -496.9,-255.544 -490.9,-255.544"/>
<text text-anchor="middle" x="-346.769" y="-426.344" font-family="Times,serif" font-size="14.00">Devise::PasswordsController</text>
<polyline fill="none" stroke="black" points="-502.9,-419.544 -190.638,-419.544 "/>
<text text-anchor="start" x="-494.9" y="-404.344" font-family="Times,serif" font-size="14.00">create</text>
<text text-anchor="start" x="-494.9" y="-390.344" font-family="Times,serif" font-size="14.00">edit</text>
<text text-anchor="start" x="-494.9" y="-376.344" font-family="Times,serif" font-size="14.00">new</text>
<text text-anchor="start" x="-494.9" y="-362.344" font-family="Times,serif" font-size="14.00">update</text>
<polyline fill="none" stroke="black" points="-502.9,-355.544 -190.638,-355.544 "/>
<text text-anchor="start" x="-494.9" y="-340.344" font-family="Times,serif" font-size="14.00">after_resetting_password_path_for</text>
<text text-anchor="start" x="-494.9" y="-326.344" font-family="Times,serif" font-size="14.00">after_sending_reset_password_instructions_path_for</text>
<text text-anchor="start" x="-494.9" y="-312.344" font-family="Times,serif" font-size="14.00">assert_reset_token_passed</text>
<text text-anchor="start" x="-494.9" y="-298.344" font-family="Times,serif" font-size="14.00">translation_scope</text>
<text text-anchor="start" x="-494.9" y="-284.344" font-family="Times,serif" font-size="14.00">unlockable?</text>
<polyline fill="none" stroke="black" points="-502.9,-277.544 -190.638,-277.544 "/>
<text text-anchor="start" x="-494.9" y="-262.344" font-family="Times,serif" font-size="14.00">_layout</text>
</g>
<!-- Devise::PasswordsController&#45;&gt;Users::PasswordsController -->
<g id="edge5" class="edge"><title>Devise::PasswordsController&#45;&gt;Users::PasswordsController</title>
<path fill="none" stroke="black" d="M-427.108,-441.944C-492.242,-517.667 -581.275,-621.174 -632.027,-680.178"/>
</g>
<!-- Devise::RegistrationsController -->
<g id="node14" class="node"><title>Devise::RegistrationsController</title>
<path fill="none" stroke="black" d="M160.493,397.162C160.493,397.162 335.211,397.162 335.211,397.162 341.211,397.162 347.211,391.162 347.211,385.162 347.211,385.162 347.211,111.162 347.211,111.162 347.211,105.162 341.211,99.1625 335.211,99.1625 335.211,99.1625 160.493,99.1625 160.493,99.1625 154.493,99.1625 148.493,105.162 148.493,111.162 148.493,111.162 148.493,385.162 148.493,385.162 148.493,391.162 154.493,397.162 160.493,397.162"/>
<text text-anchor="middle" x="247.852" y="114.362" font-family="Times,serif" font-size="14.00">Devise::RegistrationsController</text>
<polyline fill="none" stroke="black" points="148.493,121.162 347.211,121.162 "/>
<text text-anchor="start" x="156.493" y="136.362" font-family="Times,serif" font-size="14.00">cancel</text>
<text text-anchor="start" x="156.493" y="150.362" font-family="Times,serif" font-size="14.00">create</text>
<text text-anchor="start" x="156.493" y="164.362" font-family="Times,serif" font-size="14.00">destroy</text>
<text text-anchor="start" x="156.493" y="178.362" font-family="Times,serif" font-size="14.00">edit</text>
<text text-anchor="start" x="156.493" y="192.362" font-family="Times,serif" font-size="14.00">new</text>
<text text-anchor="start" x="156.493" y="206.362" font-family="Times,serif" font-size="14.00">update</text>
<polyline fill="none" stroke="black" points="148.493,213.162 347.211,213.162 "/>
<text text-anchor="start" x="156.493" y="228.362" font-family="Times,serif" font-size="14.00">update_resource</text>
<text text-anchor="start" x="156.493" y="242.362" font-family="Times,serif" font-size="14.00">after_inactive_sign_up_path_for</text>
<text text-anchor="start" x="156.493" y="256.362" font-family="Times,serif" font-size="14.00">after_sign_up_path_for</text>
<text text-anchor="start" x="156.493" y="270.362" font-family="Times,serif" font-size="14.00">after_update_path_for</text>
<text text-anchor="start" x="156.493" y="284.362" font-family="Times,serif" font-size="14.00">authenticate_scope!</text>
<text text-anchor="start" x="156.493" y="298.362" font-family="Times,serif" font-size="14.00">build_resource</text>
<text text-anchor="start" x="156.493" y="312.362" font-family="Times,serif" font-size="14.00">sign_up</text>
<text text-anchor="start" x="156.493" y="326.362" font-family="Times,serif" font-size="14.00">sign_up_params</text>
<text text-anchor="start" x="156.493" y="340.362" font-family="Times,serif" font-size="14.00">translation_scope</text>
<text text-anchor="start" x="156.493" y="354.362" font-family="Times,serif" font-size="14.00">update_needs_confirmation?</text>
<text text-anchor="start" x="156.493" y="368.362" font-family="Times,serif" font-size="14.00">account_update_params</text>
<polyline fill="none" stroke="black" points="148.493,375.162 347.211,375.162 "/>
<text text-anchor="start" x="156.493" y="390.362" font-family="Times,serif" font-size="14.00">_layout</text>
</g>
<!-- Devise::RegistrationsController&#45;&gt;Users::RegistrationsController -->
<g id="edge6" class="edge"><title>Devise::RegistrationsController&#45;&gt;Users::RegistrationsController</title>
<path fill="none" stroke="black" d="M347.241,321.336C422.354,376.637 523.159,450.853 587.346,498.109"/>
</g>
<!-- Devise::SessionsController -->
<g id="node15" class="node"><title>Devise::SessionsController</title>
<path fill="none" stroke="black" d="M170.629,36.1837C170.629,36.1837 315.064,36.1837 315.064,36.1837 321.064,36.1837 327.064,30.1837 327.064,24.1837 327.064,24.1837 327.064,-151.816 327.064,-151.816 327.064,-157.816 321.064,-163.816 315.064,-163.816 315.064,-163.816 170.629,-163.816 170.629,-163.816 164.629,-163.816 158.629,-157.816 158.629,-151.816 158.629,-151.816 158.629,24.1837 158.629,24.1837 158.629,30.1837 164.629,36.1837 170.629,36.1837"/>
<text text-anchor="middle" x="242.846" y="-148.616" font-family="Times,serif" font-size="14.00">Devise::SessionsController</text>
<polyline fill="none" stroke="black" points="158.629,-141.816 327.064,-141.816 "/>
<text text-anchor="start" x="166.629" y="-126.616" font-family="Times,serif" font-size="14.00">create</text>
<text text-anchor="start" x="166.629" y="-112.616" font-family="Times,serif" font-size="14.00">destroy</text>
<text text-anchor="start" x="166.629" y="-98.6163" font-family="Times,serif" font-size="14.00">new</text>
<polyline fill="none" stroke="black" points="158.629,-91.8163 327.064,-91.8163 "/>
<text text-anchor="start" x="166.629" y="-76.6163" font-family="Times,serif" font-size="14.00">auth_options</text>
<text text-anchor="start" x="166.629" y="-62.6163" font-family="Times,serif" font-size="14.00">serialize_options</text>
<text text-anchor="start" x="166.629" y="-48.6163" font-family="Times,serif" font-size="14.00">sign_in_params</text>
<text text-anchor="start" x="166.629" y="-34.6163" font-family="Times,serif" font-size="14.00">translation_scope</text>
<polyline fill="none" stroke="black" points="158.629,-27.8163 327.064,-27.8163 "/>
<text text-anchor="start" x="166.629" y="-12.6163" font-family="Times,serif" font-size="14.00">_layout</text>
<text text-anchor="start" x="166.629" y="1.38368" font-family="Times,serif" font-size="14.00">all_signed_out?</text>
<text text-anchor="start" x="166.629" y="15.3837" font-family="Times,serif" font-size="14.00">respond_to_on_destroy</text>
<text text-anchor="start" x="166.629" y="29.3837" font-family="Times,serif" font-size="14.00">verify_signed_out_user</text>
</g>
<!-- Devise::SessionsController&#45;&gt;Users::SessionsController -->
<g id="edge7" class="edge"><title>Devise::SessionsController&#45;&gt;Users::SessionsController</title>
<path fill="none" stroke="black" d="M327.185,-64.4885C408.712,-65.1382 531.373,-66.1158 611.724,-66.7562"/>
</g>
<!-- Devise::UnlocksController -->
<g id="node16" class="node"><title>Devise::UnlocksController</title>
<path fill="none" stroke="black" d="M-577.273,186.104C-577.273,186.104 -337.217,186.104 -337.217,186.104 -331.217,186.104 -325.217,180.104 -325.217,174.104 -325.217,174.104 -325.217,54.1038 -325.217,54.1038 -325.217,48.1038 -331.217,42.1038 -337.217,42.1038 -337.217,42.1038 -577.273,42.1038 -577.273,42.1038 -583.273,42.1038 -589.273,48.1038 -589.273,54.1038 -589.273,54.1038 -589.273,174.104 -589.273,174.104 -589.273,180.104 -583.273,186.104 -577.273,186.104"/>
<text text-anchor="middle" x="-457.245" y="57.3038" font-family="Times,serif" font-size="14.00">Devise::UnlocksController</text>
<polyline fill="none" stroke="black" points="-589.273,64.1038 -325.217,64.1038 "/>
<text text-anchor="start" x="-581.273" y="79.3038" font-family="Times,serif" font-size="14.00">create</text>
<text text-anchor="start" x="-581.273" y="93.3038" font-family="Times,serif" font-size="14.00">new</text>
<text text-anchor="start" x="-581.273" y="107.304" font-family="Times,serif" font-size="14.00">show</text>
<polyline fill="none" stroke="black" points="-589.273,114.104 -325.217,114.104 "/>
<text text-anchor="start" x="-581.273" y="129.304" font-family="Times,serif" font-size="14.00">after_sending_unlock_instructions_path_for</text>
<text text-anchor="start" x="-581.273" y="143.304" font-family="Times,serif" font-size="14.00">after_unlock_path_for</text>
<text text-anchor="start" x="-581.273" y="157.304" font-family="Times,serif" font-size="14.00">translation_scope</text>
<polyline fill="none" stroke="black" points="-589.273,164.104 -325.217,164.104 "/>
<text text-anchor="start" x="-581.273" y="179.304" font-family="Times,serif" font-size="14.00">_layout</text>
</g>
<!-- Devise::UnlocksController&#45;&gt;Users::UnlocksController -->
<g id="edge8" class="edge"><title>Devise::UnlocksController&#45;&gt;Users::UnlocksController</title>
<path fill="none" stroke="black" d="M-546.938,42.0234C-603.415,-3.36327 -674.625,-60.5895 -723.538,-99.8976"/>
</g>
<!-- DeviseController&#45;&gt;Devise::ConfirmationsController -->
<g id="edge9" class="edge"><title>DeviseController&#45;&gt;Devise::ConfirmationsController</title>
<path fill="none" stroke="black" d="M-65.7963,-102.647C-53.8531,-151.054 -41.6674,-200.443 -32.1597,-238.979"/>
</g>
<!-- DeviseController&#45;&gt;Devise::OmniauthCallbacksController -->
<g id="edge10" class="edge"><title>DeviseController&#45;&gt;Devise::OmniauthCallbacksController</title>
<path fill="none" stroke="black" d="M-13.7792,-24.9651C71.7291,-118.422 193.734,-251.768 268.23,-333.19"/>
</g>
<!-- DeviseController&#45;&gt;Devise::PasswordsController -->
<g id="edge11" class="edge"><title>DeviseController&#45;&gt;Devise::PasswordsController</title>
<path fill="none" stroke="black" d="M-208.742,-96.4834C-238.608,-151.024 -270.267,-208.838 -295.721,-255.321"/>
</g>
<!-- DeviseController&#45;&gt;Devise::RegistrationsController -->
<g id="edge12" class="edge"><title>DeviseController&#45;&gt;Devise::RegistrationsController</title>
<path fill="none" stroke="black" d="M-13.5951,126.866C36.6653,150.184 97.8222,178.557 148.347,201.998"/>
</g>
<!-- DeviseController&#45;&gt;Devise::SessionsController -->
<g id="edge13" class="edge"><title>DeviseController&#45;&gt;Devise::SessionsController</title>
<path fill="none" stroke="black" d="M-13.5512,41.4518C40.3887,19.3059 106.719,-7.92692 158.399,-29.1451"/>
</g>
<!-- DeviseController&#45;&gt;Devise::UnlocksController -->
<g id="edge14" class="edge"><title>DeviseController&#45;&gt;Devise::UnlocksController</title>
<path fill="none" stroke="black" d="M-209.008,90.7565C-245.078,94.149 -286.568,98.0512 -325.173,101.682"/>
</g>
</g>
</svg>
