<?xml version="1.0" encoding="UTF-8" standalone="no"?>
<!DOCTYPE svg PUBLIC "-//W3C//DTD SVG 1.1//EN"
 "http://www.w3.org/Graphics/SVG/1.1/DTD/svg11.dtd">
<!-- Generated by graphviz version 2.38.0 (20140413.2041)
 -->
<!-- Title: controllers_diagram Pages: 1 -->
<svg width="595pt" height="597pt"
 viewBox="0.00 0.00 595.27 597.00" xmlns="http://www.w3.org/2000/svg" xmlns:xlink="http://www.w3.org/1999/xlink">
<g id="graph0" class="graph" transform="scale(1 1) rotate(0) translate(243.721 353.5)">
<title>controllers_diagram</title>
<polygon fill="none" stroke="none" points="-243.721,243.5 -243.721,-353.5 351.545,-353.5 351.545,243.5 -243.721,243.5"/>
<!-- _diagram_info -->
<g id="node1" class="node"><title>_diagram_info</title>
<text text-anchor="start" x="-135.688" y="-203.1" font-family="Times,serif" font-size="13.00">Controllers diagram</text>
<text text-anchor="start" x="-135.688" y="-190.1" font-family="Times,serif" font-size="13.00">Date: Aug 17 2016 &#45; 22:02</text>
<text text-anchor="start" x="-135.688" y="-177.1" font-family="Times,serif" font-size="13.00">Migration version: 20160818005902</text>
<text text-anchor="start" x="-135.688" y="-164.1" font-family="Times,serif" font-size="13.00">Generated by RailRoady 1.5.1</text>
<text text-anchor="start" x="-135.688" y="-151.1" font-family="Times,serif" font-size="13.00">http://railroady.prestonlee.com</text>
</g>
<!-- ApplicationController -->
<g id="node2" class="node"><title>ApplicationController</title>
<path fill="none" stroke="black" d="M-195.821,-257C-195.821,-257 -80.1792,-257 -80.1792,-257 -74.1792,-257 -68.1792,-263 -68.1792,-269 -68.1792,-269 -68.1792,-337 -68.1792,-337 -68.1792,-343 -74.1792,-349 -80.1792,-349 -80.1792,-349 -195.821,-349 -195.821,-349 -201.821,-349 -207.821,-343 -207.821,-337 -207.821,-337 -207.821,-269 -207.821,-269 -207.821,-263 -201.821,-257 -195.821,-257"/>
<text text-anchor="middle" x="-138" y="-333.8" font-family="Times,serif" font-size="14.00">ApplicationController</text>
<polyline fill="none" stroke="black" points="-207.821,-327 -68.1792,-327 "/>
<polyline fill="none" stroke="black" points="-207.821,-303 -68.1792,-303 "/>
<polyline fill="none" stroke="black" points="-207.821,-279 -68.1792,-279 "/>
<text text-anchor="start" x="-199.821" y="-263.8" font-family="Times,serif" font-size="14.00">_layout</text>
</g>
<!-- CompaniesController -->
<g id="node3" class="node"><title>CompaniesController</title>
<path fill="none" stroke="black" d="M-68.269,111C-68.269,111 44.269,111 44.269,111 50.269,111 56.269,105 56.269,99 56.269,99 56.269,-79 56.269,-79 56.269,-85 50.269,-91 44.269,-91 44.269,-91 -68.269,-91 -68.269,-91 -74.269,-91 -80.269,-85 -80.269,-79 -80.269,-79 -80.269,99 -80.269,99 -80.269,105 -74.269,111 -68.269,111"/>
<text text-anchor="middle" x="-12" y="-75.8" font-family="Times,serif" font-size="14.00">CompaniesController</text>
<polyline fill="none" stroke="black" points="-80.269,-69 56.269,-69 "/>
<text text-anchor="start" x="-72.269" y="-53.8" font-family="Times,serif" font-size="14.00">index</text>
<text text-anchor="start" x="-72.269" y="-39.8" font-family="Times,serif" font-size="14.00">destroy</text>
<text text-anchor="start" x="-72.269" y="-25.8" font-family="Times,serif" font-size="14.00">edit</text>
<text text-anchor="start" x="-72.269" y="-11.8" font-family="Times,serif" font-size="14.00">create</text>
<text text-anchor="start" x="-72.269" y="2.2" font-family="Times,serif" font-size="14.00">new</text>
<text text-anchor="start" x="-72.269" y="16.2" font-family="Times,serif" font-size="14.00">show</text>
<text text-anchor="start" x="-72.269" y="30.2" font-family="Times,serif" font-size="14.00">update</text>
<polyline fill="none" stroke="black" points="-80.269,37 56.269,37 "/>
<polyline fill="none" stroke="black" points="-80.269,61 56.269,61 "/>
<text text-anchor="start" x="-72.269" y="76.2" font-family="Times,serif" font-size="14.00">_layout</text>
<text text-anchor="start" x="-72.269" y="90.2" font-family="Times,serif" font-size="14.00">company_params</text>
<text text-anchor="start" x="-72.269" y="104.2" font-family="Times,serif" font-size="14.00">set_company</text>
</g>
<!-- HomeController -->
<g id="node4" class="node"><title>HomeController</title>
<path fill="none" stroke="black" d="M-211.879,15C-211.879,15 -128.121,15 -128.121,15 -122.121,15 -116.121,9 -116.121,3 -116.121,3 -116.121,-105 -116.121,-105 -116.121,-111 -122.121,-117 -128.121,-117 -128.121,-117 -211.879,-117 -211.879,-117 -217.879,-117 -223.879,-111 -223.879,-105 -223.879,-105 -223.879,3 -223.879,3 -223.879,9 -217.879,15 -211.879,15"/>
<text text-anchor="middle" x="-170" y="-101.8" font-family="Times,serif" font-size="14.00">HomeController</text>
<polyline fill="none" stroke="black" points="-223.879,-95 -116.121,-95 "/>
<text text-anchor="start" x="-215.879" y="-79.8" font-family="Times,serif" font-size="14.00">companies</text>
<text text-anchor="start" x="-215.879" y="-65.8" font-family="Times,serif" font-size="14.00">index</text>
<text text-anchor="start" x="-215.879" y="-51.8" font-family="Times,serif" font-size="14.00">minor</text>
<polyline fill="none" stroke="black" points="-223.879,-45 -116.121,-45 "/>
<polyline fill="none" stroke="black" points="-223.879,-21 -116.121,-21 "/>
<text text-anchor="start" x="-215.879" y="-5.8" font-family="Times,serif" font-size="14.00">_layout</text>
<text text-anchor="start" x="-215.879" y="8.2" font-family="Times,serif" font-size="14.00">set_company</text>
</g>
<!-- Users::ConfirmationsController -->
<g id="node5" class="node"><title>Users::ConfirmationsController</title>
<path fill="none" stroke="black" d="M108.338,-33C108.338,-33 277.662,-33 277.662,-33 283.662,-33 289.662,-39 289.662,-45 289.662,-45 289.662,-113 289.662,-113 289.662,-119 283.662,-125 277.662,-125 277.662,-125 108.338,-125 108.338,-125 102.338,-125 96.3379,-119 96.3379,-113 96.3379,-113 96.3379,-45 96.3379,-45 96.3379,-39 102.338,-33 108.338,-33"/>
<text text-anchor="middle" x="193" y="-109.8" font-family="Times,serif" font-size="14.00">Users::ConfirmationsController</text>
<polyline fill="none" stroke="black" points="96.3379,-103 289.662,-103 "/>
<polyline fill="none" stroke="black" points="96.3379,-79 289.662,-79 "/>
<polyline fill="none" stroke="black" points="96.3379,-55 289.662,-55 "/>
<text text-anchor="start" x="104.338" y="-39.8" font-family="Times,serif" font-size="14.00">_layout</text>
</g>
<!-- Users::OmniauthCallbacksController -->
<g id="node6" class="node"><title>Users::OmniauthCallbacksController</title>
<path fill="none" stroke="black" d="M107.796,95C107.796,95 308.204,95 308.204,95 314.204,95 320.204,89 320.204,83 320.204,83 320.204,15 320.204,15 320.204,9 314.204,3 308.204,3 308.204,3 107.796,3 107.796,3 101.796,3 95.7964,9 95.7964,15 95.7964,15 95.7964,83 95.7964,83 95.7964,89 101.796,95 107.796,95"/>
<text text-anchor="middle" x="208" y="18.2" font-family="Times,serif" font-size="14.00">Users::OmniauthCallbacksController</text>
<polyline fill="none" stroke="black" points="95.7964,25 320.204,25 "/>
<polyline fill="none" stroke="black" points="95.7964,49 320.204,49 "/>
<polyline fill="none" stroke="black" points="95.7964,73 320.204,73 "/>
<text text-anchor="start" x="103.796" y="88.2" font-family="Times,serif" font-size="14.00">_layout</text>
</g>
<!-- Users::PasswordsController -->
<g id="node7" class="node"><title>Users::PasswordsController</title>
<path fill="none" stroke="black" d="M107.838,223C107.838,223 256.162,223 256.162,223 262.162,223 268.162,217 268.162,211 268.162,211 268.162,143 268.162,143 268.162,137 262.162,131 256.162,131 256.162,131 107.838,131 107.838,131 101.838,131 95.8379,137 95.8379,143 95.8379,143 95.8379,211 95.8379,211 95.8379,217 101.838,223 107.838,223"/>
<text text-anchor="middle" x="182" y="146.2" font-family="Times,serif" font-size="14.00">Users::PasswordsController</text>
<polyline fill="none" stroke="black" points="95.8379,153 268.162,153 "/>
<polyline fill="none" stroke="black" points="95.8379,177 268.162,177 "/>
<polyline fill="none" stroke="black" points="95.8379,201 268.162,201 "/>
<text text-anchor="start" x="103.838" y="216.2" font-family="Times,serif" font-size="14.00">_layout</text>
</g>
<!-- Users::RegistrationsController -->
<g id="node8" class="node"><title>Users::RegistrationsController</title>
<path fill="none" stroke="black" d="M172.455,-161C172.455,-161 335.545,-161 335.545,-161 341.545,-161 347.545,-167 347.545,-173 347.545,-173 347.545,-241 347.545,-241 347.545,-247 341.545,-253 335.545,-253 335.545,-253 172.455,-253 172.455,-253 166.455,-253 160.455,-247 160.455,-241 160.455,-241 160.455,-173 160.455,-173 160.455,-167 166.455,-161 172.455,-161"/>
<text text-anchor="middle" x="254" y="-237.8" font-family="Times,serif" font-size="14.00">Users::RegistrationsController</text>
<polyline fill="none" stroke="black" points="160.455,-231 347.545,-231 "/>
<polyline fill="none" stroke="black" points="160.455,-207 347.545,-207 "/>
<polyline fill="none" stroke="black" points="160.455,-183 347.545,-183 "/>
<text text-anchor="start" x="168.455" y="-167.8" font-family="Times,serif" font-size="14.00">_layout</text>
</g>
<!-- Users::SessionsController -->
<g id="node9" class="node"><title>Users::SessionsController</title>
<path fill="none" stroke="black" d="M-227.721,239C-227.721,239 -90.2793,239 -90.2793,239 -84.2793,239 -78.2793,233 -78.2793,227 -78.2793,227 -78.2793,161 -78.2793,161 -78.2793,155 -84.2793,149 -90.2793,149 -90.2793,149 -227.721,149 -227.721,149 -233.721,149 -239.721,155 -239.721,161 -239.721,161 -239.721,227 -239.721,227 -239.721,233 -233.721,239 -227.721,239"/>
<text text-anchor="middle" x="-159" y="164.2" font-family="Times,serif" font-size="14.00">Users::SessionsController</text>
<polyline fill="none" stroke="black" points="-239.721,171 -78.2793,171 "/>
<text text-anchor="start" x="-231.721" y="186.2" font-family="Times,serif" font-size="14.00">new</text>
<polyline fill="none" stroke="black" points="-239.721,193 -78.2793,193 "/>
<polyline fill="none" stroke="black" points="-239.721,217 -78.2793,217 "/>
<text text-anchor="start" x="-231.721" y="232.2" font-family="Times,serif" font-size="14.00">_layout</text>
</g>
<!-- Users::UnlocksController -->
<g id="node10" class="node"><title>Users::UnlocksController</title>
<path fill="none" stroke="black" d="M-19.9346,-257C-19.9346,-257 115.935,-257 115.935,-257 121.935,-257 127.935,-263 127.935,-269 127.935,-269 127.935,-337 127.935,-337 127.935,-343 121.935,-349 115.935,-349 115.935,-349 -19.9346,-349 -19.9346,-349 -25.9346,-349 -31.9346,-343 -31.9346,-337 -31.9346,-337 -31.9346,-269 -31.9346,-269 -31.9346,-263 -25.9346,-257 -19.9346,-257"/>
<text text-anchor="middle" x="48" y="-333.8" font-family="Times,serif" font-size="14.00">Users::UnlocksController</text>
<polyline fill="none" stroke="black" points="-31.9346,-327 127.935,-327 "/>
<polyline fill="none" stroke="black" points="-31.9346,-303 127.935,-303 "/>
<polyline fill="none" stroke="black" points="-31.9346,-279 127.935,-279 "/>
<text text-anchor="start" x="-23.9346" y="-263.8" font-family="Times,serif" font-size="14.00">_layout</text>
</g>
</g>
</svg>
