<?xml version="1.0" encoding="UTF-8" standalone="no"?>
<!DOCTYPE svg PUBLIC "-//W3C//DTD SVG 1.1//EN"
 "http://www.w3.org/Graphics/SVG/1.1/DTD/svg11.dtd">
<!-- Generated by graphviz version 2.38.0 (20140413.2041)
 -->
<!-- Title: models_diagram Pages: 1 -->
<svg width="1132pt" height="513pt"
 viewBox="0.00 0.00 1131.53 513.00" xmlns="http://www.w3.org/2000/svg" xmlns:xlink="http://www.w3.org/1999/xlink">
<g id="graph0" class="graph" transform="scale(1 1) rotate(0) translate(4 509)">
<title>models_diagram</title>
<polygon fill="none" stroke="none" points="-4,4 -4,-509 1127.53,-509 1127.53,4 -4,4"/>
<!-- _diagram_info -->
<g id="node1" class="node"><title>_diagram_info</title>
<text text-anchor="start" x="8" y="-490.6" font-family="Times,serif" font-size="13.00">Models diagram</text>
<text text-anchor="start" x="8" y="-477.6" font-family="Times,serif" font-size="13.00">Date: Aug 21 2016 &#45; 02:08</text>
<text text-anchor="start" x="8" y="-464.6" font-family="Times,serif" font-size="13.00">Migration version: 20160821050530</text>
<text text-anchor="start" x="8" y="-451.6" font-family="Times,serif" font-size="13.00">Generated by RailRoady 1.5.1</text>
<text text-anchor="start" x="8" y="-438.6" font-family="Times,serif" font-size="13.00">http://railroady.prestonlee.com</text>
</g>
<!-- Branch -->
<g id="node2" class="node"><title>Branch</title>
<ellipse fill="none" stroke="black" cx="406.688" cy="-378" rx="35.7887" ry="18"/>
<text text-anchor="middle" x="406.688" y="-373.8" font-family="Times,serif" font-size="14.00">Branch</text>
</g>
<!-- Plant -->
<g id="node17" class="node"><title>Plant</title>
<ellipse fill="none" stroke="black" cx="408.688" cy="-306" rx="28.0736" ry="18"/>
<text text-anchor="middle" x="408.688" y="-301.8" font-family="Times,serif" font-size="14.00">Plant</text>
</g>
<!-- Branch&#45;&gt;Plant -->
<g id="edge1" class="edge"><title>Branch&#45;&gt;Plant</title>
<path fill="none" stroke="#df361f" d="M407.412,-351.64C407.572,-346.063 407.741,-340.132 407.903,-334.476"/>
<ellipse fill="none" stroke="#df361f" cx="407.296" cy="-355.698" rx="4" ry="4"/>
<polygon fill="#df361f" stroke="#df361f" points="407.913,-334.1 412.697,-324.233 408.056,-329.102 408.199,-324.104 408.199,-324.104 408.199,-324.104 408.056,-329.102 403.701,-323.976 407.913,-334.1 407.913,-334.1"/>
</g>
<!-- Company -->
<g id="node3" class="node"><title>Company</title>
<ellipse fill="none" stroke="black" cx="269.688" cy="-468.5" rx="44.4923" ry="18"/>
<text text-anchor="middle" x="269.688" y="-464.3" font-family="Times,serif" font-size="14.00">Company</text>
</g>
<!-- Company&#45;&gt;Branch -->
<g id="edge4" class="edge"><title>Company&#45;&gt;Branch</title>
<path fill="none" stroke="#b6343d" d="M299.309,-448.365C322.2,-433.578 353.752,-413.195 376.729,-398.353"/>
<ellipse fill="none" stroke="#b6343d" cx="295.67" cy="-450.716" rx="4.00002" ry="4.00002"/>
<polygon fill="#b6343d" stroke="#b6343d" points="376.985,-398.188 387.827,-396.541 381.185,-395.474 385.385,-392.761 385.385,-392.761 385.385,-392.761 381.185,-395.474 382.943,-388.981 376.985,-398.188 376.985,-398.188"/>
</g>
<!-- CompanyUser -->
<g id="node4" class="node"><title>CompanyUser</title>
<ellipse fill="none" stroke="black" cx="269.688" cy="-306" rx="61.3891" ry="18"/>
<text text-anchor="middle" x="269.688" y="-301.8" font-family="Times,serif" font-size="14.00">CompanyUser</text>
</g>
<!-- Company&#45;&gt;CompanyUser -->
<g id="edge2" class="edge"><title>Company&#45;&gt;CompanyUser</title>
<path fill="none" stroke="#a9e5bb" d="M269.688,-442.079C269.688,-412.675 269.688,-364.455 269.688,-334.284"/>
<ellipse fill="none" stroke="#a9e5bb" cx="269.688" cy="-446.324" rx="4" ry="4"/>
<polygon fill="#a9e5bb" stroke="#a9e5bb" points="269.688,-334.053 274.188,-324.053 269.688,-329.053 269.688,-324.053 269.688,-324.053 269.688,-324.053 269.688,-329.053 265.188,-324.053 269.688,-334.053 269.688,-334.053"/>
</g>
<!-- User -->
<g id="node24" class="node"><title>User</title>
<ellipse fill="none" stroke="black" cx="214.688" cy="-378" rx="27" ry="18"/>
<text text-anchor="middle" x="214.688" y="-373.8" font-family="Times,serif" font-size="14.00">User</text>
</g>
<!-- Company&#45;&gt;User -->
<g id="edge3" class="edge"><title>Company&#45;&gt;User</title>
<path fill="none" stroke="#417ffa" d="M253.817,-441.962C246.31,-429.883 237.386,-415.523 229.957,-403.57"/>
<polygon fill="#417ffa" stroke="#417ffa" points="254.064,-442.36 255.521,-453.229 256.703,-446.607 259.343,-450.854 259.343,-450.854 259.343,-450.854 256.703,-446.607 263.165,-448.479 254.064,-442.36 254.064,-442.36"/>
<polygon fill="#417ffa" stroke="#417ffa" points="229.894,-403.469 228.438,-392.6 227.255,-399.222 224.616,-394.975 224.616,-394.975 224.616,-394.975 227.255,-399.222 220.794,-397.351 229.894,-403.469 229.894,-403.469"/>
</g>
<!-- Equipment -->
<g id="node5" class="node"><title>Equipment</title>
<ellipse fill="none" stroke="black" cx="416.688" cy="-162" rx="48.8273" ry="18"/>
<text text-anchor="middle" x="416.688" y="-157.8" font-family="Times,serif" font-size="14.00">Equipment</text>
</g>
<!-- Equipment&#45;&gt;Equipment -->
<g id="edge5" class="edge"><title>Equipment&#45;&gt;Equipment</title>
<path fill="none" stroke="#2bc0f2" d="M459.087,-175.497C472.756,-175.374 483.601,-170.875 483.601,-162 483.601,-153.539 473.746,-149.056 460.983,-148.548"/>
<ellipse fill="none" stroke="#2bc0f2" cx="454.767" cy="-175.272" rx="4" ry="4"/>
<polygon fill="#2bc0f2" stroke="#2bc0f2" points="460.765,-148.557 450.602,-144.439 455.769,-148.746 450.772,-148.936 450.772,-148.936 450.772,-148.936 455.769,-148.746 450.943,-153.433 460.765,-148.557 460.765,-148.557"/>
</g>
<!-- EquipmentState -->
<g id="node6" class="node"><title>EquipmentState</title>
<ellipse fill="none" stroke="black" cx="416.688" cy="-90" rx="66.6925" ry="18"/>
<text text-anchor="middle" x="416.688" y="-85.8" font-family="Times,serif" font-size="14.00">EquipmentState</text>
</g>
<!-- Equipment&#45;&gt;EquipmentState -->
<g id="edge7" class="edge"><title>Equipment&#45;&gt;EquipmentState</title>
<path fill="none" stroke="#771594" d="M416.688,-135.64C416.688,-130.063 416.688,-124.132 416.688,-118.476"/>
<ellipse fill="none" stroke="#771594" cx="416.688" cy="-139.697" rx="4" ry="4"/>
<polygon fill="#771594" stroke="#771594" points="416.688,-118.104 421.188,-108.104 416.688,-113.104 416.688,-108.104 416.688,-108.104 416.688,-108.104 416.688,-113.104 412.188,-108.104 416.688,-118.104 416.688,-118.104"/>
</g>
<!-- EquipmentSupply -->
<g id="node7" class="node"><title>EquipmentSupply</title>
<ellipse fill="none" stroke="black" cx="869.688" cy="-90" rx="73.9516" ry="18"/>
<text text-anchor="middle" x="869.688" y="-85.8" font-family="Times,serif" font-size="14.00">EquipmentSupply</text>
</g>
<!-- Equipment&#45;&gt;EquipmentSupply -->
<g id="edge6" class="edge"><title>Equipment&#45;&gt;EquipmentSupply</title>
<path fill="none" stroke="#0a3c8a" d="M464.474,-149.696C473.804,-147.664 483.531,-145.665 492.688,-144 549.256,-133.714 703.057,-112.93 795.805,-100.668"/>
<ellipse fill="none" stroke="#0a3c8a" cx="460.308" cy="-150.619" rx="4.00001" ry="4.00001"/>
<polygon fill="#0a3c8a" stroke="#0a3c8a" points="796.056,-100.635 806.559,-103.787 801.013,-99.9805 805.97,-99.326 805.97,-99.326 805.97,-99.326 801.013,-99.9805 805.381,-94.8647 796.056,-100.635 796.056,-100.635"/>
</g>
<!-- Failure -->
<g id="node9" class="node"><title>Failure</title>
<ellipse fill="none" stroke="black" cx="296.688" cy="-90" rx="35.3129" ry="18"/>
<text text-anchor="middle" x="296.688" y="-85.8" font-family="Times,serif" font-size="14.00">Failure</text>
</g>
<!-- Equipment&#45;&gt;Failure -->
<g id="edge8" class="edge"><title>Equipment&#45;&gt;Failure</title>
<path fill="none" stroke="#cc37cd" d="M384.761,-142.376C367.126,-132.089 345.314,-119.365 327.808,-109.154"/>
<ellipse fill="none" stroke="#cc37cd" cx="388.369" cy="-144.48" rx="4.00002" ry="4.00002"/>
<polygon fill="#cc37cd" stroke="#cc37cd" points="327.729,-109.108 321.359,-100.182 323.411,-106.588 319.092,-104.069 319.092,-104.069 319.092,-104.069 323.411,-106.588 316.824,-107.956 327.729,-109.108 327.729,-109.108"/>
</g>
<!-- MaintenancePlan -->
<g id="node13" class="node"><title>MaintenancePlan</title>
<ellipse fill="none" stroke="black" cx="572.688" cy="-90" rx="71.4945" ry="18"/>
<text text-anchor="middle" x="572.688" y="-85.8" font-family="Times,serif" font-size="14.00">MaintenancePlan</text>
</g>
<!-- Equipment&#45;&gt;MaintenancePlan -->
<g id="edge9" class="edge"><title>Equipment&#45;&gt;MaintenancePlan</title>
<path fill="none" stroke="#56b9e8" d="M453.826,-144.335C476.756,-134.046 506.25,-120.812 530.122,-110.1"/>
<ellipse fill="none" stroke="#56b9e8" cx="450.047" cy="-146.031" rx="4.00002" ry="4.00002"/>
<polygon fill="#56b9e8" stroke="#56b9e8" points="530.179,-110.074 541.145,-110.086 534.741,-108.028 539.303,-105.981 539.303,-105.981 539.303,-105.981 534.741,-108.028 537.46,-101.875 530.179,-110.074 530.179,-110.074"/>
</g>
<!-- EquipmentType -->
<g id="node8" class="node"><title>EquipmentType</title>
<ellipse fill="none" stroke="black" cx="560.688" cy="-234" rx="66.4333" ry="18"/>
<text text-anchor="middle" x="560.688" y="-229.8" font-family="Times,serif" font-size="14.00">EquipmentType</text>
</g>
<!-- EquipmentType&#45;&gt;Equipment -->
<g id="edge11" class="edge"><title>EquipmentType&#45;&gt;Equipment</title>
<path fill="none" stroke="#71f342" d="M522.483,-214.428C501.403,-204.181 475.324,-191.504 454.334,-181.3"/>
<ellipse fill="none" stroke="#71f342" cx="526.199" cy="-216.234" rx="4.00002" ry="4.00002"/>
<polygon fill="#71f342" stroke="#71f342" points="454.077,-181.176 447.051,-172.756 449.581,-178.99 445.084,-176.804 445.084,-176.804 445.084,-176.804 449.581,-178.99 443.116,-180.851 454.077,-181.176 454.077,-181.176"/>
</g>
<!-- MasterMaintenancePlan -->
<g id="node16" class="node"><title>MasterMaintenancePlan</title>
<ellipse fill="none" stroke="black" cx="597.688" cy="-162" rx="96.1085" ry="18"/>
<text text-anchor="middle" x="597.688" y="-157.8" font-family="Times,serif" font-size="14.00">MasterMaintenancePlan</text>
</g>
<!-- EquipmentType&#45;&gt;MasterMaintenancePlan -->
<g id="edge10" class="edge"><title>EquipmentType&#45;&gt;MasterMaintenancePlan</title>
<path fill="none" stroke="#df788d" d="M573.465,-208.827C576.801,-202.515 580.413,-195.681 583.804,-189.266"/>
<ellipse fill="none" stroke="#df788d" cx="571.514" cy="-212.519" rx="4.00002" ry="4.00002"/>
<polygon fill="#df788d" stroke="#df788d" points="583.883,-189.116 592.535,-182.378 586.22,-184.696 588.557,-180.275 588.557,-180.275 588.557,-180.275 586.22,-184.696 584.578,-178.172 583.883,-189.116 583.883,-189.116"/>
</g>
<!-- Maintenance -->
<g id="node25" class="node"><title>Maintenance</title>
<ellipse fill="none" stroke="black" cx="255.688" cy="-18" rx="55.551" ry="18"/>
<text text-anchor="middle" x="255.688" y="-13.8" font-family="Times,serif" font-size="14.00">Maintenance</text>
</g>
<!-- Failure&#45;&gt;Maintenance -->
<g id="edge12" class="edge"><title>Failure&#45;&gt;Maintenance</title>
<path fill="none" stroke="#cee4f8" d="M282.833,-65.3464C278.952,-58.7188 274.713,-51.4827 270.764,-44.7405"/>
<ellipse fill="none" stroke="#cee4f8" cx="284.95" cy="-68.9594" rx="4.00002" ry="4.00002"/>
<polygon fill="#cee4f8" stroke="#cee4f8" points="270.673,-44.5851 269.502,-33.6819 268.146,-40.2706 265.619,-35.9562 265.619,-35.9562 265.619,-35.9562 268.146,-40.2706 261.736,-38.2305 270.673,-44.5851 270.673,-44.5851"/>
</g>
<!-- FailureType -->
<g id="node10" class="node"><title>FailureType</title>
<ellipse fill="none" stroke="black" cx="296.688" cy="-162" rx="52.9192" ry="18"/>
<text text-anchor="middle" x="296.688" y="-157.8" font-family="Times,serif" font-size="14.00">FailureType</text>
</g>
<!-- FailureType&#45;&gt;Failure -->
<g id="edge13" class="edge"><title>FailureType&#45;&gt;Failure</title>
<path fill="none" stroke="#0d83b9" d="M296.688,-135.64C296.688,-130.063 296.688,-124.132 296.688,-118.476"/>
<ellipse fill="none" stroke="#0d83b9" cx="296.688" cy="-139.697" rx="4" ry="4"/>
<polygon fill="#0d83b9" stroke="#0d83b9" points="296.688,-118.104 301.188,-108.104 296.688,-113.104 296.688,-108.104 296.688,-108.104 296.688,-108.104 296.688,-113.104 292.188,-108.104 296.688,-118.104 296.688,-118.104"/>
</g>
<!-- InstrumentType -->
<g id="node11" class="node"><title>InstrumentType</title>
<ellipse fill="none" stroke="black" cx="883.688" cy="-162" rx="65.9488" ry="18"/>
<text text-anchor="middle" x="883.688" y="-157.8" font-family="Times,serif" font-size="14.00">InstrumentType</text>
</g>
<!-- InstrumentType&#45;&gt;EquipmentSupply -->
<g id="edge14" class="edge"><title>InstrumentType&#45;&gt;EquipmentSupply</title>
<path fill="none" stroke="#8f12a6" d="M878.616,-135.64C877.472,-129.92 876.253,-123.828 875.096,-118.042"/>
<ellipse fill="none" stroke="#8f12a6" cx="879.443" cy="-139.774" rx="4.00001" ry="4.00001"/>
<polygon fill="#8f12a6" stroke="#8f12a6" points="875.07,-117.91 877.521,-107.222 874.089,-113.007 873.109,-108.104 873.109,-108.104 873.109,-108.104 874.089,-113.007 868.696,-108.987 875.07,-117.91 875.07,-117.91"/>
</g>
<!-- Item -->
<g id="node12" class="node"><title>Item</title>
<ellipse fill="none" stroke="black" cx="1015.69" cy="-234" rx="27" ry="18"/>
<text text-anchor="middle" x="1015.69" y="-229.8" font-family="Times,serif" font-size="14.00">Item</text>
</g>
<!-- Supply -->
<g id="node20" class="node"><title>Supply</title>
<ellipse fill="none" stroke="black" cx="1015.69" cy="-162" rx="35.3389" ry="18"/>
<text text-anchor="middle" x="1015.69" y="-157.8" font-family="Times,serif" font-size="14.00">Supply</text>
</g>
<!-- Item&#45;&gt;Supply -->
<g id="edge15" class="edge"><title>Item&#45;&gt;Supply</title>
<path fill="none" stroke="#ec0b58" d="M1015.69,-207.64C1015.69,-202.063 1015.69,-196.132 1015.69,-190.476"/>
<ellipse fill="none" stroke="#ec0b58" cx="1015.69" cy="-211.697" rx="4" ry="4"/>
<polygon fill="#ec0b58" stroke="#ec0b58" points="1015.69,-190.104 1020.19,-180.104 1015.69,-185.104 1015.69,-180.104 1015.69,-180.104 1015.69,-180.104 1015.69,-185.104 1011.19,-180.104 1015.69,-190.104 1015.69,-190.104"/>
</g>
<!-- MaintenancePlan&#45;&gt;Maintenance -->
<g id="edge16" class="edge"><title>MaintenancePlan&#45;&gt;Maintenance</title>
<path fill="none" stroke="#a5913d" d="M512.582,-75.7274C454.306,-62.8588 366.67,-43.507 310.323,-31.0645"/>
<ellipse fill="none" stroke="#a5913d" cx="516.791" cy="-76.6568" rx="4.00001" ry="4.00001"/>
<polygon fill="#a5913d" stroke="#a5913d" points="310.29,-31.0573 301.495,-24.5068 305.407,-29.9791 300.525,-28.9009 300.525,-28.9009 300.525,-28.9009 305.407,-29.9791 299.554,-33.2951 310.29,-31.0573 310.29,-31.0573"/>
</g>
<!-- MaintenanceSupply -->
<g id="node14" class="node"><title>MaintenanceSupply</title>
<ellipse fill="none" stroke="black" cx="1042.69" cy="-90" rx="80.6749" ry="18"/>
<text text-anchor="middle" x="1042.69" y="-85.8" font-family="Times,serif" font-size="14.00">MaintenanceSupply</text>
</g>
<!-- MaintenanceTask -->
<g id="node15" class="node"><title>MaintenanceTask</title>
<ellipse fill="none" stroke="black" cx="699.688" cy="-18" rx="72.1961" ry="18"/>
<text text-anchor="middle" x="699.688" y="-13.8" font-family="Times,serif" font-size="14.00">MaintenanceTask</text>
</g>
<!-- MasterMaintenancePlan&#45;&gt;MaintenancePlan -->
<g id="edge18" class="edge"><title>MasterMaintenancePlan&#45;&gt;MaintenancePlan</title>
<path fill="none" stroke="#ebaa76" d="M588.73,-135.92C586.62,-130.01 584.362,-123.689 582.227,-117.71"/>
<ellipse fill="none" stroke="#ebaa76" cx="590.163" cy="-139.93" rx="4.00001" ry="4.00001"/>
<polygon fill="#ebaa76" stroke="#ebaa76" points="582.16,-117.522 583.034,-106.591 580.478,-112.813 578.796,-108.104 578.796,-108.104 578.796,-108.104 580.478,-112.813 574.559,-109.618 582.16,-117.522 582.16,-117.522"/>
</g>
<!-- Task -->
<g id="node22" class="node"><title>Task</title>
<ellipse fill="none" stroke="black" cx="699.688" cy="-90" rx="27" ry="18"/>
<text text-anchor="middle" x="699.688" y="-85.8" font-family="Times,serif" font-size="14.00">Task</text>
</g>
<!-- MasterMaintenancePlan&#45;&gt;Task -->
<g id="edge17" class="edge"><title>MasterMaintenancePlan&#45;&gt;Task</title>
<path fill="none" stroke="#cbc9e5" d="M628.522,-139.839C642.692,-130.114 659.339,-118.69 672.968,-109.337"/>
<ellipse fill="none" stroke="#cbc9e5" cx="625.158" cy="-142.148" rx="4.00002" ry="4.00002"/>
<polygon fill="#cbc9e5" stroke="#cbc9e5" points="673.187,-109.187 683.978,-107.239 677.309,-106.358 681.432,-103.528 681.432,-103.528 681.432,-103.528 677.309,-106.358 678.886,-99.8182 673.187,-109.187 673.187,-109.187"/>
</g>
<!-- System -->
<g id="node21" class="node"><title>System</title>
<ellipse fill="none" stroke="black" cx="415.688" cy="-234" rx="36.2992" ry="18"/>
<text text-anchor="middle" x="415.688" y="-229.8" font-family="Times,serif" font-size="14.00">System</text>
</g>
<!-- Plant&#45;&gt;System -->
<g id="edge19" class="edge"><title>Plant&#45;&gt;System</title>
<path fill="none" stroke="#f4be9f" d="M411.224,-279.64C411.781,-274.063 412.375,-268.132 412.94,-262.476"/>
<ellipse fill="none" stroke="#f4be9f" cx="410.816" cy="-283.716" rx="4" ry="4"/>
<polygon fill="#f4be9f" stroke="#f4be9f" points="412.982,-262.055 418.455,-252.552 413.48,-257.08 413.977,-252.104 413.977,-252.104 413.977,-252.104 413.48,-257.08 409.5,-251.657 412.982,-262.055 412.982,-262.055"/>
</g>
<!-- Provider -->
<g id="node18" class="node"><title>Provider</title>
<ellipse fill="none" stroke="black" cx="290.688" cy="-234" rx="40.6248" ry="18"/>
<text text-anchor="middle" x="290.688" y="-229.8" font-family="Times,serif" font-size="14.00">Provider</text>
</g>
<!-- Provider&#45;&gt;Equipment -->
<g id="edge20" class="edge"><title>Provider&#45;&gt;Equipment</title>
<path fill="none" stroke="#d5652b" d="M322.172,-215.509C340.345,-205.413 363.23,-192.699 381.929,-182.31"/>
<ellipse fill="none" stroke="#d5652b" cx="318.478" cy="-217.561" rx="4.00002" ry="4.00002"/>
<polygon fill="#d5652b" stroke="#d5652b" points="381.992,-182.276 392.919,-181.353 386.362,-179.847 390.733,-177.419 390.733,-177.419 390.733,-177.419 386.362,-179.847 388.548,-173.485 381.992,-182.276 381.992,-182.276"/>
</g>
<!-- Provider&#45;&gt;Maintenance -->
<g id="edge21" class="edge"><title>Provider&#45;&gt;Maintenance</title>
<path fill="none" stroke="#8c5c35" d="M261.808,-213.57C251.194,-204.714 240.385,-193.237 234.688,-180 215.599,-135.653 231.455,-78.5761 244.039,-45.656"/>
<ellipse fill="none" stroke="#8c5c35" cx="265.206" cy="-216.257" rx="4.00002" ry="4.00002"/>
<polygon fill="#8c5c35" stroke="#8c5c35" points="244.085,-45.5412 251.976,-37.9263 245.941,-40.8985 247.797,-36.2558 247.797,-36.2558 247.797,-36.2558 245.941,-40.8985 243.619,-34.5852 244.085,-45.5412 244.085,-45.5412"/>
</g>
<!-- Role -->
<g id="node19" class="node"><title>Role</title>
<ellipse fill="none" stroke="black" cx="324.688" cy="-378" rx="27" ry="18"/>
<text text-anchor="middle" x="324.688" y="-373.8" font-family="Times,serif" font-size="14.00">Role</text>
</g>
<!-- Role&#45;&gt;CompanyUser -->
<g id="edge22" class="edge"><title>Role&#45;&gt;CompanyUser</title>
<path fill="none" stroke="#12364e" d="M307.71,-355.392C301.807,-347.879 295.142,-339.396 289.06,-331.655"/>
<ellipse fill="none" stroke="#12364e" cx="310.282" cy="-358.666" rx="4.00002" ry="4.00002"/>
<polygon fill="#12364e" stroke="#12364e" points="288.931,-331.491 286.291,-320.848 285.842,-327.559 282.752,-323.628 282.752,-323.628 282.752,-323.628 285.842,-327.559 279.214,-326.408 288.931,-331.491 288.931,-331.491"/>
</g>
<!-- Supply&#45;&gt;EquipmentSupply -->
<g id="edge23" class="edge"><title>Supply&#45;&gt;EquipmentSupply</title>
<path fill="none" stroke="#2cd642" d="M983.683,-145.655C962.311,-135.408 934.003,-121.836 910.943,-110.78"/>
<ellipse fill="none" stroke="#2cd642" cx="987.314" cy="-147.396" rx="4.00002" ry="4.00002"/>
<polygon fill="#2cd642" stroke="#2cd642" points="910.759,-110.692 903.688,-102.311 906.251,-108.53 901.742,-106.369 901.742,-106.369 901.742,-106.369 906.251,-108.53 899.797,-110.426 910.759,-110.692 910.759,-110.692"/>
</g>
<!-- Supply&#45;&gt;MaintenanceSupply -->
<g id="edge24" class="edge"><title>Supply&#45;&gt;MaintenanceSupply</title>
<path fill="none" stroke="#6de736" d="M1025.12,-136.548C1027.48,-130.428 1030.02,-123.835 1032.42,-117.616"/>
<ellipse fill="none" stroke="#6de736" cx="1023.66" cy="-140.323" rx="4.00001" ry="4.00001"/>
<polygon fill="#6de736" stroke="#6de736" points="1032.43,-117.605 1040.22,-109.895 1034.23,-112.94 1036.02,-108.275 1036.02,-108.275 1036.02,-108.275 1034.23,-112.94 1031.83,-106.656 1032.43,-117.605 1032.43,-117.605"/>
</g>
<!-- System&#45;&gt;Equipment -->
<g id="edge25" class="edge"><title>System&#45;&gt;Equipment</title>
<path fill="none" stroke="#b880af" d="M416.05,-207.64C416.13,-202.063 416.214,-196.132 416.295,-190.476"/>
<ellipse fill="none" stroke="#b880af" cx="415.992" cy="-211.697" rx="4" ry="4"/>
<polygon fill="#b880af" stroke="#b880af" points="416.3,-190.103 420.943,-180.169 416.372,-185.104 416.443,-180.104 416.443,-180.104 416.443,-180.104 416.372,-185.104 411.944,-180.04 416.3,-190.103 416.3,-190.103"/>
</g>
<!-- Task&#45;&gt;MaintenanceTask -->
<g id="edge26" class="edge"><title>Task&#45;&gt;MaintenanceTask</title>
<path fill="none" stroke="#0cd6b6" d="M699.688,-63.6398C699.688,-58.0629 699.688,-52.1319 699.688,-46.4761"/>
<ellipse fill="none" stroke="#0cd6b6" cx="699.688" cy="-67.6966" rx="4" ry="4"/>
<polygon fill="#0cd6b6" stroke="#0cd6b6" points="699.688,-46.1043 704.188,-36.1043 699.688,-41.1043 699.688,-36.1043 699.688,-36.1043 699.688,-36.1043 699.688,-41.1043 695.188,-36.1044 699.688,-46.1043 699.688,-46.1043"/>
</g>
<!-- TaskType -->
<g id="node23" class="node"><title>TaskType</title>
<ellipse fill="none" stroke="black" cx="755.688" cy="-162" rx="44.4667" ry="18"/>
<text text-anchor="middle" x="755.688" y="-157.8" font-family="Times,serif" font-size="14.00">TaskType</text>
</g>
<!-- TaskType&#45;&gt;Task -->
<g id="edge27" class="edge"><title>TaskType&#45;&gt;Task</title>
<path fill="none" stroke="#ebd6e5" d="M737.656,-138.46C731.457,-130.711 724.508,-122.025 718.266,-114.222"/>
<ellipse fill="none" stroke="#ebd6e5" cx="740.201" cy="-141.641" rx="4.00002" ry="4.00002"/>
<polygon fill="#ebd6e5" stroke="#ebd6e5" points="718.086,-113.998 715.353,-103.378 714.962,-110.093 711.839,-106.189 711.839,-106.189 711.839,-106.189 714.962,-110.093 708.325,-109 718.086,-113.998 718.086,-113.998"/>
</g>
<!-- User&#45;&gt;CompanyUser -->
<g id="edge28" class="edge"><title>User&#45;&gt;CompanyUser</title>
<path fill="none" stroke="#f11cb6" d="M231.665,-355.392C237.568,-347.879 244.233,-339.396 250.316,-331.655"/>
<ellipse fill="none" stroke="#f11cb6" cx="229.093" cy="-358.666" rx="4.00002" ry="4.00002"/>
<polygon fill="#f11cb6" stroke="#f11cb6" points="250.445,-331.491 260.161,-326.408 253.534,-327.559 256.623,-323.628 256.623,-323.628 256.623,-323.628 253.534,-327.559 253.085,-320.848 250.445,-331.491 250.445,-331.491"/>
</g>
<!-- User&#45;&gt;Maintenance -->
<g id="edge29" class="edge"><title>User&#45;&gt;Maintenance</title>
<path fill="none" stroke="#512487" d="M204.294,-352.65C193.35,-324.759 177.688,-277.432 177.688,-235 177.688,-235 177.688,-235 177.688,-161 177.688,-114.863 209.711,-69.551 232.72,-42.9489"/>
<ellipse fill="none" stroke="#512487" cx="205.885" cy="-356.607" rx="4.00001" ry="4.00001"/>
<polygon fill="#512487" stroke="#512487" points="232.872,-42.7785 242.885,-38.3078 236.199,-39.046 239.526,-35.3135 239.526,-35.3135 239.526,-35.3135 236.199,-39.046 236.167,-32.3192 232.872,-42.7785 232.872,-42.7785"/>
</g>
</g>
</svg>
