<?xml version="1.0" encoding="UTF-8" standalone="no"?>
<!DOCTYPE svg PUBLIC "-//W3C//DTD SVG 1.1//EN"
 "http://www.w3.org/Graphics/SVG/1.1/DTD/svg11.dtd">
<!-- Generated by graphviz version 2.38.0 (20140413.2041)
 -->
<!-- Title: models_diagram Pages: 1 -->
<svg width="836pt" height="297pt"
 viewBox="0.00 0.00 835.86 297.00" xmlns="http://www.w3.org/2000/svg" xmlns:xlink="http://www.w3.org/1999/xlink">
<g id="graph0" class="graph" transform="scale(1 1) rotate(0) translate(4 293)">
<title>models_diagram</title>
<polygon fill="none" stroke="none" points="-4,4 -4,-293 831.857,-293 831.857,4 -4,4"/>
<!-- _diagram_info -->
<g id="node1" class="node"><title>_diagram_info</title>
<text text-anchor="start" x="8" y="-274.6" font-family="Times,serif" font-size="13.00">Models diagram</text>
<text text-anchor="start" x="8" y="-261.6" font-family="Times,serif" font-size="13.00">Date: Aug 20 2016 &#45; 04:19</text>
<text text-anchor="start" x="8" y="-248.6" font-family="Times,serif" font-size="13.00">Migration version: 20160820071735</text>
<text text-anchor="start" x="8" y="-235.6" font-family="Times,serif" font-size="13.00">Generated by RailRoady 1.5.1</text>
<text text-anchor="start" x="8" y="-222.6" font-family="Times,serif" font-size="13.00">http://railroady.prestonlee.com</text>
</g>
<!-- Branch -->
<g id="node2" class="node"><title>Branch</title>
<ellipse fill="none" stroke="black" cx="205.688" cy="-162" rx="35.7887" ry="18"/>
<text text-anchor="middle" x="205.688" y="-157.8" font-family="Times,serif" font-size="14.00">Branch</text>
</g>
<!-- Plant -->
<g id="node8" class="node"><title>Plant</title>
<ellipse fill="none" stroke="black" cx="205.688" cy="-90" rx="28.0736" ry="18"/>
<text text-anchor="middle" x="205.688" y="-85.8" font-family="Times,serif" font-size="14.00">Plant</text>
</g>
<!-- Branch&#45;&gt;Plant -->
<g id="edge1" class="edge"><title>Branch&#45;&gt;Plant</title>
<path fill="none" stroke="#55e0b6" d="M205.688,-135.64C205.688,-130.063 205.688,-124.132 205.688,-118.476"/>
<ellipse fill="none" stroke="#55e0b6" cx="205.688" cy="-139.697" rx="4" ry="4"/>
<polygon fill="#55e0b6" stroke="#55e0b6" points="205.688,-118.104 210.188,-108.104 205.688,-113.104 205.688,-108.104 205.688,-108.104 205.688,-108.104 205.688,-113.104 201.188,-108.104 205.688,-118.104 205.688,-118.104"/>
</g>
<!-- Company -->
<g id="node3" class="node"><title>Company</title>
<ellipse fill="none" stroke="black" cx="269.688" cy="-252.5" rx="44.4923" ry="18"/>
<text text-anchor="middle" x="269.688" y="-248.3" font-family="Times,serif" font-size="14.00">Company</text>
</g>
<!-- Company&#45;&gt;Branch -->
<g id="edge4" class="edge"><title>Company&#45;&gt;Branch</title>
<path fill="none" stroke="#ba6a92" d="M252.785,-228.127C243.741,-215.621 232.61,-200.229 223.441,-187.549"/>
<ellipse fill="none" stroke="#ba6a92" cx="255.306" cy="-231.613" rx="4.00002" ry="4.00002"/>
<polygon fill="#ba6a92" stroke="#ba6a92" points="223.315,-187.376 221.102,-176.636 220.385,-183.324 217.455,-179.273 217.455,-179.273 217.455,-179.273 220.385,-183.324 213.809,-181.91 223.315,-187.376 223.315,-187.376"/>
</g>
<!-- CompanyUser -->
<g id="node4" class="node"><title>CompanyUser</title>
<ellipse fill="none" stroke="black" cx="324.688" cy="-90" rx="61.3891" ry="18"/>
<text text-anchor="middle" x="324.688" y="-85.8" font-family="Times,serif" font-size="14.00">CompanyUser</text>
</g>
<!-- Company&#45;&gt;CompanyUser -->
<g id="edge2" class="edge"><title>Company&#45;&gt;CompanyUser</title>
<path fill="none" stroke="#2019ab" d="M271.16,-226.132C273.15,-203.807 277.811,-170.781 288.688,-144 292.664,-134.21 298.647,-124.387 304.599,-115.904"/>
<ellipse fill="none" stroke="#2019ab" cx="270.839" cy="-230.141" rx="4" ry="4"/>
<polygon fill="#2019ab" stroke="#2019ab" points="304.779,-115.66 314.33,-110.274 307.742,-111.633 310.706,-107.607 310.706,-107.607 310.706,-107.607 307.742,-111.633 307.082,-104.939 304.779,-115.66 304.779,-115.66"/>
</g>
<!-- User -->
<g id="node14" class="node"><title>User</title>
<ellipse fill="none" stroke="black" cx="324.688" cy="-162" rx="27" ry="18"/>
<text text-anchor="middle" x="324.688" y="-157.8" font-family="Times,serif" font-size="14.00">User</text>
</g>
<!-- Company&#45;&gt;User -->
<g id="edge3" class="edge"><title>Company&#45;&gt;User</title>
<path fill="none" stroke="#2a397b" d="M285.559,-225.962C293.065,-213.883 301.99,-199.523 309.418,-187.57"/>
<polygon fill="#2a397b" stroke="#2a397b" points="285.311,-226.36 276.211,-232.479 282.672,-230.607 280.033,-234.854 280.033,-234.854 280.033,-234.854 282.672,-230.607 283.855,-237.229 285.311,-226.36 285.311,-226.36"/>
<polygon fill="#2a397b" stroke="#2a397b" points="309.481,-187.469 318.582,-181.351 312.12,-183.222 314.76,-178.975 314.76,-178.975 314.76,-178.975 312.12,-183.222 310.937,-176.6 309.481,-187.469 309.481,-187.469"/>
</g>
<!-- EquipmentType -->
<g id="node5" class="node"><title>EquipmentType</title>
<ellipse fill="none" stroke="black" cx="537.688" cy="-252.5" rx="66.4333" ry="18"/>
<text text-anchor="middle" x="537.688" y="-248.3" font-family="Times,serif" font-size="14.00">EquipmentType</text>
</g>
<!-- MasterMaintenancePlan -->
<g id="node7" class="node"><title>MasterMaintenancePlan</title>
<ellipse fill="none" stroke="black" cx="537.688" cy="-162" rx="96.1085" ry="18"/>
<text text-anchor="middle" x="537.688" y="-157.8" font-family="Times,serif" font-size="14.00">MasterMaintenancePlan</text>
</g>
<!-- EquipmentType&#45;&gt;MasterMaintenancePlan -->
<g id="edge5" class="edge"><title>EquipmentType&#45;&gt;MasterMaintenancePlan</title>
<path fill="none" stroke="#6f38df" d="M537.688,-226.189C537.688,-214.971 537.688,-201.752 537.688,-190.311"/>
<ellipse fill="none" stroke="#6f38df" cx="537.688" cy="-230.436" rx="4" ry="4"/>
<polygon fill="#6f38df" stroke="#6f38df" points="537.688,-190.011 542.188,-180.011 537.688,-185.011 537.688,-180.011 537.688,-180.011 537.688,-180.011 537.688,-185.011 533.188,-180.011 537.688,-190.011 537.688,-190.011"/>
</g>
<!-- Item -->
<g id="node6" class="node"><title>Item</title>
<ellipse fill="none" stroke="black" cx="792.688" cy="-252.5" rx="27" ry="18"/>
<text text-anchor="middle" x="792.688" y="-248.3" font-family="Times,serif" font-size="14.00">Item</text>
</g>
<!-- Supply -->
<g id="node10" class="node"><title>Supply</title>
<ellipse fill="none" stroke="black" cx="792.688" cy="-162" rx="35.3389" ry="18"/>
<text text-anchor="middle" x="792.688" y="-157.8" font-family="Times,serif" font-size="14.00">Supply</text>
</g>
<!-- Item&#45;&gt;Supply -->
<g id="edge6" class="edge"><title>Item&#45;&gt;Supply</title>
<path fill="none" stroke="#93244a" d="M792.688,-226.189C792.688,-214.971 792.688,-201.752 792.688,-190.311"/>
<ellipse fill="none" stroke="#93244a" cx="792.688" cy="-230.436" rx="4" ry="4"/>
<polygon fill="#93244a" stroke="#93244a" points="792.688,-190.011 797.188,-180.011 792.688,-185.011 792.688,-180.011 792.688,-180.011 792.688,-180.011 792.688,-185.011 788.188,-180.011 792.688,-190.011 792.688,-190.011"/>
</g>
<!-- Task -->
<g id="node12" class="node"><title>Task</title>
<ellipse fill="none" stroke="black" cx="616.688" cy="-90" rx="27" ry="18"/>
<text text-anchor="middle" x="616.688" y="-85.8" font-family="Times,serif" font-size="14.00">Task</text>
</g>
<!-- MasterMaintenancePlan&#45;&gt;Task -->
<g id="edge7" class="edge"><title>MasterMaintenancePlan&#45;&gt;Task</title>
<path fill="none" stroke="#99c9c6" d="M563.133,-138.454C572.92,-129.781 584.032,-119.936 593.586,-111.47"/>
<ellipse fill="none" stroke="#99c9c6" cx="559.805" cy="-141.402" rx="4.00002" ry="4.00002"/>
<polygon fill="#99c9c6" stroke="#99c9c6" points="593.698,-111.37 604.167,-108.106 597.441,-108.054 601.183,-104.738 601.183,-104.738 601.183,-104.738 597.441,-108.054 598.199,-101.37 593.698,-111.37 593.698,-111.37"/>
</g>
<!-- System -->
<g id="node11" class="node"><title>System</title>
<ellipse fill="none" stroke="black" cx="205.688" cy="-18" rx="36.2992" ry="18"/>
<text text-anchor="middle" x="205.688" y="-13.8" font-family="Times,serif" font-size="14.00">System</text>
</g>
<!-- Plant&#45;&gt;System -->
<g id="edge8" class="edge"><title>Plant&#45;&gt;System</title>
<path fill="none" stroke="#d49ad3" d="M205.688,-63.6398C205.688,-58.0629 205.688,-52.1319 205.688,-46.4761"/>
<ellipse fill="none" stroke="#d49ad3" cx="205.688" cy="-67.6966" rx="4" ry="4"/>
<polygon fill="#d49ad3" stroke="#d49ad3" points="205.688,-46.1043 210.188,-36.1043 205.688,-41.1043 205.688,-36.1043 205.688,-36.1043 205.688,-36.1043 205.688,-41.1043 201.188,-36.1044 205.688,-46.1043 205.688,-46.1043"/>
</g>
<!-- Role -->
<g id="node9" class="node"><title>Role</title>
<ellipse fill="none" stroke="black" cx="396.688" cy="-162" rx="27" ry="18"/>
<text text-anchor="middle" x="396.688" y="-157.8" font-family="Times,serif" font-size="14.00">Role</text>
</g>
<!-- Role&#45;&gt;CompanyUser -->
<g id="edge9" class="edge"><title>Role&#45;&gt;CompanyUser</title>
<path fill="none" stroke="#9cd308" d="M376.292,-141.171C367.704,-132.821 357.646,-123.043 348.703,-114.348"/>
<ellipse fill="none" stroke="#9cd308" cx="379.249" cy="-144.046" rx="4.00002" ry="4.00002"/>
<polygon fill="#9cd308" stroke="#9cd308" points="348.679,-114.325 344.646,-104.127 345.094,-110.839 341.509,-107.354 341.509,-107.354 341.509,-107.354 345.094,-110.839 338.372,-110.58 348.679,-114.325 348.679,-114.325"/>
</g>
<!-- TaskType -->
<g id="node13" class="node"><title>TaskType</title>
<ellipse fill="none" stroke="black" cx="695.688" cy="-162" rx="44.4667" ry="18"/>
<text text-anchor="middle" x="695.688" y="-157.8" font-family="Times,serif" font-size="14.00">TaskType</text>
</g>
<!-- TaskType&#45;&gt;Task -->
<g id="edge10" class="edge"><title>TaskType&#45;&gt;Task</title>
<path fill="none" stroke="#840ab6" d="M672.086,-140.087C661.933,-131.091 650.098,-120.604 639.98,-111.639"/>
<ellipse fill="none" stroke="#840ab6" cx="675.161" cy="-142.812" rx="4.00002" ry="4.00002"/>
<polygon fill="#840ab6" stroke="#840ab6" points="639.783,-111.464 635.283,-101.464 636.041,-108.148 632.299,-104.832 632.299,-104.832 632.299,-104.832 636.041,-108.148 629.314,-108.2 639.783,-111.464 639.783,-111.464"/>
</g>
<!-- User&#45;&gt;CompanyUser -->
<g id="edge11" class="edge"><title>User&#45;&gt;CompanyUser</title>
<path fill="none" stroke="#b15db7" d="M324.688,-135.64C324.688,-130.063 324.688,-124.132 324.688,-118.476"/>
<ellipse fill="none" stroke="#b15db7" cx="324.688" cy="-139.697" rx="4" ry="4"/>
<polygon fill="#b15db7" stroke="#b15db7" points="324.688,-118.104 329.188,-108.104 324.688,-113.104 324.688,-108.104 324.688,-108.104 324.688,-108.104 324.688,-113.104 320.188,-108.104 324.688,-118.104 324.688,-118.104"/>
</g>
</g>
</svg>
