<?xml version="1.0" encoding="UTF-8" standalone="no"?>
<!DOCTYPE svg PUBLIC "-//W3C//DTD SVG 1.1//EN"
 "http://www.w3.org/Graphics/SVG/1.1/DTD/svg11.dtd">
<!-- Generated by graphviz version 2.38.0 (20140413.2041)
 -->
<!-- Title: models_diagram Pages: 1 -->
<svg width="338pt" height="225pt"
 viewBox="0.00 0.00 337.88 225.00" xmlns="http://www.w3.org/2000/svg" xmlns:xlink="http://www.w3.org/1999/xlink">
<g id="graph0" class="graph" transform="scale(1 1) rotate(0) translate(4 221)">
<title>models_diagram</title>
<polygon fill="none" stroke="none" points="-4,4 -4,-221 333.882,-221 333.882,4 -4,4"/>
<!-- _diagram_info -->
<g id="node1" class="node"><title>_diagram_info</title>
<text text-anchor="start" x="8" y="-202.6" font-family="Times,serif" font-size="13.00">Models diagram</text>
<text text-anchor="start" x="8" y="-189.6" font-family="Times,serif" font-size="13.00">Date: Aug 17 2016 &#45; 22:02</text>
<text text-anchor="start" x="8" y="-176.6" font-family="Times,serif" font-size="13.00">Migration version: 20160818005902</text>
<text text-anchor="start" x="8" y="-163.6" font-family="Times,serif" font-size="13.00">Generated by RailRoady 1.5.1</text>
<text text-anchor="start" x="8" y="-150.6" font-family="Times,serif" font-size="13.00">http://railroady.prestonlee.com</text>
</g>
<!-- Company -->
<g id="node2" class="node"><title>Company</title>
<ellipse fill="none" stroke="black" cx="269.688" cy="-180.5" rx="44.4923" ry="18"/>
<text text-anchor="middle" x="269.688" y="-176.3" font-family="Times,serif" font-size="14.00">Company</text>
</g>
<!-- CompanyUser -->
<g id="node3" class="node"><title>CompanyUser</title>
<ellipse fill="none" stroke="black" cx="268.688" cy="-18" rx="61.3891" ry="18"/>
<text text-anchor="middle" x="268.688" y="-13.8" font-family="Times,serif" font-size="14.00">CompanyUser</text>
</g>
<!-- Company&#45;&gt;CompanyUser -->
<g id="edge1" class="edge"><title>Company&#45;&gt;CompanyUser</title>
<path fill="none" stroke="#c44fbd" d="M265.317,-154.297C262.081,-132.518 258.572,-100.193 260.688,-72 261.324,-63.5179 262.526,-54.3361 263.809,-46.0356"/>
<ellipse fill="none" stroke="#c44fbd" cx="265.961" cy="-158.426" rx="4.00001" ry="4.00001"/>
<polygon fill="#c44fbd" stroke="#c44fbd" points="263.818,-45.9796 269.88,-36.8417 264.629,-41.0458 265.439,-36.1119 265.439,-36.1119 265.439,-36.1119 264.629,-41.0458 260.999,-35.3822 263.818,-45.9796 263.818,-45.9796"/>
</g>
<!-- User -->
<g id="node4" class="node"><title>User</title>
<ellipse fill="none" stroke="black" cx="296.688" cy="-90" rx="27" ry="18"/>
<text text-anchor="middle" x="296.688" y="-85.8" font-family="Times,serif" font-size="14.00">User</text>
</g>
<!-- Company&#45;&gt;User -->
<g id="edge2" class="edge"><title>Company&#45;&gt;User</title>
<path fill="none" stroke="#180ede" d="M277.812,-152.871C281.239,-141.637 285.219,-128.591 288.639,-117.383"/>
<polygon fill="#180ede" stroke="#180ede" points="277.812,-152.872 270.589,-161.123 276.353,-157.654 274.894,-162.436 274.894,-162.436 274.894,-162.436 276.353,-157.654 279.198,-163.749 277.812,-152.872 277.812,-152.872"/>
<polygon fill="#180ede" stroke="#180ede" points="288.671,-117.276 295.894,-109.024 290.13,-112.494 291.589,-107.711 291.589,-107.711 291.589,-107.711 290.13,-112.494 287.285,-106.398 288.671,-117.276 288.671,-117.276"/>
</g>
<!-- User&#45;&gt;CompanyUser -->
<g id="edge3" class="edge"><title>User&#45;&gt;CompanyUser</title>
<path fill="none" stroke="#1d026f" d="M286.999,-64.7779C284.505,-58.544 281.81,-51.8046 279.273,-45.4634"/>
<ellipse fill="none" stroke="#1d026f" cx="288.567" cy="-68.6971" rx="4.00001" ry="4.00001"/>
<polygon fill="#1d026f" stroke="#1d026f" points="279.184,-45.241 279.648,-34.2849 277.327,-40.5986 275.47,-35.9562 275.47,-35.9562 275.47,-35.9562 277.327,-40.5986 271.292,-37.6275 279.184,-45.241 279.184,-45.241"/>
</g>
</g>
</svg>
