<?xml version="1.0" encoding="UTF-8" standalone="no"?>
<!DOCTYPE svg PUBLIC "-//W3C//DTD SVG 1.1//EN"
 "http://www.w3.org/Graphics/SVG/1.1/DTD/svg11.dtd">
<!-- Generated by graphviz version 2.38.0 (20140413.2041)
 -->
<!-- Title: models_diagram Pages: 1 -->
<svg width="611pt" height="579pt"
 viewBox="0.00 0.00 611.32 579.00" xmlns="http://www.w3.org/2000/svg" xmlns:xlink="http://www.w3.org/1999/xlink">
<g id="graph0" class="graph" transform="scale(1 1) rotate(0) translate(4 575)">
<title>models_diagram</title>
<polygon fill="none" stroke="none" points="-4,4 -4,-575 607.323,-575 607.323,4 -4,4"/>
<!-- _diagram_info -->
<g id="node1" class="node"><title>_diagram_info</title>
<text text-anchor="start" x="8" y="-514.6" font-family="Times,serif" font-size="13.00">Models diagram</text>
<text text-anchor="start" x="8" y="-501.6" font-family="Times,serif" font-size="13.00">Date: Aug 17 2016 &#45; 22:02</text>
<text text-anchor="start" x="8" y="-488.6" font-family="Times,serif" font-size="13.00">Migration version: 20160818005902</text>
<text text-anchor="start" x="8" y="-475.6" font-family="Times,serif" font-size="13.00">Generated by RailRoady 1.5.1</text>
<text text-anchor="start" x="8" y="-462.6" font-family="Times,serif" font-size="13.00">http://railroady.prestonlee.com</text>
</g>
<!-- Company -->
<g id="node2" class="node"><title>Company</title>
<path fill="none" stroke="black" d="M237.825,-414.5C237.825,-414.5 461.55,-414.5 461.55,-414.5 467.55,-414.5 473.55,-420.5 473.55,-426.5 473.55,-426.5 473.55,-558.5 473.55,-558.5 473.55,-564.5 467.55,-570.5 461.55,-570.5 461.55,-570.5 237.825,-570.5 237.825,-570.5 231.825,-570.5 225.825,-564.5 225.825,-558.5 225.825,-558.5 225.825,-426.5 225.825,-426.5 225.825,-420.5 231.825,-414.5 237.825,-414.5"/>
<text text-anchor="middle" x="349.688" y="-555.3" font-family="Times,serif" font-size="14.00">Company</text>
<polyline fill="none" stroke="black" points="225.825,-548.5 473.55,-548.5 "/>
<text text-anchor="start" x="233.825" y="-533.3" font-family="Times,serif" font-size="14.00">updated_at :timestamp without time zone</text>
<text text-anchor="start" x="233.825" y="-519.3" font-family="Times,serif" font-size="14.00">rut :character varying</text>
<text text-anchor="start" x="233.825" y="-505.3" font-family="Times,serif" font-size="14.00">company_name :character varying</text>
<text text-anchor="start" x="233.825" y="-491.3" font-family="Times,serif" font-size="14.00">fantasy_name :character varying</text>
<text text-anchor="start" x="233.825" y="-477.3" font-family="Times,serif" font-size="14.00">address :character varying</text>
<text text-anchor="start" x="233.825" y="-463.3" font-family="Times,serif" font-size="14.00">email :character varying</text>
<text text-anchor="start" x="233.825" y="-449.3" font-family="Times,serif" font-size="14.00">url :character varying</text>
<text text-anchor="start" x="233.825" y="-435.3" font-family="Times,serif" font-size="14.00">created_at :timestamp without time zone</text>
<text text-anchor="start" x="233.825" y="-421.3" font-family="Times,serif" font-size="14.00">id :integer</text>
</g>
<!-- CompanyUser -->
<g id="node3" class="node"><title>CompanyUser</title>
<path fill="none" stroke="black" d="M237.825,-0.5C237.825,-0.5 461.55,-0.5 461.55,-0.5 467.55,-0.5 473.55,-6.5 473.55,-12.5 473.55,-12.5 473.55,-102.5 473.55,-102.5 473.55,-108.5 467.55,-114.5 461.55,-114.5 461.55,-114.5 237.825,-114.5 237.825,-114.5 231.825,-114.5 225.825,-108.5 225.825,-102.5 225.825,-102.5 225.825,-12.5 225.825,-12.5 225.825,-6.5 231.825,-0.5 237.825,-0.5"/>
<text text-anchor="middle" x="349.688" y="-99.3" font-family="Times,serif" font-size="14.00">CompanyUser</text>
<polyline fill="none" stroke="black" points="225.825,-92.5 473.55,-92.5 "/>
<text text-anchor="start" x="233.825" y="-77.3" font-family="Times,serif" font-size="14.00">id :integer</text>
<text text-anchor="start" x="233.825" y="-63.3" font-family="Times,serif" font-size="14.00">company_id :integer</text>
<text text-anchor="start" x="233.825" y="-49.3" font-family="Times,serif" font-size="14.00">user_id :integer</text>
<text text-anchor="start" x="233.825" y="-35.3" font-family="Times,serif" font-size="14.00">created_at :timestamp without time zone</text>
<text text-anchor="start" x="233.825" y="-21.3" font-family="Times,serif" font-size="14.00">updated_at :timestamp without time zone</text>
<text text-anchor="start" x="233.825" y="-7.3" font-family="Times,serif" font-size="14.00">position :character varying</text>
</g>
<!-- Company&#45;&gt;CompanyUser -->
<g id="edge1" class="edge"><title>Company&#45;&gt;CompanyUser</title>
<path fill="none" stroke="#4c2b8b" d="M286.67,-407.27C281.825,-397.759 277.667,-387.913 274.688,-378 245.649,-281.381 240.981,-246.092 274.688,-151 278.116,-141.328 283.035,-131.928 288.737,-123.06"/>
<ellipse fill="none" stroke="#4c2b8b" cx="288.622" cy="-410.941" rx="4.00002" ry="4.00002"/>
<polygon fill="#4c2b8b" stroke="#4c2b8b" points="288.785,-122.99 298.138,-117.265 291.603,-118.859 294.421,-114.729 294.421,-114.729 294.421,-114.729 291.603,-118.859 290.703,-112.193 288.785,-122.99 288.785,-122.99"/>
</g>
<!-- User -->
<g id="node4" class="node"><title>User</title>
<path fill="none" stroke="black" d="M296.053,-151.5C296.053,-151.5 591.323,-151.5 591.323,-151.5 597.323,-151.5 603.323,-157.5 603.323,-163.5 603.323,-163.5 603.323,-365.5 603.323,-365.5 603.323,-371.5 597.323,-377.5 591.323,-377.5 591.323,-377.5 296.053,-377.5 296.053,-377.5 290.053,-377.5 284.053,-371.5 284.053,-365.5 284.053,-365.5 284.053,-163.5 284.053,-163.5 284.053,-157.5 290.053,-151.5 296.053,-151.5"/>
<text text-anchor="middle" x="443.688" y="-362.3" font-family="Times,serif" font-size="14.00">User</text>
<polyline fill="none" stroke="black" points="284.053,-355.5 603.323,-355.5 "/>
<text text-anchor="start" x="292.053" y="-340.3" font-family="Times,serif" font-size="14.00">name :character varying</text>
<text text-anchor="start" x="292.053" y="-326.3" font-family="Times,serif" font-size="14.00">email :character varying</text>
<text text-anchor="start" x="292.053" y="-312.3" font-family="Times,serif" font-size="14.00">encrypted_password :character varying</text>
<text text-anchor="start" x="292.053" y="-298.3" font-family="Times,serif" font-size="14.00">reset_password_token :character varying</text>
<text text-anchor="start" x="292.053" y="-284.3" font-family="Times,serif" font-size="14.00">reset_password_sent_at :timestamp without time zone</text>
<text text-anchor="start" x="292.053" y="-270.3" font-family="Times,serif" font-size="14.00">remember_created_at :timestamp without time zone</text>
<text text-anchor="start" x="292.053" y="-256.3" font-family="Times,serif" font-size="14.00">sign_in_count :integer</text>
<text text-anchor="start" x="292.053" y="-242.3" font-family="Times,serif" font-size="14.00">current_sign_in_at :timestamp without time zone</text>
<text text-anchor="start" x="292.053" y="-228.3" font-family="Times,serif" font-size="14.00">last_sign_in_at :timestamp without time zone</text>
<text text-anchor="start" x="292.053" y="-214.3" font-family="Times,serif" font-size="14.00">current_sign_in_ip :inet</text>
<text text-anchor="start" x="292.053" y="-200.3" font-family="Times,serif" font-size="14.00">last_sign_in_ip :inet</text>
<text text-anchor="start" x="292.053" y="-186.3" font-family="Times,serif" font-size="14.00">created_at :timestamp without time zone</text>
<text text-anchor="start" x="292.053" y="-172.3" font-family="Times,serif" font-size="14.00">updated_at :timestamp without time zone</text>
<text text-anchor="start" x="292.053" y="-158.3" font-family="Times,serif" font-size="14.00">id :integer</text>
</g>
<!-- Company&#45;&gt;User -->
<g id="edge2" class="edge"><title>Company&#45;&gt;User</title>
<path fill="none" stroke="#ed5c03" d="M385.645,-405.05C388.107,-399.13 390.613,-393.105 393.132,-387.048"/>
<polygon fill="#ed5c03" stroke="#ed5c03" points="385.615,-405.123 377.619,-412.628 383.695,-409.739 381.774,-414.356 381.774,-414.356 381.774,-414.356 383.695,-409.739 385.929,-416.084 385.615,-405.123 385.615,-405.123"/>
<polygon fill="#ed5c03" stroke="#ed5c03" points="393.258,-386.747 401.253,-379.241 395.178,-382.13 397.098,-377.513 397.098,-377.513 397.098,-377.513 395.178,-382.13 392.943,-375.785 393.258,-386.747 393.258,-386.747"/>
</g>
<!-- User&#45;&gt;CompanyUser -->
<g id="edge3" class="edge"><title>User&#45;&gt;CompanyUser</title>
<path fill="none" stroke="#db0f37" d="M388.885,-143.983C385.76,-137.168 382.683,-130.457 379.71,-123.973"/>
<ellipse fill="none" stroke="#db0f37" cx="390.62" cy="-147.767" rx="4.00002" ry="4.00002"/>
<polygon fill="#db0f37" stroke="#db0f37" points="379.604,-123.743 379.526,-112.777 377.52,-119.198 375.436,-114.653 375.436,-114.653 375.436,-114.653 377.52,-119.198 371.345,-116.528 379.604,-123.743 379.604,-123.743"/>
</g>
</g>
</svg>
