<?xml version="1.0" encoding="UTF-8" standalone="no"?>
<!DOCTYPE svg PUBLIC "-//W3C//DTD SVG 1.1//EN"
 "http://www.w3.org/Graphics/SVG/1.1/DTD/svg11.dtd">
<!-- Generated by graphviz version 2.38.0 (20140413.2041)
 -->
<!-- Title: models_diagram Pages: 1 -->
<svg width="1004pt" height="585pt"
 viewBox="0.00 0.00 1003.86 585.00" xmlns="http://www.w3.org/2000/svg" xmlns:xlink="http://www.w3.org/1999/xlink">
<g id="graph0" class="graph" transform="scale(1 1) rotate(0) translate(4 581)">
<title>models_diagram</title>
<polygon fill="none" stroke="none" points="-4,4 -4,-581 999.857,-581 999.857,4 -4,4"/>
<!-- _diagram_info -->
<g id="node1" class="node"><title>_diagram_info</title>
<text text-anchor="start" x="8" y="-562.6" font-family="Times,serif" font-size="13.00">Models diagram</text>
<text text-anchor="start" x="8" y="-549.6" font-family="Times,serif" font-size="13.00">Date: Aug 23 2016 &#45; 21:17</text>
<text text-anchor="start" x="8" y="-536.6" font-family="Times,serif" font-size="13.00">Migration version: 20160821050530</text>
<text text-anchor="start" x="8" y="-523.6" font-family="Times,serif" font-size="13.00">Generated by RailRoady 1.5.1</text>
<text text-anchor="start" x="8" y="-510.6" font-family="Times,serif" font-size="13.00">http://railroady.prestonlee.com</text>
</g>
<!-- Branch -->
<g id="node2" class="node"><title>Branch</title>
<ellipse fill="none" stroke="black" cx="396.688" cy="-450" rx="35.7887" ry="18"/>
<text text-anchor="middle" x="396.688" y="-445.8" font-family="Times,serif" font-size="14.00">Branch</text>
</g>
<!-- Plant -->
<g id="node18" class="node"><title>Plant</title>
<ellipse fill="none" stroke="black" cx="488.688" cy="-378" rx="28.0736" ry="18"/>
<text text-anchor="middle" x="488.688" y="-373.8" font-family="Times,serif" font-size="14.00">Plant</text>
</g>
<!-- Branch&#45;&gt;Plant -->
<g id="edge1" class="edge"><title>Branch&#45;&gt;Plant</title>
<path fill="none" stroke="#5a7a12" d="M422.168,-429.613C434.969,-419.873 450.438,-408.103 463.236,-398.365"/>
<ellipse fill="none" stroke="#5a7a12" cx="418.934" cy="-432.074" rx="4.00002" ry="4.00002"/>
<polygon fill="#5a7a12" stroke="#5a7a12" points="463.247,-398.357 473.931,-395.883 467.227,-395.329 471.206,-392.302 471.206,-392.302 471.206,-392.302 467.227,-395.329 468.481,-388.72 463.247,-398.357 463.247,-398.357"/>
</g>
<!-- Company -->
<g id="node3" class="node"><title>Company</title>
<ellipse fill="none" stroke="black" cx="269.688" cy="-540.5" rx="44.4923" ry="18"/>
<text text-anchor="middle" x="269.688" y="-536.3" font-family="Times,serif" font-size="14.00">Company</text>
</g>
<!-- Company&#45;&gt;Branch -->
<g id="edge4" class="edge"><title>Company&#45;&gt;Branch</title>
<path fill="none" stroke="#c5296e" d="M298.006,-519.767C318.923,-505.19 347.284,-485.427 368.234,-470.828"/>
<ellipse fill="none" stroke="#c5296e" cx="294.513" cy="-522.2" rx="4.00002" ry="4.00002"/>
<polygon fill="#c5296e" stroke="#c5296e" points="368.511,-470.635 379.288,-468.61 372.613,-467.777 376.715,-464.918 376.715,-464.918 376.715,-464.918 372.613,-467.777 374.142,-461.226 368.511,-470.635 368.511,-470.635"/>
</g>
<!-- CompanyUser -->
<g id="node4" class="node"><title>CompanyUser</title>
<ellipse fill="none" stroke="black" cx="180.688" cy="-378" rx="61.3891" ry="18"/>
<text text-anchor="middle" x="180.688" y="-373.8" font-family="Times,serif" font-size="14.00">CompanyUser</text>
</g>
<!-- Company&#45;&gt;CompanyUser -->
<g id="edge2" class="edge"><title>Company&#45;&gt;CompanyUser</title>
<path fill="none" stroke="#c24800" d="M240.838,-520.096C233.013,-514.855 224.535,-509.196 216.688,-504 192.329,-487.871 175.582,-493.7 161.688,-468 151.13,-448.472 157.886,-423.569 166.129,-405.074"/>
<ellipse fill="none" stroke="#c24800" cx="244.482" cy="-522.539" rx="4.00002" ry="4.00002"/>
<polygon fill="#c24800" stroke="#c24800" points="166.14,-405.053 174.544,-398.008 168.316,-400.551 170.492,-396.049 170.492,-396.049 170.492,-396.049 168.316,-400.551 166.441,-394.091 166.14,-405.053 166.14,-405.053"/>
</g>
<!-- User -->
<g id="node25" class="node"><title>User</title>
<ellipse fill="none" stroke="black" cx="269.688" cy="-450" rx="27" ry="18"/>
<text text-anchor="middle" x="269.688" y="-445.8" font-family="Times,serif" font-size="14.00">User</text>
</g>
<!-- Company&#45;&gt;User -->
<g id="edge3" class="edge"><title>Company&#45;&gt;User</title>
<path fill="none" stroke="#85d445" d="M269.688,-512.092C269.688,-501.289 269.688,-488.912 269.688,-478.136"/>
<polygon fill="#85d445" stroke="#85d445" points="269.688,-512.436 265.188,-522.436 269.688,-517.436 269.688,-522.436 269.688,-522.436 269.688,-522.436 269.688,-517.436 274.188,-522.436 269.688,-512.436 269.688,-512.436"/>
<polygon fill="#85d445" stroke="#85d445" points="269.688,-478.011 274.188,-468.011 269.688,-473.011 269.688,-468.011 269.688,-468.011 269.688,-468.011 269.688,-473.011 265.188,-468.011 269.688,-478.011 269.688,-478.011"/>
</g>
<!-- Device -->
<g id="node5" class="node"><title>Device</title>
<ellipse fill="none" stroke="black" cx="666.688" cy="-234" rx="35.2956" ry="18"/>
<text text-anchor="middle" x="666.688" y="-229.8" font-family="Times,serif" font-size="14.00">Device</text>
</g>
<!-- Device&#45;&gt;Device -->
<g id="edge5" class="edge"><title>Device&#45;&gt;Device</title>
<path fill="none" stroke="#9c3c8b" d="M699.808,-247.5C710.925,-247.526 719.835,-243.026 719.835,-234 719.835,-225.581 712.084,-221.1 702.02,-220.556"/>
<ellipse fill="none" stroke="#9c3c8b" cx="695.823" cy="-247.129" rx="4" ry="4"/>
<polygon fill="#9c3c8b" stroke="#9c3c8b" points="701.818,-220.57 691.538,-216.752 696.829,-220.906 691.84,-221.242 691.84,-221.242 691.84,-221.242 696.829,-220.906 692.143,-225.731 701.818,-220.57 701.818,-220.57"/>
</g>
<!-- DeviceState -->
<g id="node6" class="node"><title>DeviceState</title>
<ellipse fill="none" stroke="black" cx="666.688" cy="-162" rx="52.6607" ry="18"/>
<text text-anchor="middle" x="666.688" y="-157.8" font-family="Times,serif" font-size="14.00">DeviceState</text>
</g>
<!-- Device&#45;&gt;DeviceState -->
<g id="edge7" class="edge"><title>Device&#45;&gt;DeviceState</title>
<path fill="none" stroke="#d4df28" d="M666.688,-207.64C666.688,-202.063 666.688,-196.132 666.688,-190.476"/>
<ellipse fill="none" stroke="#d4df28" cx="666.688" cy="-211.697" rx="4" ry="4"/>
<polygon fill="#d4df28" stroke="#d4df28" points="666.688,-190.104 671.188,-180.104 666.688,-185.104 666.688,-180.104 666.688,-180.104 666.688,-180.104 666.688,-185.104 662.188,-180.104 666.688,-190.104 666.688,-190.104"/>
</g>
<!-- DeviceSupply -->
<g id="node7" class="node"><title>DeviceSupply</title>
<ellipse fill="none" stroke="black" cx="841.688" cy="-162" rx="60.4202" ry="18"/>
<text text-anchor="middle" x="841.688" y="-157.8" font-family="Times,serif" font-size="14.00">DeviceSupply</text>
</g>
<!-- Device&#45;&gt;DeviceSupply -->
<g id="edge6" class="edge"><title>Device&#45;&gt;DeviceSupply</title>
<path fill="none" stroke="#64ba06" d="M701.129,-219.224C728.81,-208.151 767.873,-192.526 797.796,-180.557"/>
<ellipse fill="none" stroke="#64ba06" cx="697.362" cy="-220.73" rx="4.00001" ry="4.00001"/>
<polygon fill="#64ba06" stroke="#64ba06" points="797.879,-180.523 808.835,-180.988 802.522,-178.666 807.164,-176.81 807.164,-176.81 807.164,-176.81 802.522,-178.666 805.493,-172.631 797.879,-180.523 797.879,-180.523"/>
</g>
<!-- Failure -->
<g id="node9" class="node"><title>Failure</title>
<ellipse fill="none" stroke="black" cx="560.688" cy="-162" rx="35.3129" ry="18"/>
<text text-anchor="middle" x="560.688" y="-157.8" font-family="Times,serif" font-size="14.00">Failure</text>
</g>
<!-- Device&#45;&gt;Failure -->
<g id="edge8" class="edge"><title>Device&#45;&gt;Failure</title>
<path fill="none" stroke="#b290e7" d="M639.103,-214.784C623.998,-204.809 605.284,-192.45 589.927,-182.309"/>
<ellipse fill="none" stroke="#b290e7" cx="642.66" cy="-217.133" rx="4.00002" ry="4.00002"/>
<polygon fill="#b290e7" stroke="#b290e7" points="589.67,-182.139 583.805,-172.873 585.497,-179.384 581.325,-176.628 581.325,-176.628 581.325,-176.628 585.497,-179.384 578.845,-180.384 589.67,-182.139 589.67,-182.139"/>
</g>
<!-- MaintenancePlan -->
<g id="node14" class="node"><title>MaintenancePlan</title>
<ellipse fill="none" stroke="black" cx="435.688" cy="-162" rx="71.4945" ry="18"/>
<text text-anchor="middle" x="435.688" y="-157.8" font-family="Times,serif" font-size="14.00">MaintenancePlan</text>
</g>
<!-- Device&#45;&gt;MaintenancePlan -->
<g id="edge9" class="edge"><title>Device&#45;&gt;MaintenancePlan</title>
<path fill="none" stroke="#68c496" d="M632.33,-219.376C629.085,-218.195 625.833,-217.051 622.688,-216 580.122,-201.779 531.313,-188.03 494.236,-178.1"/>
<ellipse fill="none" stroke="#68c496" cx="636.09" cy="-220.777" rx="4.00001" ry="4.00001"/>
<polygon fill="#68c496" stroke="#68c496" points="493.768,-177.975 485.261,-171.055 488.936,-176.689 484.104,-175.403 484.104,-175.403 484.104,-175.403 488.936,-176.689 482.947,-179.752 493.768,-177.975 493.768,-177.975"/>
</g>
<!-- DeviceType -->
<g id="node8" class="node"><title>DeviceType</title>
<ellipse fill="none" stroke="black" cx="411.688" cy="-306" rx="52.9019" ry="18"/>
<text text-anchor="middle" x="411.688" y="-301.8" font-family="Times,serif" font-size="14.00">DeviceType</text>
</g>
<!-- DeviceType&#45;&gt;Device -->
<g id="edge11" class="edge"><title>DeviceType&#45;&gt;Device</title>
<path fill="none" stroke="#9d291c" d="M463.43,-293.868C506.452,-284.169 569.083,-269.017 622.688,-252 625.234,-251.192 627.846,-250.313 630.466,-249.396"/>
<ellipse fill="none" stroke="#9d291c" cx="459.267" cy="-294.801" rx="4.00001" ry="4.00001"/>
<polygon fill="#9d291c" stroke="#9d291c" points="630.488,-249.388 641.425,-250.184 635.184,-247.672 639.881,-245.957 639.881,-245.957 639.881,-245.957 635.184,-247.672 638.337,-241.73 630.488,-249.388 630.488,-249.388"/>
</g>
<!-- MasterMaintenancePlan -->
<g id="node17" class="node"><title>MasterMaintenancePlan</title>
<ellipse fill="none" stroke="black" cx="393.688" cy="-234" rx="96.1085" ry="18"/>
<text text-anchor="middle" x="393.688" y="-229.8" font-family="Times,serif" font-size="14.00">MasterMaintenancePlan</text>
</g>
<!-- DeviceType&#45;&gt;MasterMaintenancePlan -->
<g id="edge10" class="edge"><title>DeviceType&#45;&gt;MasterMaintenancePlan</title>
<path fill="none" stroke="#16515a" d="M405.328,-280.267C403.841,-274.485 402.248,-268.291 400.733,-262.4"/>
<ellipse fill="none" stroke="#16515a" cx="406.334" cy="-284.181" rx="4.00001" ry="4.00001"/>
<polygon fill="#16515a" stroke="#16515a" points="400.62,-261.96 402.488,-251.155 399.375,-257.118 398.13,-252.275 398.13,-252.275 398.13,-252.275 399.375,-257.118 393.772,-253.396 400.62,-261.96 400.62,-261.96"/>
</g>
<!-- Maintenance -->
<g id="node13" class="node"><title>Maintenance</title>
<ellipse fill="none" stroke="black" cx="497.688" cy="-90" rx="55.551" ry="18"/>
<text text-anchor="middle" x="497.688" y="-85.8" font-family="Times,serif" font-size="14.00">Maintenance</text>
</g>
<!-- Failure&#45;&gt;Maintenance -->
<g id="edge12" class="edge"><title>Failure&#45;&gt;Maintenance</title>
<path fill="none" stroke="#6871ce" d="M541.192,-139.338C534.255,-131.631 526.405,-122.908 519.302,-115.015"/>
<ellipse fill="none" stroke="#6871ce" cx="544.03" cy="-142.492" rx="4.00002" ry="4.00002"/>
<polygon fill="#6871ce" stroke="#6871ce" points="519.198,-114.9 515.853,-104.457 515.853,-111.184 512.508,-107.467 512.508,-107.467 512.508,-107.467 515.853,-111.184 509.163,-110.478 519.198,-114.9 519.198,-114.9"/>
</g>
<!-- FailureType -->
<g id="node10" class="node"><title>FailureType</title>
<ellipse fill="none" stroke="black" cx="560.688" cy="-234" rx="52.9192" ry="18"/>
<text text-anchor="middle" x="560.688" y="-229.8" font-family="Times,serif" font-size="14.00">FailureType</text>
</g>
<!-- FailureType&#45;&gt;Failure -->
<g id="edge13" class="edge"><title>FailureType&#45;&gt;Failure</title>
<path fill="none" stroke="#c01770" d="M560.688,-207.64C560.688,-202.063 560.688,-196.132 560.688,-190.476"/>
<ellipse fill="none" stroke="#c01770" cx="560.688" cy="-211.697" rx="4" ry="4"/>
<polygon fill="#c01770" stroke="#c01770" points="560.688,-190.104 565.188,-180.104 560.688,-185.104 560.688,-180.104 560.688,-180.104 560.688,-180.104 560.688,-185.104 556.188,-180.104 560.688,-190.104 560.688,-190.104"/>
</g>
<!-- InstrumentType -->
<g id="node11" class="node"><title>InstrumentType</title>
<ellipse fill="none" stroke="black" cx="841.688" cy="-234" rx="65.9488" ry="18"/>
<text text-anchor="middle" x="841.688" y="-229.8" font-family="Times,serif" font-size="14.00">InstrumentType</text>
</g>
<!-- InstrumentType&#45;&gt;DeviceSupply -->
<g id="edge14" class="edge"><title>InstrumentType&#45;&gt;DeviceSupply</title>
<path fill="none" stroke="#9aec45" d="M841.688,-207.64C841.688,-202.063 841.688,-196.132 841.688,-190.476"/>
<ellipse fill="none" stroke="#9aec45" cx="841.688" cy="-211.697" rx="4" ry="4"/>
<polygon fill="#9aec45" stroke="#9aec45" points="841.688,-190.104 846.188,-180.104 841.688,-185.104 841.688,-180.104 841.688,-180.104 841.688,-180.104 841.688,-185.104 837.188,-180.104 841.688,-190.104 841.688,-190.104"/>
</g>
<!-- Item -->
<g id="node12" class="node"><title>Item</title>
<ellipse fill="none" stroke="black" cx="960.688" cy="-306" rx="27" ry="18"/>
<text text-anchor="middle" x="960.688" y="-301.8" font-family="Times,serif" font-size="14.00">Item</text>
</g>
<!-- Supply -->
<g id="node21" class="node"><title>Supply</title>
<ellipse fill="none" stroke="black" cx="960.688" cy="-234" rx="35.3389" ry="18"/>
<text text-anchor="middle" x="960.688" y="-229.8" font-family="Times,serif" font-size="14.00">Supply</text>
</g>
<!-- Item&#45;&gt;Supply -->
<g id="edge15" class="edge"><title>Item&#45;&gt;Supply</title>
<path fill="none" stroke="#061b24" d="M960.688,-279.64C960.688,-274.063 960.688,-268.132 960.688,-262.476"/>
<ellipse fill="none" stroke="#061b24" cx="960.688" cy="-283.697" rx="4" ry="4"/>
<polygon fill="#061b24" stroke="#061b24" points="960.688,-262.104 965.188,-252.104 960.688,-257.104 960.688,-252.104 960.688,-252.104 960.688,-252.104 960.688,-257.104 956.188,-252.104 960.688,-262.104 960.688,-262.104"/>
</g>
<!-- MaintenanceSupply -->
<g id="node15" class="node"><title>MaintenanceSupply</title>
<ellipse fill="none" stroke="black" cx="774.688" cy="-18" rx="80.6749" ry="18"/>
<text text-anchor="middle" x="774.688" y="-13.8" font-family="Times,serif" font-size="14.00">MaintenanceSupply</text>
</g>
<!-- Maintenance&#45;&gt;MaintenanceSupply -->
<g id="edge16" class="edge"><title>Maintenance&#45;&gt;MaintenanceSupply</title>
<path fill="none" stroke="#3bac0b" d="M548.11,-76.2579C594.603,-64.5087 663.729,-47.0401 713.393,-34.4898"/>
<ellipse fill="none" stroke="#3bac0b" cx="543.938" cy="-77.3122" rx="4.00001" ry="4.00001"/>
<polygon fill="#3bac0b" stroke="#3bac0b" points="713.671,-34.4195 724.469,-36.3322 718.519,-33.1944 723.366,-31.9693 723.366,-31.9693 723.366,-31.9693 718.519,-33.1944 722.264,-27.6065 713.671,-34.4195 713.671,-34.4195"/>
</g>
<!-- MaintenanceTask -->
<g id="node16" class="node"><title>MaintenanceTask</title>
<ellipse fill="none" stroke="black" cx="433.688" cy="-18" rx="72.1961" ry="18"/>
<text text-anchor="middle" x="433.688" y="-13.8" font-family="Times,serif" font-size="14.00">MaintenanceTask</text>
</g>
<!-- Maintenance&#45;&gt;MaintenanceTask -->
<g id="edge17" class="edge"><title>Maintenance&#45;&gt;MaintenanceTask</title>
<path fill="none" stroke="#2d72ac" d="M477.093,-66.4744C470.441,-59.1984 463.032,-51.0949 456.245,-43.6722"/>
<ellipse fill="none" stroke="#2d72ac" cx="479.822" cy="-69.4588" rx="4.00002" ry="4.00002"/>
<polygon fill="#2d72ac" stroke="#2d72ac" points="455.938,-43.3365 452.512,-32.9197 452.564,-39.6464 449.191,-35.9562 449.191,-35.9562 449.191,-35.9562 452.564,-39.6464 445.869,-38.9927 455.938,-43.3365 455.938,-43.3365"/>
</g>
<!-- MaintenancePlan&#45;&gt;Maintenance -->
<g id="edge18" class="edge"><title>MaintenancePlan&#45;&gt;Maintenance</title>
<path fill="none" stroke="#6af668" d="M456.198,-137.843C462.586,-130.631 469.647,-122.658 476.106,-115.366"/>
<ellipse fill="none" stroke="#6af668" cx="453.348" cy="-141.061" rx="4.00002" ry="4.00002"/>
<polygon fill="#6af668" stroke="#6af668" points="476.187,-115.275 486.186,-110.773 479.502,-111.532 482.817,-107.789 482.817,-107.789 482.817,-107.789 479.502,-111.532 479.449,-104.805 476.187,-115.275 476.187,-115.275"/>
</g>
<!-- MasterMaintenancePlan&#45;&gt;MaintenancePlan -->
<g id="edge20" class="edge"><title>MasterMaintenancePlan&#45;&gt;MaintenancePlan</title>
<path fill="none" stroke="#335150" d="M408.024,-209.106C411.929,-202.599 416.176,-195.52 420.143,-188.907"/>
<ellipse fill="none" stroke="#335150" cx="405.913" cy="-212.625" rx="4.00002" ry="4.00002"/>
<polygon fill="#335150" stroke="#335150" points="420.178,-188.85 429.181,-182.591 422.75,-184.563 425.323,-180.275 425.323,-180.275 425.323,-180.275 422.75,-184.563 421.464,-177.96 420.178,-188.85 420.178,-188.85"/>
</g>
<!-- Task -->
<g id="node23" class="node"><title>Task</title>
<ellipse fill="none" stroke="black" cx="214.688" cy="-162" rx="27" ry="18"/>
<text text-anchor="middle" x="214.688" y="-157.8" font-family="Times,serif" font-size="14.00">Task</text>
</g>
<!-- MasterMaintenancePlan&#45;&gt;Task -->
<g id="edge19" class="edge"><title>MasterMaintenancePlan&#45;&gt;Task</title>
<path fill="none" stroke="#63a2b4" d="M346.183,-214.423C314.841,-202.166 274.614,-186.435 246.952,-175.617"/>
<ellipse fill="none" stroke="#63a2b4" cx="350.237" cy="-216.008" rx="4.00001" ry="4.00001"/>
<polygon fill="#63a2b4" stroke="#63a2b4" points="246.683,-175.512 239.009,-167.679 242.026,-173.691 237.37,-171.87 237.37,-171.87 237.37,-171.87 242.026,-173.691 235.731,-176.061 246.683,-175.512 246.683,-175.512"/>
</g>
<!-- System -->
<g id="node22" class="node"><title>System</title>
<ellipse fill="none" stroke="black" cx="553.688" cy="-306" rx="36.2992" ry="18"/>
<text text-anchor="middle" x="553.688" y="-301.8" font-family="Times,serif" font-size="14.00">System</text>
</g>
<!-- Plant&#45;&gt;System -->
<g id="edge21" class="edge"><title>Plant&#45;&gt;System</title>
<path fill="none" stroke="#2cf9eb" d="M508.053,-356.145C515.651,-347.963 524.4,-338.54 532.193,-330.148"/>
<ellipse fill="none" stroke="#2cf9eb" cx="505.194" cy="-359.224" rx="4.00002" ry="4.00002"/>
<polygon fill="#2cf9eb" stroke="#2cf9eb" points="532.215,-330.125 542.317,-325.859 535.617,-326.461 539.019,-322.797 539.019,-322.797 539.019,-322.797 535.617,-326.461 535.722,-319.735 532.215,-330.125 532.215,-330.125"/>
</g>
<!-- Provider -->
<g id="node19" class="node"><title>Provider</title>
<ellipse fill="none" stroke="black" cx="706.688" cy="-306" rx="40.6248" ry="18"/>
<text text-anchor="middle" x="706.688" y="-301.8" font-family="Times,serif" font-size="14.00">Provider</text>
</g>
<!-- Provider&#45;&gt;Device -->
<g id="edge22" class="edge"><title>Provider&#45;&gt;Device</title>
<path fill="none" stroke="#484c7a" d="M693.109,-281.238C689.263,-274.506 685.061,-267.154 681.164,-260.333"/>
<ellipse fill="none" stroke="#484c7a" cx="695.224" cy="-284.938" rx="4.00002" ry="4.00002"/>
<polygon fill="#484c7a" stroke="#484c7a" points="681.061,-260.152 680.006,-249.237 678.58,-255.811 676.099,-251.47 676.099,-251.47 676.099,-251.47 678.58,-255.811 672.192,-253.703 681.061,-260.152 681.061,-260.152"/>
</g>
<!-- Provider&#45;&gt;Maintenance -->
<g id="edge23" class="edge"><title>Provider&#45;&gt;Maintenance</title>
<path fill="none" stroke="#e8a690" d="M719.879,-281.032C736.746,-246.777 760.226,-183.594 728.688,-144 708.016,-118.048 621.715,-103.76 560.677,-96.74"/>
<ellipse fill="none" stroke="#e8a690" cx="718.005" cy="-284.719" rx="4.00002" ry="4.00002"/>
<polygon fill="#e8a690" stroke="#e8a690" points="560.672,-96.7396 551.23,-91.1619 555.702,-96.1869 550.733,-95.6343 550.733,-95.6343 550.733,-95.6343 555.702,-96.1869 550.236,-100.107 560.672,-96.7396 560.672,-96.7396"/>
</g>
<!-- Role -->
<g id="node20" class="node"><title>Role</title>
<ellipse fill="none" stroke="black" cx="197.688" cy="-450" rx="27" ry="18"/>
<text text-anchor="middle" x="197.688" y="-445.8" font-family="Times,serif" font-size="14.00">Role</text>
</g>
<!-- Role&#45;&gt;CompanyUser -->
<g id="edge24" class="edge"><title>Role&#45;&gt;CompanyUser</title>
<path fill="none" stroke="#c1c489" d="M191.681,-424.267C190.277,-418.485 188.773,-412.291 187.342,-406.4"/>
<ellipse fill="none" stroke="#c1c489" cx="192.628" cy="-428.168" rx="4.00001" ry="4.00001"/>
<polygon fill="#c1c489" stroke="#c1c489" points="187.243,-405.993 189.256,-395.213 186.063,-401.134 184.883,-396.275 184.883,-396.275 184.883,-396.275 186.063,-401.134 180.51,-397.337 187.243,-405.993 187.243,-405.993"/>
</g>
<!-- Supply&#45;&gt;DeviceSupply -->
<g id="edge25" class="edge"><title>Supply&#45;&gt;DeviceSupply</title>
<path fill="none" stroke="#4fa66a" d="M931.436,-215.793C914.858,-206.041 894.012,-193.779 876.584,-183.527"/>
<ellipse fill="none" stroke="#4fa66a" cx="935.136" cy="-217.969" rx="4.00002" ry="4.00002"/>
<polygon fill="#4fa66a" stroke="#4fa66a" points="876.442,-183.444 870.104,-174.495 872.132,-180.908 867.822,-178.373 867.822,-178.373 867.822,-178.373 872.132,-180.908 865.541,-182.252 876.442,-183.444 876.442,-183.444"/>
</g>
<!-- Supply&#45;&gt;MaintenanceSupply -->
<g id="edge26" class="edge"><title>Supply&#45;&gt;MaintenanceSupply</title>
<path fill="none" stroke="#a968ca" d="M949.683,-208.773C940.61,-190.114 926.667,-164.182 910.688,-144 878.981,-103.953 834.082,-65.3508 804.681,-41.8977"/>
<ellipse fill="none" stroke="#a968ca" cx="951.544" cy="-212.676" rx="4.00002" ry="4.00002"/>
<polygon fill="#a968ca" stroke="#a968ca" points="804.306,-41.6019 799.242,-31.8754 800.381,-38.5052 796.455,-35.4084 796.455,-35.4084 796.455,-35.4084 800.381,-38.5052 793.668,-38.9414 804.306,-41.6019 804.306,-41.6019"/>
</g>
<!-- System&#45;&gt;Device -->
<g id="edge27" class="edge"><title>System&#45;&gt;Device</title>
<path fill="none" stroke="#c1bafc" d="M582.356,-287.241C598.781,-277.066 619.389,-264.3 636.121,-253.935"/>
<ellipse fill="none" stroke="#c1bafc" cx="578.876" cy="-289.397" rx="4.00002" ry="4.00002"/>
<polygon fill="#c1bafc" stroke="#c1bafc" points="636.466,-253.721 647.337,-252.281 640.717,-251.088 644.967,-248.455 644.967,-248.455 644.967,-248.455 640.717,-251.088 642.597,-244.63 636.466,-253.721 636.466,-253.721"/>
</g>
<!-- Task&#45;&gt;MaintenanceTask -->
<g id="edge28" class="edge"><title>Task&#45;&gt;MaintenanceTask</title>
<path fill="none" stroke="#c7ae03" d="M240.278,-144.407C279.925,-118.7 356.199,-69.2442 400.186,-40.7224"/>
<ellipse fill="none" stroke="#c7ae03" cx="236.716" cy="-146.717" rx="4.00002" ry="4.00002"/>
<polygon fill="#c7ae03" stroke="#c7ae03" points="400.405,-40.5807 411.244,-38.9159 404.6,-37.8604 408.796,-35.1402 408.796,-35.1402 408.796,-35.1402 404.6,-37.8604 406.347,-31.3644 400.405,-40.5807 400.405,-40.5807"/>
</g>
<!-- TaskType -->
<g id="node24" class="node"><title>TaskType</title>
<ellipse fill="none" stroke="black" cx="197.688" cy="-234" rx="44.4667" ry="18"/>
<text text-anchor="middle" x="197.688" y="-229.8" font-family="Times,serif" font-size="14.00">TaskType</text>
</g>
<!-- TaskType&#45;&gt;Task -->
<g id="edge29" class="edge"><title>TaskType&#45;&gt;Task</title>
<path fill="none" stroke="#48c8d3" d="M203.694,-208.267C205.099,-202.485 206.603,-196.291 208.033,-190.4"/>
<ellipse fill="none" stroke="#48c8d3" cx="202.747" cy="-212.168" rx="4.00001" ry="4.00001"/>
<polygon fill="#48c8d3" stroke="#48c8d3" points="208.132,-189.993 214.865,-181.337 209.312,-185.134 210.492,-180.275 210.492,-180.275 210.492,-180.275 209.312,-185.134 206.119,-179.213 208.132,-189.993 208.132,-189.993"/>
</g>
<!-- User&#45;&gt;CompanyUser -->
<g id="edge30" class="edge"><title>User&#45;&gt;CompanyUser</title>
<path fill="none" stroke="#91baf3" d="M246.38,-430.668C234.963,-421.689 221.119,-410.8 209.089,-401.338"/>
<ellipse fill="none" stroke="#91baf3" cx="249.803" cy="-433.361" rx="4.00002" ry="4.00002"/>
<polygon fill="#91baf3" stroke="#91baf3" points="208.963,-401.239 203.885,-391.52 205.033,-398.148 201.103,-395.057 201.103,-395.057 201.103,-395.057 205.033,-398.148 198.321,-398.594 208.963,-401.239 208.963,-401.239"/>
</g>
<!-- User&#45;&gt;Maintenance -->
<g id="edge31" class="edge"><title>User&#45;&gt;Maintenance</title>
<path fill="none" stroke="#e35f66" d="M269.688,-423.782C269.688,-395.392 269.688,-347.885 269.688,-307 269.688,-307 269.688,-307 269.688,-233 269.688,-153.271 371.385,-116.7 438.94,-101.203"/>
<ellipse fill="none" stroke="#e35f66" cx="269.688" cy="-427.951" rx="4" ry="4"/>
<polygon fill="#e35f66" stroke="#e35f66" points="439.289,-101.126 450.022,-103.375 444.172,-100.053 449.056,-98.9794 449.056,-98.9794 449.056,-98.9794 444.172,-100.053 448.09,-94.5843 439.289,-101.126 439.289,-101.126"/>
</g>
</g>
</svg>
