<?xml version="1.0" encoding="UTF-8" standalone="no"?>
<!DOCTYPE svg PUBLIC "-//W3C//DTD SVG 1.1//EN"
 "http://www.w3.org/Graphics/SVG/1.1/DTD/svg11.dtd">
<!-- Generated by graphviz version 2.38.0 (20140413.2041)
 -->
<!-- Title: models_diagram Pages: 1 -->
<svg width="874pt" height="585pt"
 viewBox="0.00 0.00 873.62 585.00" xmlns="http://www.w3.org/2000/svg" xmlns:xlink="http://www.w3.org/1999/xlink">
<g id="graph0" class="graph" transform="scale(1 1) rotate(0) translate(4 581)">
<title>models_diagram</title>
<polygon fill="none" stroke="none" points="-4,4 -4,-581 869.619,-581 869.619,4 -4,4"/>
<!-- _diagram_info -->
<g id="node1" class="node"><title>_diagram_info</title>
<text text-anchor="start" x="8" y="-562.6" font-family="Times,serif" font-size="13.00">Models diagram</text>
<text text-anchor="start" x="8" y="-549.6" font-family="Times,serif" font-size="13.00">Date: Aug 24 2016 &#45; 19:23</text>
<text text-anchor="start" x="8" y="-536.6" font-family="Times,serif" font-size="13.00">Migration version: 20160824221144</text>
<text text-anchor="start" x="8" y="-523.6" font-family="Times,serif" font-size="13.00">Generated by RailRoady 1.5.1</text>
<text text-anchor="start" x="8" y="-510.6" font-family="Times,serif" font-size="13.00">http://railroady.prestonlee.com</text>
</g>
<!-- AdminUser -->
<g id="node2" class="node"><title>AdminUser</title>
<ellipse fill="none" stroke="black" cx="276.45" cy="-540.5" rx="51.2415" ry="18"/>
<text text-anchor="middle" x="276.45" y="-536.3" font-family="Times,serif" font-size="14.00">AdminUser</text>
</g>
<!-- Branch -->
<g id="node3" class="node"><title>Branch</title>
<ellipse fill="none" stroke="black" cx="381.45" cy="-540.5" rx="35.7887" ry="18"/>
<text text-anchor="middle" x="381.45" y="-536.3" font-family="Times,serif" font-size="14.00">Branch</text>
</g>
<!-- Plant -->
<g id="node19" class="node"><title>Plant</title>
<ellipse fill="none" stroke="black" cx="437.45" cy="-450" rx="28.0736" ry="18"/>
<text text-anchor="middle" x="437.45" y="-445.8" font-family="Times,serif" font-size="14.00">Plant</text>
</g>
<!-- Branch&#45;&gt;Plant -->
<g id="edge1" class="edge"><title>Branch&#45;&gt;Plant</title>
<path fill="none" stroke="#1f53aa" d="M396.268,-516.083C404.158,-503.612 413.859,-488.282 421.863,-475.633"/>
<ellipse fill="none" stroke="#1f53aa" cx="394.122" cy="-519.474" rx="4.00002" ry="4.00002"/>
<polygon fill="#1f53aa" stroke="#1f53aa" points="421.994,-475.426 431.144,-469.382 424.667,-471.201 427.341,-466.975 427.341,-466.975 427.341,-466.975 424.667,-471.201 423.538,-464.569 421.994,-475.426 421.994,-475.426"/>
</g>
<!-- Company -->
<g id="node4" class="node"><title>Company</title>
<ellipse fill="none" stroke="black" cx="172.45" cy="-234" rx="44.4923" ry="18"/>
<text text-anchor="middle" x="172.45" y="-229.8" font-family="Times,serif" font-size="14.00">Company</text>
</g>
<!-- Company&#45;&gt;Branch -->
<g id="edge4" class="edge"><title>Company&#45;&gt;Branch</title>
<path fill="none" stroke="#73ca8b" d="M213.772,-248.313C257.441,-262.547 320.575,-283.662 324.45,-288 381.69,-352.08 385.142,-461.429 383.283,-512.158"/>
<ellipse fill="none" stroke="#73ca8b" cx="209.937" cy="-247.066" rx="4.00001" ry="4.00001"/>
<polygon fill="#73ca8b" stroke="#73ca8b" points="383.274,-512.348 378.312,-522.127 383.041,-517.343 382.807,-522.337 382.807,-522.337 382.807,-522.337 383.041,-517.343 387.302,-522.547 383.274,-512.348 383.274,-512.348"/>
</g>
<!-- CompanyUser -->
<g id="node5" class="node"><title>CompanyUser</title>
<ellipse fill="none" stroke="black" cx="183.45" cy="-90" rx="61.3891" ry="18"/>
<text text-anchor="middle" x="183.45" y="-85.8" font-family="Times,serif" font-size="14.00">CompanyUser</text>
</g>
<!-- Company&#45;&gt;CompanyUser -->
<g id="edge2" class="edge"><title>Company&#45;&gt;CompanyUser</title>
<path fill="none" stroke="#3c439b" d="M174.421,-207.558C176.366,-182.444 179.331,-144.164 181.328,-118.393"/>
<ellipse fill="none" stroke="#3c439b" cx="174.086" cy="-211.883" rx="4" ry="4"/>
<polygon fill="#3c439b" stroke="#3c439b" points="181.346,-118.159 186.605,-108.537 181.732,-113.174 182.118,-108.189 182.118,-108.189 182.118,-108.189 181.732,-113.174 177.632,-107.842 181.346,-118.159 181.346,-118.159"/>
</g>
<!-- User -->
<g id="node26" class="node"><title>User</title>
<ellipse fill="none" stroke="black" cx="238.45" cy="-162" rx="27" ry="18"/>
<text text-anchor="middle" x="238.45" y="-157.8" font-family="Times,serif" font-size="14.00">User</text>
</g>
<!-- Company&#45;&gt;User -->
<g id="edge3" class="edge"><title>Company&#45;&gt;User</title>
<path fill="none" stroke="#95a941" d="M194.649,-209.456C202.073,-201.581 210.318,-192.837 217.633,-185.078"/>
<polygon fill="#95a941" stroke="#95a941" points="194.617,-209.489 184.483,-213.678 191.187,-213.127 187.757,-216.765 187.757,-216.765 187.757,-216.765 191.187,-213.127 191.031,-219.852 194.617,-209.489 194.617,-209.489"/>
<polygon fill="#95a941" stroke="#95a941" points="217.714,-184.993 227.848,-180.804 221.144,-181.355 224.574,-177.717 224.574,-177.717 224.574,-177.717 221.144,-181.355 221.3,-174.63 217.714,-184.993 217.714,-184.993"/>
</g>
<!-- Device -->
<g id="node6" class="node"><title>Device</title>
<ellipse fill="none" stroke="black" cx="412.45" cy="-306" rx="35.2956" ry="18"/>
<text text-anchor="middle" x="412.45" y="-301.8" font-family="Times,serif" font-size="14.00">Device</text>
</g>
<!-- Device&#45;&gt;Branch -->
<g id="edge6" class="edge"><title>Device&#45;&gt;Branch</title>
<path fill="none" stroke="#520772" d="M409.097,-332.145C403.132,-376.884 390.744,-469.791 384.789,-514.456"/>
<ellipse fill="none" stroke="#520772" cx="409.638" cy="-328.086" rx="4.00001" ry="4.00001"/>
<ellipse fill="#520772" stroke="#520772" cx="384.258" cy="-518.439" rx="4.00001" ry="4.00001"/>
</g>
<!-- Device&#45;&gt;Company -->
<g id="edge7" class="edge"><title>Device&#45;&gt;Company</title>
<path fill="none" stroke="#2a200e" d="M375.368,-293.364C369.387,-291.537 363.254,-289.694 357.45,-288 299.487,-271.082 284.368,-269.069 226.45,-252 222.325,-250.784 218.033,-249.488 213.751,-248.173"/>
<ellipse fill="none" stroke="#2a200e" cx="379.563" cy="-294.653" rx="4.00001" ry="4.00001"/>
<ellipse fill="#2a200e" stroke="#2a200e" cx="209.915" cy="-246.985" rx="4.00001" ry="4.00001"/>
</g>
<!-- Device&#45;&gt;Device -->
<g id="edge8" class="edge"><title>Device&#45;&gt;Device</title>
<path fill="none" stroke="#1046e3" d="M445.57,-319.5C456.687,-319.526 465.597,-315.026 465.597,-306 465.597,-297.581 457.846,-293.1 447.782,-292.556"/>
<ellipse fill="none" stroke="#1046e3" cx="441.585" cy="-319.129" rx="4" ry="4"/>
<polygon fill="#1046e3" stroke="#1046e3" points="447.58,-292.57 437.3,-288.752 442.591,-292.906 437.602,-293.242 437.602,-293.242 437.602,-293.242 442.591,-292.906 437.904,-297.731 447.58,-292.57 447.58,-292.57"/>
</g>
<!-- DeviceState -->
<g id="node7" class="node"><title>DeviceState</title>
<ellipse fill="none" stroke="black" cx="448.45" cy="-234" rx="52.6607" ry="18"/>
<text text-anchor="middle" x="448.45" y="-229.8" font-family="Times,serif" font-size="14.00">DeviceState</text>
</g>
<!-- Device&#45;&gt;DeviceState -->
<g id="edge10" class="edge"><title>Device&#45;&gt;DeviceState</title>
<path fill="none" stroke="#70a827" d="M424.76,-281.062C428.067,-274.632 431.66,-267.647 435.024,-261.106"/>
<ellipse fill="none" stroke="#70a827" cx="422.811" cy="-284.854" rx="4.00002" ry="4.00002"/>
<polygon fill="#70a827" stroke="#70a827" points="435.156,-260.849 443.731,-254.014 437.443,-256.403 439.729,-251.956 439.729,-251.956 439.729,-251.956 437.443,-256.403 435.728,-249.898 435.156,-260.849 435.156,-260.849"/>
</g>
<!-- DeviceSupply -->
<g id="node8" class="node"><title>DeviceSupply</title>
<ellipse fill="none" stroke="black" cx="711.45" cy="-234" rx="60.4202" ry="18"/>
<text text-anchor="middle" x="711.45" y="-229.8" font-family="Times,serif" font-size="14.00">DeviceSupply</text>
</g>
<!-- Device&#45;&gt;DeviceSupply -->
<g id="edge9" class="edge"><title>Device&#45;&gt;DeviceSupply</title>
<path fill="none" stroke="#402bf8" d="M450.162,-294.351C458.162,-292.179 466.57,-289.96 474.45,-288 535.376,-272.844 605.611,-257.387 653.712,-247.108"/>
<ellipse fill="none" stroke="#402bf8" cx="446.191" cy="-295.44" rx="4.00001" ry="4.00001"/>
<polygon fill="#402bf8" stroke="#402bf8" points="653.848,-247.079 664.567,-249.396 658.739,-246.037 663.629,-244.995 663.629,-244.995 663.629,-244.995 658.739,-246.037 662.691,-240.594 653.848,-247.079 653.848,-247.079"/>
</g>
<!-- Failure -->
<g id="node10" class="node"><title>Failure</title>
<ellipse fill="none" stroke="black" cx="554.45" cy="-234" rx="35.3129" ry="18"/>
<text text-anchor="middle" x="554.45" y="-229.8" font-family="Times,serif" font-size="14.00">Failure</text>
</g>
<!-- Device&#45;&gt;Failure -->
<g id="edge11" class="edge"><title>Device&#45;&gt;Failure</title>
<path fill="none" stroke="#77ddec" d="M444.211,-289.343C466.971,-278.123 497.574,-263.037 520.761,-251.607"/>
<ellipse fill="none" stroke="#77ddec" cx="440.448" cy="-291.198" rx="4.00002" ry="4.00002"/>
<polygon fill="#77ddec" stroke="#77ddec" points="520.913,-251.532 531.872,-251.147 525.398,-249.321 529.882,-247.111 529.882,-247.111 529.882,-247.111 525.398,-249.321 527.893,-243.074 520.913,-251.532 520.913,-251.532"/>
</g>
<!-- MaintenancePlan -->
<g id="node15" class="node"><title>MaintenancePlan</title>
<ellipse fill="none" stroke="black" cx="306.45" cy="-234" rx="71.4945" ry="18"/>
<text text-anchor="middle" x="306.45" y="-229.8" font-family="Times,serif" font-size="14.00">MaintenancePlan</text>
</g>
<!-- Device&#45;&gt;MaintenancePlan -->
<g id="edge12" class="edge"><title>Device&#45;&gt;MaintenancePlan</title>
<path fill="none" stroke="#fbfb08" d="M384.881,-286.794C371.008,-277.633 354.089,-266.46 339.521,-256.84"/>
<ellipse fill="none" stroke="#fbfb08" cx="388.422" cy="-289.133" rx="4.00002" ry="4.00002"/>
<polygon fill="#fbfb08" stroke="#fbfb08" points="339.147,-256.593 333.282,-247.327 334.975,-253.837 330.803,-251.082 330.803,-251.082 330.803,-251.082 334.975,-253.837 328.323,-254.837 339.147,-256.593 339.147,-256.593"/>
</g>
<!-- Device&#45;&gt;Plant -->
<g id="edge5" class="edge"><title>Device&#45;&gt;Plant</title>
<path fill="none" stroke="#8a1562" d="M416.919,-332.387C421.475,-358.266 428.5,-398.165 433.036,-423.929"/>
<ellipse fill="none" stroke="#8a1562" cx="416.17" cy="-328.129" rx="4.00001" ry="4.00001"/>
<ellipse fill="#8a1562" stroke="#8a1562" cx="433.741" cy="-427.932" rx="4.00001" ry="4.00001"/>
</g>
<!-- DeviceType -->
<g id="node9" class="node"><title>DeviceType</title>
<ellipse fill="none" stroke="black" cx="240.45" cy="-378" rx="52.9019" ry="18"/>
<text text-anchor="middle" x="240.45" y="-373.8" font-family="Times,serif" font-size="14.00">DeviceType</text>
</g>
<!-- DeviceType&#45;&gt;Device -->
<g id="edge14" class="edge"><title>DeviceType&#45;&gt;Device</title>
<path fill="none" stroke="#d8cf32" d="M280.741,-360.602C309.692,-348.82 348.386,-333.073 376.335,-321.698"/>
<ellipse fill="none" stroke="#d8cf32" cx="276.911" cy="-362.161" rx="4.00001" ry="4.00001"/>
<polygon fill="#d8cf32" stroke="#d8cf32" points="376.477,-321.64 387.435,-322.039 381.108,-319.755 385.739,-317.871 385.739,-317.871 385.739,-317.871 381.108,-319.755 384.043,-313.703 376.477,-321.64 376.477,-321.64"/>
</g>
<!-- MasterMaintenancePlan -->
<g id="node18" class="node"><title>MasterMaintenancePlan</title>
<ellipse fill="none" stroke="black" cx="219.45" cy="-306" rx="96.1085" ry="18"/>
<text text-anchor="middle" x="219.45" y="-301.8" font-family="Times,serif" font-size="14.00">MasterMaintenancePlan</text>
</g>
<!-- DeviceType&#45;&gt;MasterMaintenancePlan -->
<g id="edge13" class="edge"><title>DeviceType&#45;&gt;MasterMaintenancePlan</title>
<path fill="none" stroke="#98a9c4" d="M233.03,-352.267C231.252,-346.34 229.344,-339.981 227.537,-333.959"/>
<ellipse fill="none" stroke="#98a9c4" cx="234.217" cy="-356.224" rx="4.00001" ry="4.00001"/>
<polygon fill="#98a9c4" stroke="#98a9c4" points="227.506,-333.854 228.943,-322.982 226.069,-329.064 224.632,-324.275 224.632,-324.275 224.632,-324.275 226.069,-329.064 220.322,-325.568 227.506,-333.854 227.506,-333.854"/>
</g>
<!-- Maintenance -->
<g id="node14" class="node"><title>Maintenance</title>
<ellipse fill="none" stroke="black" cx="369.45" cy="-90" rx="55.551" ry="18"/>
<text text-anchor="middle" x="369.45" y="-85.8" font-family="Times,serif" font-size="14.00">Maintenance</text>
</g>
<!-- Failure&#45;&gt;Maintenance -->
<g id="edge15" class="edge"><title>Failure&#45;&gt;Maintenance</title>
<path fill="none" stroke="#7c395e" d="M529.181,-213.605C495.032,-187.393 434.296,-140.774 398.364,-113.194"/>
<ellipse fill="none" stroke="#7c395e" cx="532.52" cy="-216.167" rx="4.00002" ry="4.00002"/>
<polygon fill="#7c395e" stroke="#7c395e" points="398.16,-113.037 392.967,-103.379 394.194,-109.993 390.227,-106.948 390.227,-106.948 390.227,-106.948 394.194,-109.993 387.487,-110.518 398.16,-113.037 398.16,-113.037"/>
</g>
<!-- FailureType -->
<g id="node11" class="node"><title>FailureType</title>
<ellipse fill="none" stroke="black" cx="536.45" cy="-306" rx="52.9192" ry="18"/>
<text text-anchor="middle" x="536.45" y="-301.8" font-family="Times,serif" font-size="14.00">FailureType</text>
</g>
<!-- FailureType&#45;&gt;Failure -->
<g id="edge16" class="edge"><title>FailureType&#45;&gt;Failure</title>
<path fill="none" stroke="#997685" d="M542.809,-280.267C544.297,-274.485 545.889,-268.291 547.404,-262.4"/>
<ellipse fill="none" stroke="#997685" cx="541.803" cy="-284.181" rx="4.00001" ry="4.00001"/>
<polygon fill="#997685" stroke="#997685" points="547.517,-261.96 554.366,-253.396 548.762,-257.118 550.007,-252.275 550.007,-252.275 550.007,-252.275 548.762,-257.118 545.649,-251.155 547.517,-261.96 547.517,-261.96"/>
</g>
<!-- InstrumentType -->
<g id="node12" class="node"><title>InstrumentType</title>
<ellipse fill="none" stroke="black" cx="711.45" cy="-306" rx="65.9488" ry="18"/>
<text text-anchor="middle" x="711.45" y="-301.8" font-family="Times,serif" font-size="14.00">InstrumentType</text>
</g>
<!-- InstrumentType&#45;&gt;DeviceSupply -->
<g id="edge17" class="edge"><title>InstrumentType&#45;&gt;DeviceSupply</title>
<path fill="none" stroke="#c6d91e" d="M711.45,-279.64C711.45,-274.063 711.45,-268.132 711.45,-262.476"/>
<ellipse fill="none" stroke="#c6d91e" cx="711.45" cy="-283.697" rx="4" ry="4"/>
<polygon fill="#c6d91e" stroke="#c6d91e" points="711.45,-262.104 715.95,-252.104 711.45,-257.104 711.45,-252.104 711.45,-252.104 711.45,-252.104 711.45,-257.104 706.95,-252.104 711.45,-262.104 711.45,-262.104"/>
</g>
<!-- Item -->
<g id="node13" class="node"><title>Item</title>
<ellipse fill="none" stroke="black" cx="830.45" cy="-378" rx="27" ry="18"/>
<text text-anchor="middle" x="830.45" y="-373.8" font-family="Times,serif" font-size="14.00">Item</text>
</g>
<!-- Supply -->
<g id="node22" class="node"><title>Supply</title>
<ellipse fill="none" stroke="black" cx="830.45" cy="-306" rx="35.3389" ry="18"/>
<text text-anchor="middle" x="830.45" y="-301.8" font-family="Times,serif" font-size="14.00">Supply</text>
</g>
<!-- Item&#45;&gt;Supply -->
<g id="edge18" class="edge"><title>Item&#45;&gt;Supply</title>
<path fill="none" stroke="#422689" d="M830.45,-351.64C830.45,-346.063 830.45,-340.132 830.45,-334.476"/>
<ellipse fill="none" stroke="#422689" cx="830.45" cy="-355.697" rx="4" ry="4"/>
<polygon fill="#422689" stroke="#422689" points="830.45,-334.104 834.95,-324.104 830.45,-329.104 830.45,-324.104 830.45,-324.104 830.45,-324.104 830.45,-329.104 825.95,-324.104 830.45,-334.104 830.45,-334.104"/>
</g>
<!-- MaintenanceSupply -->
<g id="node16" class="node"><title>MaintenanceSupply</title>
<ellipse fill="none" stroke="black" cx="485.45" cy="-18" rx="80.6749" ry="18"/>
<text text-anchor="middle" x="485.45" y="-13.8" font-family="Times,serif" font-size="14.00">MaintenanceSupply</text>
</g>
<!-- Maintenance&#45;&gt;MaintenanceSupply -->
<g id="edge19" class="edge"><title>Maintenance&#45;&gt;MaintenanceSupply</title>
<path fill="none" stroke="#fcd5b2" d="M401.538,-69.6366C416.568,-60.5663 434.522,-49.7324 449.958,-40.4176"/>
<ellipse fill="none" stroke="#fcd5b2" cx="398.045" cy="-71.7444" rx="4.00002" ry="4.00002"/>
<polygon fill="#fcd5b2" stroke="#fcd5b2" points="450.152,-40.3003 461.039,-38.9864 454.433,-37.7169 458.714,-35.1336 458.714,-35.1336 458.714,-35.1336 454.433,-37.7169 456.389,-31.2807 450.152,-40.3003 450.152,-40.3003"/>
</g>
<!-- MaintenanceTask -->
<g id="node17" class="node"><title>MaintenanceTask</title>
<ellipse fill="none" stroke="black" cx="252.45" cy="-18" rx="72.1961" ry="18"/>
<text text-anchor="middle" x="252.45" y="-13.8" font-family="Times,serif" font-size="14.00">MaintenanceTask</text>
</g>
<!-- Maintenance&#45;&gt;MaintenanceTask -->
<g id="edge20" class="edge"><title>Maintenance&#45;&gt;MaintenanceTask</title>
<path fill="none" stroke="#a452cf" d="M337.034,-69.6062C321.761,-60.468 303.504,-49.545 287.867,-40.1899"/>
<ellipse fill="none" stroke="#a452cf" cx="340.63" cy="-71.7574" rx="4.00002" ry="4.00002"/>
<polygon fill="#a452cf" stroke="#a452cf" points="287.587,-40.0224 281.316,-31.0266 283.296,-37.4553 279.006,-34.8882 279.006,-34.8882 279.006,-34.8882 283.296,-37.4553 276.695,-38.7498 287.587,-40.0224 287.587,-40.0224"/>
</g>
<!-- MaintenancePlan&#45;&gt;Maintenance -->
<g id="edge21" class="edge"><title>MaintenancePlan&#45;&gt;Maintenance</title>
<path fill="none" stroke="#5d5630" d="M317.41,-208.297C328.68,-182.894 346.169,-143.473 357.715,-117.45"/>
<ellipse fill="none" stroke="#5d5630" cx="315.671" cy="-212.215" rx="4.00002" ry="4.00002"/>
<polygon fill="#5d5630" stroke="#5d5630" points="357.768,-117.33 365.937,-110.014 359.796,-112.76 361.823,-108.189 361.823,-108.189 361.823,-108.189 359.796,-112.76 357.71,-106.364 357.768,-117.33 357.768,-117.33"/>
</g>
<!-- MasterMaintenancePlan&#45;&gt;MaintenancePlan -->
<g id="edge23" class="edge"><title>MasterMaintenancePlan&#45;&gt;MaintenancePlan</title>
<path fill="none" stroke="#3e9324" d="M246.502,-283.234C256.557,-275.144 267.987,-265.947 278.151,-257.769"/>
<ellipse fill="none" stroke="#3e9324" cx="243.184" cy="-285.903" rx="4.00002" ry="4.00002"/>
<polygon fill="#3e9324" stroke="#3e9324" points="278.189,-257.739 288.801,-254.976 282.084,-254.604 285.98,-251.47 285.98,-251.47 285.98,-251.47 282.084,-254.604 283.159,-247.964 278.189,-257.739 278.189,-257.739"/>
</g>
<!-- Task -->
<g id="node24" class="node"><title>Task</title>
<ellipse fill="none" stroke="black" cx="73.4497" cy="-234" rx="27" ry="18"/>
<text text-anchor="middle" x="73.4497" y="-229.8" font-family="Times,serif" font-size="14.00">Task</text>
</g>
<!-- MasterMaintenancePlan&#45;&gt;Task -->
<g id="edge22" class="edge"><title>MasterMaintenancePlan&#45;&gt;Task</title>
<path fill="none" stroke="#4e9b66" d="M178.52,-285.376C154.905,-274.054 125.702,-260.053 104.082,-249.687"/>
<ellipse fill="none" stroke="#4e9b66" cx="182.347" cy="-287.211" rx="4.00002" ry="4.00002"/>
<polygon fill="#4e9b66" stroke="#4e9b66" points="104.042,-249.667 96.9699,-241.286 99.533,-247.506 95.0244,-245.344 95.0244,-245.344 95.0244,-245.344 99.533,-247.506 93.0789,-249.402 104.042,-249.667 104.042,-249.667"/>
</g>
<!-- System -->
<g id="node23" class="node"><title>System</title>
<ellipse fill="none" stroke="black" cx="483.45" cy="-378" rx="36.2992" ry="18"/>
<text text-anchor="middle" x="483.45" y="-373.8" font-family="Times,serif" font-size="14.00">System</text>
</g>
<!-- Plant&#45;&gt;System -->
<g id="edge24" class="edge"><title>Plant&#45;&gt;System</title>
<path fill="none" stroke="#dec1fc" d="M452.296,-426.409C456.975,-419.287 462.172,-411.379 466.959,-404.094"/>
<ellipse fill="none" stroke="#dec1fc" cx="450.085" cy="-429.773" rx="4.00002" ry="4.00002"/>
<polygon fill="#dec1fc" stroke="#dec1fc" points="467.242,-403.664 476.494,-397.778 469.988,-399.486 472.734,-395.307 472.734,-395.307 472.734,-395.307 469.988,-399.486 468.973,-392.836 467.242,-403.664 467.242,-403.664"/>
</g>
<!-- Provider -->
<g id="node20" class="node"><title>Provider</title>
<ellipse fill="none" stroke="black" cx="601.45" cy="-378" rx="40.6248" ry="18"/>
<text text-anchor="middle" x="601.45" y="-373.8" font-family="Times,serif" font-size="14.00">Provider</text>
</g>
<!-- Provider&#45;&gt;Device -->
<g id="edge25" class="edge"><title>Provider&#45;&gt;Device</title>
<path fill="none" stroke="#003dd6" d="M563.57,-362.97C530.445,-350.702 482.616,-332.988 449.684,-320.79"/>
<ellipse fill="none" stroke="#003dd6" cx="567.333" cy="-364.364" rx="4.00001" ry="4.00001"/>
<polygon fill="#003dd6" stroke="#003dd6" points="449.352,-320.668 441.538,-312.975 444.663,-318.931 439.975,-317.194 439.975,-317.194 439.975,-317.194 444.663,-318.931 438.412,-321.414 449.352,-320.668 449.352,-320.668"/>
</g>
<!-- Provider&#45;&gt;Maintenance -->
<g id="edge26" class="edge"><title>Provider&#45;&gt;Maintenance</title>
<path fill="none" stroke="#f2c004" d="M608.03,-352.141C615.405,-318.685 623.331,-258.474 598.45,-216 561.378,-152.718 479.588,-119.48 424.479,-103.598"/>
<ellipse fill="none" stroke="#f2c004" cx="607.096" cy="-356.148" rx="4.00001" ry="4.00001"/>
<polygon fill="#f2c004" stroke="#f2c004" points="424.152,-103.507 415.721,-96.4946 419.334,-102.169 414.517,-100.831 414.517,-100.831 414.517,-100.831 419.334,-102.169 413.313,-105.166 424.152,-103.507 424.152,-103.507"/>
</g>
<!-- Role -->
<g id="node21" class="node"><title>Role</title>
<ellipse fill="none" stroke="black" cx="128.45" cy="-162" rx="27" ry="18"/>
<text text-anchor="middle" x="128.45" y="-157.8" font-family="Times,serif" font-size="14.00">Role</text>
</g>
<!-- Role&#45;&gt;CompanyUser -->
<g id="edge27" class="edge"><title>Role&#45;&gt;CompanyUser</title>
<path fill="none" stroke="#e02a5b" d="M145.427,-139.392C151.33,-131.879 157.995,-123.396 164.078,-115.655"/>
<ellipse fill="none" stroke="#e02a5b" cx="142.855" cy="-142.666" rx="4.00002" ry="4.00002"/>
<polygon fill="#e02a5b" stroke="#e02a5b" points="164.207,-115.491 173.923,-110.408 167.296,-111.559 170.385,-107.628 170.385,-107.628 170.385,-107.628 167.296,-111.559 166.847,-104.848 164.207,-115.491 164.207,-115.491"/>
</g>
<!-- Supply&#45;&gt;DeviceSupply -->
<g id="edge28" class="edge"><title>Supply&#45;&gt;DeviceSupply</title>
<path fill="none" stroke="#99fef5" d="M801.198,-287.793C784.62,-278.041 763.774,-265.779 746.346,-255.527"/>
<ellipse fill="none" stroke="#99fef5" cx="804.898" cy="-289.969" rx="4.00002" ry="4.00002"/>
<polygon fill="#99fef5" stroke="#99fef5" points="746.204,-255.444 739.866,-246.495 741.894,-252.908 737.584,-250.373 737.584,-250.373 737.584,-250.373 741.894,-252.908 735.303,-254.252 746.204,-255.444 746.204,-255.444"/>
</g>
<!-- Supply&#45;&gt;MaintenanceSupply -->
<g id="edge29" class="edge"><title>Supply&#45;&gt;MaintenanceSupply</title>
<path fill="none" stroke="#7ae199" d="M820.563,-280.646C811.967,-261.544 798.123,-235.088 780.45,-216 705.033,-134.547 589.573,-70.1331 527.844,-39.144"/>
<ellipse fill="none" stroke="#7ae199" cx="822.211" cy="-284.418" rx="4.00002" ry="4.00002"/>
<polygon fill="#7ae199" stroke="#7ae199" points="527.731,-39.0877 520.778,-30.608 523.253,-36.8628 518.775,-34.638 518.775,-34.638 518.775,-34.638 523.253,-36.8628 516.773,-38.668 527.731,-39.0877 527.731,-39.0877"/>
</g>
<!-- System&#45;&gt;Device -->
<g id="edge30" class="edge"><title>System&#45;&gt;Device</title>
<path fill="none" stroke="#b75c13" d="M461.899,-355.753C453.491,-347.463 443.841,-337.949 435.311,-329.54"/>
<ellipse fill="none" stroke="#b75c13" cx="464.844" cy="-358.656" rx="4.00002" ry="4.00002"/>
<polygon fill="#b75c13" stroke="#b75c13" points="435.284,-329.513 431.322,-319.287 431.723,-326.002 428.163,-322.492 428.163,-322.492 428.163,-322.492 431.723,-326.002 425.004,-325.696 435.284,-329.513 435.284,-329.513"/>
</g>
<!-- Task&#45;&gt;MaintenanceTask -->
<g id="edge31" class="edge"><title>Task&#45;&gt;MaintenanceTask</title>
<path fill="none" stroke="#8f8b9a" d="M72.6458,-207.717C72.9328,-172.743 78.7022,-109.663 113.45,-72 132.084,-51.8018 159.242,-39.2379 184.619,-31.4513"/>
<ellipse fill="none" stroke="#8f8b9a" cx="72.6617" cy="-211.97" rx="4" ry="4"/>
<polygon fill="#8f8b9a" stroke="#8f8b9a" points="184.623,-31.4502 195.476,-33.0208 189.429,-30.0726 194.236,-28.695 194.236,-28.695 194.236,-28.695 189.429,-30.0726 192.996,-24.3692 184.623,-31.4502 184.623,-31.4502"/>
</g>
<!-- TaskType -->
<g id="node25" class="node"><title>TaskType</title>
<ellipse fill="none" stroke="black" cx="61.4497" cy="-306" rx="44.4667" ry="18"/>
<text text-anchor="middle" x="61.4497" y="-301.8" font-family="Times,serif" font-size="14.00">TaskType</text>
</g>
<!-- TaskType&#45;&gt;Task -->
<g id="edge32" class="edge"><title>TaskType&#45;&gt;Task</title>
<path fill="none" stroke="#b9070c" d="M65.7972,-279.64C66.7777,-273.92 67.8221,-267.828 68.814,-262.042"/>
<ellipse fill="none" stroke="#b9070c" cx="65.0919" cy="-283.754" rx="4.00001" ry="4.00001"/>
<polygon fill="#b9070c" stroke="#b9070c" points="68.8278,-261.961 74.9528,-252.865 69.6727,-257.032 70.5175,-252.104 70.5175,-252.104 70.5175,-252.104 69.6727,-257.032 66.0822,-251.344 68.8278,-261.961 68.8278,-261.961"/>
</g>
<!-- User&#45;&gt;CompanyUser -->
<g id="edge33" class="edge"><title>User&#45;&gt;CompanyUser</title>
<path fill="none" stroke="#9e97b2" d="M221.472,-139.392C215.569,-131.879 208.904,-123.396 202.822,-115.655"/>
<ellipse fill="none" stroke="#9e97b2" cx="224.044" cy="-142.666" rx="4.00002" ry="4.00002"/>
<polygon fill="#9e97b2" stroke="#9e97b2" points="202.693,-115.491 200.053,-104.848 199.604,-111.559 196.514,-107.628 196.514,-107.628 196.514,-107.628 199.604,-111.559 192.976,-110.408 202.693,-115.491 202.693,-115.491"/>
</g>
<!-- User&#45;&gt;Maintenance -->
<g id="edge34" class="edge"><title>User&#45;&gt;Maintenance</title>
<path fill="none" stroke="#a89960" d="M266.108,-146.221C285.515,-135.85 311.67,-121.875 332.81,-110.578"/>
<ellipse fill="none" stroke="#a89960" cx="262.446" cy="-148.177" rx="4.00002" ry="4.00002"/>
<polygon fill="#a89960" stroke="#a89960" points="333.008,-110.473 343.949,-109.729 337.418,-108.116 341.828,-105.76 341.828,-105.76 341.828,-105.76 337.418,-108.116 339.707,-101.791 333.008,-110.473 333.008,-110.473"/>
</g>
</g>
</svg>
