<?xml version="1.0" encoding="UTF-8" standalone="no"?>
<!DOCTYPE svg PUBLIC "-//W3C//DTD SVG 1.1//EN"
 "http://www.w3.org/Graphics/SVG/1.1/DTD/svg11.dtd">
<!-- Generated by graphviz version 2.38.0 (20140413.2041)
 -->
<!-- Title: models_diagram Pages: 1 -->
<svg width="1769pt" height="730pt"
 viewBox="0.00 0.00 1768.55 730.00" xmlns="http://www.w3.org/2000/svg" xmlns:xlink="http://www.w3.org/1999/xlink">
<g id="graph0" class="graph" transform="scale(1 1) rotate(0) translate(4 726)">
<title>models_diagram</title>
<polygon fill="none" stroke="none" points="-4,4 -4,-726 1764.55,-726 1764.55,4 -4,4"/>
<!-- _diagram_info -->
<g id="node1" class="node"><title>_diagram_info</title>
<text text-anchor="start" x="8" y="-665.6" font-family="Times,serif" font-size="13.00">Models diagram</text>
<text text-anchor="start" x="8" y="-652.6" font-family="Times,serif" font-size="13.00">Date: Aug 20 2016 &#45; 04:18</text>
<text text-anchor="start" x="8" y="-639.6" font-family="Times,serif" font-size="13.00">Migration version: 20160820071735</text>
<text text-anchor="start" x="8" y="-626.6" font-family="Times,serif" font-size="13.00">Generated by RailRoady 1.5.1</text>
<text text-anchor="start" x="8" y="-613.6" font-family="Times,serif" font-size="13.00">http://railroady.prestonlee.com</text>
</g>
<!-- Branch -->
<g id="node2" class="node"><title>Branch</title>
<path fill="none" stroke="black" d="M85.8254,-358.5C85.8254,-358.5 309.55,-358.5 309.55,-358.5 315.55,-358.5 321.55,-364.5 321.55,-370.5 321.55,-370.5 321.55,-460.5 321.55,-460.5 321.55,-466.5 315.55,-472.5 309.55,-472.5 309.55,-472.5 85.8254,-472.5 85.8254,-472.5 79.8254,-472.5 73.8254,-466.5 73.8254,-460.5 73.8254,-460.5 73.8254,-370.5 73.8254,-370.5 73.8254,-364.5 79.8254,-358.5 85.8254,-358.5"/>
<text text-anchor="middle" x="197.688" y="-457.3" font-family="Times,serif" font-size="14.00">Branch</text>
<polyline fill="none" stroke="black" points="73.8254,-450.5 321.55,-450.5 "/>
<text text-anchor="start" x="81.8254" y="-435.3" font-family="Times,serif" font-size="14.00">id :integer</text>
<text text-anchor="start" x="81.8254" y="-421.3" font-family="Times,serif" font-size="14.00">name :character varying</text>
<text text-anchor="start" x="81.8254" y="-407.3" font-family="Times,serif" font-size="14.00">address :character varying</text>
<text text-anchor="start" x="81.8254" y="-393.3" font-family="Times,serif" font-size="14.00">company_id :integer</text>
<text text-anchor="start" x="81.8254" y="-379.3" font-family="Times,serif" font-size="14.00">created_at :timestamp without time zone</text>
<text text-anchor="start" x="81.8254" y="-365.3" font-family="Times,serif" font-size="14.00">updated_at :timestamp without time zone</text>
</g>
<!-- Plant -->
<g id="node8" class="node"><title>Plant</title>
<path fill="none" stroke="black" d="M85.8254,-151.5C85.8254,-151.5 309.55,-151.5 309.55,-151.5 315.55,-151.5 321.55,-157.5 321.55,-163.5 321.55,-163.5 321.55,-239.5 321.55,-239.5 321.55,-245.5 315.55,-251.5 309.55,-251.5 309.55,-251.5 85.8254,-251.5 85.8254,-251.5 79.8254,-251.5 73.8254,-245.5 73.8254,-239.5 73.8254,-239.5 73.8254,-163.5 73.8254,-163.5 73.8254,-157.5 79.8254,-151.5 85.8254,-151.5"/>
<text text-anchor="middle" x="197.688" y="-236.3" font-family="Times,serif" font-size="14.00">Plant</text>
<polyline fill="none" stroke="black" points="73.8254,-229.5 321.55,-229.5 "/>
<text text-anchor="start" x="81.8254" y="-214.3" font-family="Times,serif" font-size="14.00">id :integer</text>
<text text-anchor="start" x="81.8254" y="-200.3" font-family="Times,serif" font-size="14.00">name :character varying</text>
<text text-anchor="start" x="81.8254" y="-186.3" font-family="Times,serif" font-size="14.00">branch_id :integer</text>
<text text-anchor="start" x="81.8254" y="-172.3" font-family="Times,serif" font-size="14.00">created_at :timestamp without time zone</text>
<text text-anchor="start" x="81.8254" y="-158.3" font-family="Times,serif" font-size="14.00">updated_at :timestamp without time zone</text>
</g>
<!-- Branch&#45;&gt;Plant -->
<g id="edge1" class="edge"><title>Branch&#45;&gt;Plant</title>
<path fill="none" stroke="#c82076" d="M197.688,-349.935C197.688,-321.955 197.688,-289.405 197.688,-262.017"/>
<ellipse fill="none" stroke="#c82076" cx="197.688" cy="-354.244" rx="4" ry="4"/>
<polygon fill="#c82076" stroke="#c82076" points="197.688,-261.793 202.188,-251.793 197.688,-256.793 197.688,-251.793 197.688,-251.793 197.688,-251.793 197.688,-256.793 193.188,-251.793 197.688,-261.793 197.688,-261.793"/>
</g>
<!-- Company -->
<g id="node3" class="node"><title>Company</title>
<path fill="none" stroke="black" d="M237.825,-565.5C237.825,-565.5 461.55,-565.5 461.55,-565.5 467.55,-565.5 473.55,-571.5 473.55,-577.5 473.55,-577.5 473.55,-709.5 473.55,-709.5 473.55,-715.5 467.55,-721.5 461.55,-721.5 461.55,-721.5 237.825,-721.5 237.825,-721.5 231.825,-721.5 225.825,-715.5 225.825,-709.5 225.825,-709.5 225.825,-577.5 225.825,-577.5 225.825,-571.5 231.825,-565.5 237.825,-565.5"/>
<text text-anchor="middle" x="349.688" y="-706.3" font-family="Times,serif" font-size="14.00">Company</text>
<polyline fill="none" stroke="black" points="225.825,-699.5 473.55,-699.5 "/>
<text text-anchor="start" x="233.825" y="-684.3" font-family="Times,serif" font-size="14.00">updated_at :timestamp without time zone</text>
<text text-anchor="start" x="233.825" y="-670.3" font-family="Times,serif" font-size="14.00">rut :character varying</text>
<text text-anchor="start" x="233.825" y="-656.3" font-family="Times,serif" font-size="14.00">company_name :character varying</text>
<text text-anchor="start" x="233.825" y="-642.3" font-family="Times,serif" font-size="14.00">fantasy_name :character varying</text>
<text text-anchor="start" x="233.825" y="-628.3" font-family="Times,serif" font-size="14.00">address :character varying</text>
<text text-anchor="start" x="233.825" y="-614.3" font-family="Times,serif" font-size="14.00">email :character varying</text>
<text text-anchor="start" x="233.825" y="-600.3" font-family="Times,serif" font-size="14.00">url :character varying</text>
<text text-anchor="start" x="233.825" y="-586.3" font-family="Times,serif" font-size="14.00">created_at :timestamp without time zone</text>
<text text-anchor="start" x="233.825" y="-572.3" font-family="Times,serif" font-size="14.00">id :integer</text>
</g>
<!-- Company&#45;&gt;Branch -->
<g id="edge4" class="edge"><title>Company&#45;&gt;Branch</title>
<path fill="none" stroke="#6989c1" d="M293.205,-558.52C275.966,-532.887 257.289,-505.117 241.061,-480.99"/>
<ellipse fill="none" stroke="#6989c1" cx="295.571" cy="-562.037" rx="4.00002" ry="4.00002"/>
<polygon fill="#6989c1" stroke="#6989c1" points="241.011,-480.915 239.164,-470.106 238.221,-476.766 235.43,-472.617 235.43,-472.617 235.43,-472.617 238.221,-476.766 231.696,-475.128 241.011,-480.915 241.011,-480.915"/>
</g>
<!-- CompanyUser -->
<g id="node4" class="node"><title>CompanyUser</title>
<path fill="none" stroke="black" d="M425.825,-137.5C425.825,-137.5 649.55,-137.5 649.55,-137.5 655.55,-137.5 661.55,-143.5 661.55,-149.5 661.55,-149.5 661.55,-253.5 661.55,-253.5 661.55,-259.5 655.55,-265.5 649.55,-265.5 649.55,-265.5 425.825,-265.5 425.825,-265.5 419.825,-265.5 413.825,-259.5 413.825,-253.5 413.825,-253.5 413.825,-149.5 413.825,-149.5 413.825,-143.5 419.825,-137.5 425.825,-137.5"/>
<text text-anchor="middle" x="537.688" y="-250.3" font-family="Times,serif" font-size="14.00">CompanyUser</text>
<polyline fill="none" stroke="black" points="413.825,-243.5 661.55,-243.5 "/>
<text text-anchor="start" x="421.825" y="-228.3" font-family="Times,serif" font-size="14.00">created_at :timestamp without time zone</text>
<text text-anchor="start" x="421.825" y="-214.3" font-family="Times,serif" font-size="14.00">company_id :integer</text>
<text text-anchor="start" x="421.825" y="-200.3" font-family="Times,serif" font-size="14.00">user_id :integer</text>
<text text-anchor="start" x="421.825" y="-186.3" font-family="Times,serif" font-size="14.00">id :integer</text>
<text text-anchor="start" x="421.825" y="-172.3" font-family="Times,serif" font-size="14.00">updated_at :timestamp without time zone</text>
<text text-anchor="start" x="421.825" y="-158.3" font-family="Times,serif" font-size="14.00">position :character varying</text>
<text text-anchor="start" x="421.825" y="-144.3" font-family="Times,serif" font-size="14.00">role_id :integer</text>
</g>
<!-- Company&#45;&gt;CompanyUser -->
<g id="edge2" class="edge"><title>Company&#45;&gt;CompanyUser</title>
<path fill="none" stroke="#cb3b07" d="M345.468,-557.289C342.739,-470.603 343.52,-343.308 368.688,-302 378.179,-286.422 391.1,-273.006 405.6,-261.529"/>
<ellipse fill="none" stroke="#cb3b07" cx="345.601" cy="-561.287" rx="4" ry="4"/>
<polygon fill="#cb3b07" stroke="#cb3b07" points="405.817,-261.366 416.512,-258.947 409.811,-258.359 413.806,-255.352 413.806,-255.352 413.806,-255.352 409.811,-258.359 411.099,-251.757 405.817,-261.366 405.817,-261.366"/>
</g>
<!-- User -->
<g id="node14" class="node"><title>User</title>
<path fill="none" stroke="black" d="M390.053,-302.5C390.053,-302.5 685.323,-302.5 685.323,-302.5 691.323,-302.5 697.323,-308.5 697.323,-314.5 697.323,-314.5 697.323,-516.5 697.323,-516.5 697.323,-522.5 691.323,-528.5 685.323,-528.5 685.323,-528.5 390.053,-528.5 390.053,-528.5 384.053,-528.5 378.053,-522.5 378.053,-516.5 378.053,-516.5 378.053,-314.5 378.053,-314.5 378.053,-308.5 384.053,-302.5 390.053,-302.5"/>
<text text-anchor="middle" x="537.688" y="-513.3" font-family="Times,serif" font-size="14.00">User</text>
<polyline fill="none" stroke="black" points="378.053,-506.5 697.323,-506.5 "/>
<text text-anchor="start" x="386.053" y="-491.3" font-family="Times,serif" font-size="14.00">name :character varying</text>
<text text-anchor="start" x="386.053" y="-477.3" font-family="Times,serif" font-size="14.00">email :character varying</text>
<text text-anchor="start" x="386.053" y="-463.3" font-family="Times,serif" font-size="14.00">encrypted_password :character varying</text>
<text text-anchor="start" x="386.053" y="-449.3" font-family="Times,serif" font-size="14.00">reset_password_token :character varying</text>
<text text-anchor="start" x="386.053" y="-435.3" font-family="Times,serif" font-size="14.00">reset_password_sent_at :timestamp without time zone</text>
<text text-anchor="start" x="386.053" y="-421.3" font-family="Times,serif" font-size="14.00">remember_created_at :timestamp without time zone</text>
<text text-anchor="start" x="386.053" y="-407.3" font-family="Times,serif" font-size="14.00">sign_in_count :integer</text>
<text text-anchor="start" x="386.053" y="-393.3" font-family="Times,serif" font-size="14.00">current_sign_in_at :timestamp without time zone</text>
<text text-anchor="start" x="386.053" y="-379.3" font-family="Times,serif" font-size="14.00">last_sign_in_at :timestamp without time zone</text>
<text text-anchor="start" x="386.053" y="-365.3" font-family="Times,serif" font-size="14.00">current_sign_in_ip :inet</text>
<text text-anchor="start" x="386.053" y="-351.3" font-family="Times,serif" font-size="14.00">last_sign_in_ip :inet</text>
<text text-anchor="start" x="386.053" y="-337.3" font-family="Times,serif" font-size="14.00">created_at :timestamp without time zone</text>
<text text-anchor="start" x="386.053" y="-323.3" font-family="Times,serif" font-size="14.00">updated_at :timestamp without time zone</text>
<text text-anchor="start" x="386.053" y="-309.3" font-family="Times,serif" font-size="14.00">id :integer</text>
</g>
<!-- Company&#45;&gt;User -->
<g id="edge3" class="edge"><title>Company&#45;&gt;User</title>
<path fill="none" stroke="#a7169f" d="M420.418,-557.473C426.203,-550.518 432.114,-543.413 438.055,-536.271"/>
<polygon fill="#a7169f" stroke="#a7169f" points="420.256,-557.668 410.401,-562.478 417.058,-561.512 413.861,-565.356 413.861,-565.356 413.861,-565.356 417.058,-561.512 417.32,-568.234 420.256,-557.668 420.256,-557.668"/>
<polygon fill="#a7169f" stroke="#a7169f" points="438.113,-536.201 447.968,-531.391 441.311,-532.357 444.509,-528.513 444.509,-528.513 444.509,-528.513 441.311,-532.357 441.049,-525.635 438.113,-536.201 438.113,-536.201"/>
</g>
<!-- EquipmentType -->
<g id="node5" class="node"><title>EquipmentType</title>
<path fill="none" stroke="black" d="M992.825,-593.5C992.825,-593.5 1216.55,-593.5 1216.55,-593.5 1222.55,-593.5 1228.55,-599.5 1228.55,-605.5 1228.55,-605.5 1228.55,-681.5 1228.55,-681.5 1228.55,-687.5 1222.55,-693.5 1216.55,-693.5 1216.55,-693.5 992.825,-693.5 992.825,-693.5 986.825,-693.5 980.825,-687.5 980.825,-681.5 980.825,-681.5 980.825,-605.5 980.825,-605.5 980.825,-599.5 986.825,-593.5 992.825,-593.5"/>
<text text-anchor="middle" x="1104.69" y="-678.3" font-family="Times,serif" font-size="14.00">EquipmentType</text>
<polyline fill="none" stroke="black" points="980.825,-671.5 1228.55,-671.5 "/>
<text text-anchor="start" x="988.825" y="-656.3" font-family="Times,serif" font-size="14.00">id :integer</text>
<text text-anchor="start" x="988.825" y="-642.3" font-family="Times,serif" font-size="14.00">brand_model :character varying</text>
<text text-anchor="start" x="988.825" y="-628.3" font-family="Times,serif" font-size="14.00">description :text</text>
<text text-anchor="start" x="988.825" y="-614.3" font-family="Times,serif" font-size="14.00">created_at :timestamp without time zone</text>
<text text-anchor="start" x="988.825" y="-600.3" font-family="Times,serif" font-size="14.00">updated_at :timestamp without time zone</text>
</g>
<!-- MasterMaintenancePlan -->
<g id="node7" class="node"><title>MasterMaintenancePlan</title>
<path fill="none" stroke="black" d="M992.825,-344.5C992.825,-344.5 1216.55,-344.5 1216.55,-344.5 1222.55,-344.5 1228.55,-350.5 1228.55,-356.5 1228.55,-356.5 1228.55,-474.5 1228.55,-474.5 1228.55,-480.5 1222.55,-486.5 1216.55,-486.5 1216.55,-486.5 992.825,-486.5 992.825,-486.5 986.825,-486.5 980.825,-480.5 980.825,-474.5 980.825,-474.5 980.825,-356.5 980.825,-356.5 980.825,-350.5 986.825,-344.5 992.825,-344.5"/>
<text text-anchor="middle" x="1104.69" y="-471.3" font-family="Times,serif" font-size="14.00">MasterMaintenancePlan</text>
<polyline fill="none" stroke="black" points="980.825,-464.5 1228.55,-464.5 "/>
<text text-anchor="start" x="988.825" y="-449.3" font-family="Times,serif" font-size="14.00">updated_at :timestamp without time zone</text>
<text text-anchor="start" x="988.825" y="-435.3" font-family="Times,serif" font-size="14.00">lubrication :boolean</text>
<text text-anchor="start" x="988.825" y="-421.3" font-family="Times,serif" font-size="14.00">subject :character varying</text>
<text text-anchor="start" x="988.825" y="-407.3" font-family="Times,serif" font-size="14.00">description :text</text>
<text text-anchor="start" x="988.825" y="-393.3" font-family="Times,serif" font-size="14.00">frecuency :integer</text>
<text text-anchor="start" x="988.825" y="-379.3" font-family="Times,serif" font-size="14.00">equipment_type_id :integer</text>
<text text-anchor="start" x="988.825" y="-365.3" font-family="Times,serif" font-size="14.00">created_at :timestamp without time zone</text>
<text text-anchor="start" x="988.825" y="-351.3" font-family="Times,serif" font-size="14.00">id :integer</text>
</g>
<!-- EquipmentType&#45;&gt;MasterMaintenancePlan -->
<g id="edge5" class="edge"><title>EquipmentType&#45;&gt;MasterMaintenancePlan</title>
<path fill="none" stroke="#534cf9" d="M1104.69,-585.224C1104.69,-558.485 1104.69,-526.193 1104.69,-497.048"/>
<ellipse fill="none" stroke="#534cf9" cx="1104.69" cy="-589.461" rx="4" ry="4"/>
<polygon fill="#534cf9" stroke="#534cf9" points="1104.69,-496.885 1109.19,-486.885 1104.69,-491.885 1104.69,-486.885 1104.69,-486.885 1104.69,-486.885 1104.69,-491.885 1100.19,-486.885 1104.69,-496.885 1104.69,-496.885"/>
</g>
<!-- Item -->
<g id="node6" class="node"><title>Item</title>
<path fill="none" stroke="black" d="M1524.83,-593.5C1524.83,-593.5 1748.55,-593.5 1748.55,-593.5 1754.55,-593.5 1760.55,-599.5 1760.55,-605.5 1760.55,-605.5 1760.55,-681.5 1760.55,-681.5 1760.55,-687.5 1754.55,-693.5 1748.55,-693.5 1748.55,-693.5 1524.83,-693.5 1524.83,-693.5 1518.83,-693.5 1512.83,-687.5 1512.83,-681.5 1512.83,-681.5 1512.83,-605.5 1512.83,-605.5 1512.83,-599.5 1518.83,-593.5 1524.83,-593.5"/>
<text text-anchor="middle" x="1636.69" y="-678.3" font-family="Times,serif" font-size="14.00">Item</text>
<polyline fill="none" stroke="black" points="1512.83,-671.5 1760.55,-671.5 "/>
<text text-anchor="start" x="1520.83" y="-656.3" font-family="Times,serif" font-size="14.00">id :integer</text>
<text text-anchor="start" x="1520.83" y="-642.3" font-family="Times,serif" font-size="14.00">name :character varying</text>
<text text-anchor="start" x="1520.83" y="-628.3" font-family="Times,serif" font-size="14.00">warehouse_code :character varying</text>
<text text-anchor="start" x="1520.83" y="-614.3" font-family="Times,serif" font-size="14.00">created_at :timestamp without time zone</text>
<text text-anchor="start" x="1520.83" y="-600.3" font-family="Times,serif" font-size="14.00">updated_at :timestamp without time zone</text>
</g>
<!-- Supply -->
<g id="node10" class="node"><title>Supply</title>
<path fill="none" stroke="black" d="M1524.83,-323.5C1524.83,-323.5 1748.55,-323.5 1748.55,-323.5 1754.55,-323.5 1760.55,-329.5 1760.55,-335.5 1760.55,-335.5 1760.55,-495.5 1760.55,-495.5 1760.55,-501.5 1754.55,-507.5 1748.55,-507.5 1748.55,-507.5 1524.83,-507.5 1524.83,-507.5 1518.83,-507.5 1512.83,-501.5 1512.83,-495.5 1512.83,-495.5 1512.83,-335.5 1512.83,-335.5 1512.83,-329.5 1518.83,-323.5 1524.83,-323.5"/>
<text text-anchor="middle" x="1636.69" y="-492.3" font-family="Times,serif" font-size="14.00">Supply</text>
<polyline fill="none" stroke="black" points="1512.83,-485.5 1760.55,-485.5 "/>
<text text-anchor="start" x="1520.83" y="-470.3" font-family="Times,serif" font-size="14.00">brand_model :character varying</text>
<text text-anchor="start" x="1520.83" y="-456.3" font-family="Times,serif" font-size="14.00">name :character varying</text>
<text text-anchor="start" x="1520.83" y="-442.3" font-family="Times,serif" font-size="14.00">warehouse_code :character varying</text>
<text text-anchor="start" x="1520.83" y="-428.3" font-family="Times,serif" font-size="14.00">part_number :character varying</text>
<text text-anchor="start" x="1520.83" y="-414.3" font-family="Times,serif" font-size="14.00">price :double precision</text>
<text text-anchor="start" x="1520.83" y="-400.3" font-family="Times,serif" font-size="14.00">stock :double precision</text>
<text text-anchor="start" x="1520.83" y="-386.3" font-family="Times,serif" font-size="14.00">um :character varying</text>
<text text-anchor="start" x="1520.83" y="-372.3" font-family="Times,serif" font-size="14.00">item_id :integer</text>
<text text-anchor="start" x="1520.83" y="-358.3" font-family="Times,serif" font-size="14.00">created_at :timestamp without time zone</text>
<text text-anchor="start" x="1520.83" y="-344.3" font-family="Times,serif" font-size="14.00">updated_at :timestamp without time zone</text>
<text text-anchor="start" x="1520.83" y="-330.3" font-family="Times,serif" font-size="14.00">id :integer</text>
</g>
<!-- Item&#45;&gt;Supply -->
<g id="edge6" class="edge"><title>Item&#45;&gt;Supply</title>
<path fill="none" stroke="#1377ea" d="M1636.69,-585.335C1636.69,-564.854 1636.69,-541.106 1636.69,-518.005"/>
<ellipse fill="none" stroke="#1377ea" cx="1636.69" cy="-589.461" rx="4" ry="4"/>
<polygon fill="#1377ea" stroke="#1377ea" points="1636.69,-517.804 1641.19,-507.804 1636.69,-512.804 1636.69,-507.804 1636.69,-507.804 1636.69,-507.804 1636.69,-512.804 1632.19,-507.805 1636.69,-517.804 1636.69,-517.804"/>
</g>
<!-- Task -->
<g id="node12" class="node"><title>Task</title>
<path fill="none" stroke="black" d="M1125.83,-144.5C1125.83,-144.5 1349.55,-144.5 1349.55,-144.5 1355.55,-144.5 1361.55,-150.5 1361.55,-156.5 1361.55,-156.5 1361.55,-246.5 1361.55,-246.5 1361.55,-252.5 1355.55,-258.5 1349.55,-258.5 1349.55,-258.5 1125.83,-258.5 1125.83,-258.5 1119.83,-258.5 1113.83,-252.5 1113.83,-246.5 1113.83,-246.5 1113.83,-156.5 1113.83,-156.5 1113.83,-150.5 1119.83,-144.5 1125.83,-144.5"/>
<text text-anchor="middle" x="1237.69" y="-243.3" font-family="Times,serif" font-size="14.00">Task</text>
<polyline fill="none" stroke="black" points="1113.83,-236.5 1361.55,-236.5 "/>
<text text-anchor="start" x="1121.83" y="-221.3" font-family="Times,serif" font-size="14.00">id :integer</text>
<text text-anchor="start" x="1121.83" y="-207.3" font-family="Times,serif" font-size="14.00">description :character varying</text>
<text text-anchor="start" x="1121.83" y="-193.3" font-family="Times,serif" font-size="14.00">task_type_id :integer</text>
<text text-anchor="start" x="1121.83" y="-179.3" font-family="Times,serif" font-size="14.00">master_maintenance_plan_id :integer</text>
<text text-anchor="start" x="1121.83" y="-165.3" font-family="Times,serif" font-size="14.00">created_at :timestamp without time zone</text>
<text text-anchor="start" x="1121.83" y="-151.3" font-family="Times,serif" font-size="14.00">updated_at :timestamp without time zone</text>
</g>
<!-- MasterMaintenancePlan&#45;&gt;Task -->
<g id="edge7" class="edge"><title>MasterMaintenancePlan&#45;&gt;Task</title>
<path fill="none" stroke="#85c188" d="M1152.95,-337.569C1167.4,-314.54 1183.09,-289.527 1197,-267.357"/>
<ellipse fill="none" stroke="#85c188" cx="1150.73" cy="-341.107" rx="4.00002" ry="4.00002"/>
<polygon fill="#85c188" stroke="#85c188" points="1197.12,-267.16 1206.25,-261.081 1199.78,-262.925 1202.44,-258.689 1202.44,-258.689 1202.44,-258.689 1199.78,-262.925 1198.62,-256.298 1197.12,-267.16 1197.12,-267.16"/>
</g>
<!-- System -->
<g id="node11" class="node"><title>System</title>
<path fill="none" stroke="black" d="M85.8254,-0.5C85.8254,-0.5 309.55,-0.5 309.55,-0.5 315.55,-0.5 321.55,-6.5 321.55,-12.5 321.55,-12.5 321.55,-88.5 321.55,-88.5 321.55,-94.5 315.55,-100.5 309.55,-100.5 309.55,-100.5 85.8254,-100.5 85.8254,-100.5 79.8254,-100.5 73.8254,-94.5 73.8254,-88.5 73.8254,-88.5 73.8254,-12.5 73.8254,-12.5 73.8254,-6.5 79.8254,-0.5 85.8254,-0.5"/>
<text text-anchor="middle" x="197.688" y="-85.3" font-family="Times,serif" font-size="14.00">System</text>
<polyline fill="none" stroke="black" points="73.8254,-78.5 321.55,-78.5 "/>
<text text-anchor="start" x="81.8254" y="-63.3" font-family="Times,serif" font-size="14.00">id :integer</text>
<text text-anchor="start" x="81.8254" y="-49.3" font-family="Times,serif" font-size="14.00">name :character varying</text>
<text text-anchor="start" x="81.8254" y="-35.3" font-family="Times,serif" font-size="14.00">plant_id :integer</text>
<text text-anchor="start" x="81.8254" y="-21.3" font-family="Times,serif" font-size="14.00">created_at :timestamp without time zone</text>
<text text-anchor="start" x="81.8254" y="-7.3" font-family="Times,serif" font-size="14.00">updated_at :timestamp without time zone</text>
</g>
<!-- Plant&#45;&gt;System -->
<g id="edge8" class="edge"><title>Plant&#45;&gt;System</title>
<path fill="none" stroke="#c7b5da" d="M197.688,-143.157C197.688,-132.529 197.688,-121.409 197.688,-110.727"/>
<ellipse fill="none" stroke="#c7b5da" cx="197.688" cy="-147.299" rx="4" ry="4"/>
<polygon fill="#c7b5da" stroke="#c7b5da" points="197.688,-110.649 202.188,-100.649 197.688,-105.649 197.688,-100.649 197.688,-100.649 197.688,-100.649 197.688,-105.649 193.188,-100.649 197.688,-110.649 197.688,-110.649"/>
</g>
<!-- Role -->
<g id="node9" class="node"><title>Role</title>
<path fill="none" stroke="black" d="M726.825,-372.5C726.825,-372.5 950.55,-372.5 950.55,-372.5 956.55,-372.5 962.55,-378.5 962.55,-384.5 962.55,-384.5 962.55,-446.5 962.55,-446.5 962.55,-452.5 956.55,-458.5 950.55,-458.5 950.55,-458.5 726.825,-458.5 726.825,-458.5 720.825,-458.5 714.825,-452.5 714.825,-446.5 714.825,-446.5 714.825,-384.5 714.825,-384.5 714.825,-378.5 720.825,-372.5 726.825,-372.5"/>
<text text-anchor="middle" x="838.688" y="-443.3" font-family="Times,serif" font-size="14.00">Role</text>
<polyline fill="none" stroke="black" points="714.825,-436.5 962.55,-436.5 "/>
<text text-anchor="start" x="722.825" y="-421.3" font-family="Times,serif" font-size="14.00">id :integer</text>
<text text-anchor="start" x="722.825" y="-407.3" font-family="Times,serif" font-size="14.00">name :character varying</text>
<text text-anchor="start" x="722.825" y="-393.3" font-family="Times,serif" font-size="14.00">created_at :timestamp without time zone</text>
<text text-anchor="start" x="722.825" y="-379.3" font-family="Times,serif" font-size="14.00">updated_at :timestamp without time zone</text>
</g>
<!-- Role&#45;&gt;CompanyUser -->
<g id="edge9" class="edge"><title>Role&#45;&gt;CompanyUser</title>
<path fill="none" stroke="#43638c" d="M787.024,-366.837C763.321,-345.935 734.378,-321.725 706.688,-302 691.947,-291.499 676.041,-281.07 660.09,-271.134"/>
<ellipse fill="none" stroke="#43638c" cx="790.255" cy="-369.702" rx="4.00002" ry="4.00002"/>
<polygon fill="#43638c" stroke="#43638c" points="659.741,-270.919 653.594,-261.838 655.486,-268.293 651.231,-265.668 651.231,-265.668 651.231,-265.668 655.486,-268.293 648.868,-269.497 659.741,-270.919 659.741,-270.919"/>
</g>
<!-- TaskType -->
<g id="node13" class="node"><title>TaskType</title>
<path fill="none" stroke="black" d="M1258.83,-372.5C1258.83,-372.5 1482.55,-372.5 1482.55,-372.5 1488.55,-372.5 1494.55,-378.5 1494.55,-384.5 1494.55,-384.5 1494.55,-446.5 1494.55,-446.5 1494.55,-452.5 1488.55,-458.5 1482.55,-458.5 1482.55,-458.5 1258.83,-458.5 1258.83,-458.5 1252.83,-458.5 1246.83,-452.5 1246.83,-446.5 1246.83,-446.5 1246.83,-384.5 1246.83,-384.5 1246.83,-378.5 1252.83,-372.5 1258.83,-372.5"/>
<text text-anchor="middle" x="1370.69" y="-443.3" font-family="Times,serif" font-size="14.00">TaskType</text>
<polyline fill="none" stroke="black" points="1246.83,-436.5 1494.55,-436.5 "/>
<text text-anchor="start" x="1254.83" y="-421.3" font-family="Times,serif" font-size="14.00">id :integer</text>
<text text-anchor="start" x="1254.83" y="-407.3" font-family="Times,serif" font-size="14.00">name :character varying</text>
<text text-anchor="start" x="1254.83" y="-393.3" font-family="Times,serif" font-size="14.00">created_at :timestamp without time zone</text>
<text text-anchor="start" x="1254.83" y="-379.3" font-family="Times,serif" font-size="14.00">updated_at :timestamp without time zone</text>
</g>
<!-- TaskType&#45;&gt;Task -->
<g id="edge10" class="edge"><title>TaskType&#45;&gt;Task</title>
<path fill="none" stroke="#e6d9bd" d="M1339.82,-365.302C1321.54,-336.155 1298.15,-298.877 1278.37,-267.349"/>
<ellipse fill="none" stroke="#e6d9bd" cx="1342.13" cy="-368.974" rx="4.00002" ry="4.00002"/>
<polygon fill="#e6d9bd" stroke="#e6d9bd" points="1278.21,-267.091 1276.71,-256.228 1275.55,-262.855 1272.9,-258.62 1272.9,-258.62 1272.9,-258.62 1275.55,-262.855 1269.08,-261.011 1278.21,-267.091 1278.21,-267.091"/>
</g>
<!-- User&#45;&gt;CompanyUser -->
<g id="edge11" class="edge"><title>User&#45;&gt;CompanyUser</title>
<path fill="none" stroke="#dd3582" d="M537.688,-294.039C537.688,-287.769 537.688,-281.568 537.688,-275.525"/>
<ellipse fill="none" stroke="#dd3582" cx="537.688" cy="-298.292" rx="4" ry="4"/>
<polygon fill="#dd3582" stroke="#dd3582" points="537.688,-275.522 542.188,-265.522 537.688,-270.522 537.688,-265.522 537.688,-265.522 537.688,-265.522 537.688,-270.522 533.188,-265.522 537.688,-275.522 537.688,-275.522"/>
</g>
</g>
</svg>
